G04 Layer_Color=8388736*
%FSLAX24Y24*%
%MOIN*%
G70*
G01*
G75*
%ADD10C,0.0080*%
%ADD11C,0.0100*%
%ADD12C,0.0060*%
D10*
X-27128Y10340D02*
Y10931D01*
X-26928Y10340D02*
Y10931D01*
X-27328Y10340D02*
Y10931D01*
X-26528Y10340D02*
Y10931D01*
X-26328Y10340D02*
Y10931D01*
X-26728Y10340D02*
Y10931D01*
X-28128Y10340D02*
Y10931D01*
X-27928Y10340D02*
Y10931D01*
X-28328Y10340D02*
Y10931D01*
X-27528Y10340D02*
Y10931D01*
X-27728Y10340D02*
Y10931D01*
X-24928Y10340D02*
Y10931D01*
X-24728Y10340D02*
Y10931D01*
X-25128Y10340D02*
Y10931D01*
X-24409Y10340D02*
Y10931D01*
X-24528Y10340D02*
Y10931D01*
X-25928Y10340D02*
Y10931D01*
X-25728Y10340D02*
Y10931D01*
X-26128Y10340D02*
Y10931D01*
X-25328Y10340D02*
Y10931D01*
X-25528Y10340D02*
Y10931D01*
X-31299D02*
X-24409D01*
X-28528Y10340D02*
Y10931D01*
X-31299Y10832D02*
X-24409D01*
X-31299Y10431D02*
X-24409D01*
X-31299Y10632D02*
X-24409D01*
X-29728Y10340D02*
Y10931D01*
X-29528Y10340D02*
Y10931D01*
X-29928Y10340D02*
Y10931D01*
X-28728Y10340D02*
Y10931D01*
X-29328Y10340D02*
Y10931D01*
X-30128Y10340D02*
Y10931D01*
X-29128Y10340D02*
Y10931D01*
X-30328Y10340D02*
Y10931D01*
X-28928Y10340D02*
Y10931D01*
X-31299Y10340D02*
X-24409D01*
X-31128D02*
Y10931D01*
X-30928Y10340D02*
Y10931D01*
X-31299Y10340D02*
Y10931D01*
X-30528Y10340D02*
Y10931D01*
X-30728Y10340D02*
Y10931D01*
X-27128Y13780D02*
Y14370D01*
X-26928Y13780D02*
Y14370D01*
X-27328Y13780D02*
Y14370D01*
X-26528Y13780D02*
Y14370D01*
X-26328Y13780D02*
Y14370D01*
X-26728Y13780D02*
Y14370D01*
X-28128Y13780D02*
Y14370D01*
X-27928Y13780D02*
Y14370D01*
X-28328Y13780D02*
Y14370D01*
X-27528Y13780D02*
Y14370D01*
X-27728Y13780D02*
Y14370D01*
X-24928Y13780D02*
Y14370D01*
X-24728Y13780D02*
Y14370D01*
X-25128Y13780D02*
Y14370D01*
X-24409Y13780D02*
Y14370D01*
X-24528Y13780D02*
Y14370D01*
X-25928Y13780D02*
Y14370D01*
X-25728Y13780D02*
Y14370D01*
X-26128Y13780D02*
Y14370D01*
X-25328Y13780D02*
Y14370D01*
X-25528Y13780D02*
Y14370D01*
X-31299D02*
X-24409D01*
X-28528Y13780D02*
Y14370D01*
X-31299Y14231D02*
X-24409D01*
X-31299Y13831D02*
X-24409D01*
X-31299Y14031D02*
X-24409D01*
X-29728Y13780D02*
Y14370D01*
X-29528Y13780D02*
Y14370D01*
X-29928Y13780D02*
Y14370D01*
X-28728Y13780D02*
Y14370D01*
X-29328Y13780D02*
Y14370D01*
X-30128Y13780D02*
Y14370D01*
X-29128Y13780D02*
Y14370D01*
X-30328Y13780D02*
Y14370D01*
X-28928Y13780D02*
Y14370D01*
X-31299Y13780D02*
X-24409D01*
X-31128D02*
Y14370D01*
X-30928Y13780D02*
Y14370D01*
X-31299Y13780D02*
Y14370D01*
X-30528Y13780D02*
Y14370D01*
X-30728Y13780D02*
Y14370D01*
X-25394Y10827D02*
X-24803D01*
X-30906Y13869D02*
X-24803D01*
Y10827D02*
Y13869D01*
X-30906Y10827D02*
Y13869D01*
Y10827D02*
X-25394D01*
X-34252Y16348D02*
Y15748D01*
X-33952D01*
X-33852Y15848D01*
Y16248D01*
X-33952Y16348D01*
X-34252D01*
X-33252D02*
X-33652D01*
Y15748D01*
X-33252D01*
X-33652Y16048D02*
X-33452D01*
X-33052Y16348D02*
X-32652D01*
X-32852D01*
Y15748D01*
X-32453D02*
Y16148D01*
X-32253Y16348D01*
X-32053Y16148D01*
Y15748D01*
Y16048D01*
X-32453D01*
X-31853Y16348D02*
X-31653D01*
X-31753D01*
Y15748D01*
X-31853D01*
X-31653D01*
X-31353Y16348D02*
Y15748D01*
X-30953D01*
X-30153D02*
Y16148D01*
X-29953Y16348D01*
X-29753Y16148D01*
Y15748D01*
Y16048D01*
X-30153D01*
X-28954D02*
X-28554D01*
X-27754Y16348D02*
Y15748D01*
X-27354D01*
X-27154D02*
Y16148D01*
X-26954Y16348D01*
X-26754Y16148D01*
Y15748D01*
Y16048D01*
X-27154D01*
X-26554Y16348D02*
Y16248D01*
X-26355Y16048D01*
X-26155Y16248D01*
Y16348D01*
X-26355Y16048D02*
Y15748D01*
X-25555Y16348D02*
X-25955D01*
Y15748D01*
X-25555D01*
X-25955Y16048D02*
X-25755D01*
X-25355Y15748D02*
Y16348D01*
X-25055D01*
X-24955Y16248D01*
Y16048D01*
X-25055Y15948D01*
X-25355D01*
X-25155D02*
X-24955Y15748D01*
X-23755Y16248D02*
X-23855Y16348D01*
X-24055D01*
X-24155Y16248D01*
Y16148D01*
X-24055Y16048D01*
X-23855D01*
X-23755Y15948D01*
Y15848D01*
X-23855Y15748D01*
X-24055D01*
X-24155Y15848D01*
X-23555Y16348D02*
X-23156D01*
X-23355D01*
Y15748D01*
X-22956D02*
Y16148D01*
X-22756Y16348D01*
X-22556Y16148D01*
Y15748D01*
Y16048D01*
X-22956D01*
X-21956Y16248D02*
X-22056Y16348D01*
X-22256D01*
X-22356Y16248D01*
Y15848D01*
X-22256Y15748D01*
X-22056D01*
X-21956Y15848D01*
X-21756Y16348D02*
Y15748D01*
Y15948D01*
X-21356Y16348D01*
X-21656Y16048D01*
X-21356Y15748D01*
X-21156Y16348D02*
Y15848D01*
X-21056Y15748D01*
X-20856D01*
X-20756Y15848D01*
Y16348D01*
X-20556Y15748D02*
Y16348D01*
X-20256D01*
X-20157Y16248D01*
Y16048D01*
X-20256Y15948D01*
X-20556D01*
D11*
X-33565Y10340D02*
X-31399D01*
X-33565Y14370D02*
X-31399D01*
X-33465Y10340D02*
Y12155D01*
Y12355D02*
Y14370D01*
Y10340D02*
X-33265Y10940D01*
X-33665D02*
X-33465Y10340D01*
X-33665Y13770D02*
X-33465Y14370D01*
X-33265Y13770D01*
D12*
X-23819Y10833D02*
Y10433D01*
X-23552D01*
X-23419D02*
Y10700D01*
X-23286Y10833D01*
X-23152Y10700D01*
Y10433D01*
Y10633D01*
X-23419D01*
X-23019Y10833D02*
Y10766D01*
X-22886Y10633D01*
X-22753Y10766D01*
Y10833D01*
X-22886Y10633D02*
Y10433D01*
X-22353Y10833D02*
X-22619D01*
Y10433D01*
X-22353D01*
X-22619Y10633D02*
X-22486D01*
X-22219Y10433D02*
Y10833D01*
X-22019D01*
X-21953Y10766D01*
Y10633D01*
X-22019Y10566D01*
X-22219D01*
X-22086D02*
X-21953Y10433D01*
X-21153D02*
X-21420D01*
X-21153Y10700D01*
Y10766D01*
X-21220Y10833D01*
X-21353D01*
X-21420Y10766D01*
X-19820Y10833D02*
Y10433D01*
X-19620D01*
X-19554Y10500D01*
Y10566D01*
X-19620Y10633D01*
X-19820D01*
X-19620D01*
X-19554Y10700D01*
Y10766D01*
X-19620Y10833D01*
X-19820D01*
X-19220D02*
X-19354D01*
X-19420Y10766D01*
Y10500D01*
X-19354Y10433D01*
X-19220D01*
X-19154Y10500D01*
Y10766D01*
X-19220Y10833D01*
X-19020D02*
X-18754D01*
X-18887D01*
Y10433D01*
X-18621Y10833D02*
X-18354D01*
X-18487D01*
Y10433D01*
X-18021Y10833D02*
X-18154D01*
X-18221Y10766D01*
Y10500D01*
X-18154Y10433D01*
X-18021D01*
X-17954Y10500D01*
Y10766D01*
X-18021Y10833D01*
X-17821Y10433D02*
Y10833D01*
X-17688Y10700D01*
X-17554Y10833D01*
Y10433D01*
X-16621D02*
X-16488D01*
X-16555D01*
Y10833D01*
X-16621Y10766D01*
X-15688Y10833D02*
X-15821D01*
X-15888Y10766D01*
Y10500D01*
X-15821Y10433D01*
X-15688D01*
X-15622Y10500D01*
Y10766D01*
X-15688Y10833D01*
X-15488D02*
X-15222D01*
Y10766D01*
X-15488Y10500D01*
Y10433D01*
X-15222D01*
X-23819Y14179D02*
Y13780D01*
X-23552D01*
X-23419D02*
Y14046D01*
X-23286Y14179D01*
X-23152Y14046D01*
Y13780D01*
Y13979D01*
X-23419D01*
X-23019Y14179D02*
Y14113D01*
X-22886Y13979D01*
X-22753Y14113D01*
Y14179D01*
X-22886Y13979D02*
Y13780D01*
X-22353Y14179D02*
X-22619D01*
Y13780D01*
X-22353D01*
X-22619Y13979D02*
X-22486D01*
X-22219Y13780D02*
Y14179D01*
X-22019D01*
X-21953Y14113D01*
Y13979D01*
X-22019Y13913D01*
X-22219D01*
X-22086D02*
X-21953Y13780D01*
X-21420D02*
X-21286D01*
X-21353D01*
Y14179D01*
X-21420Y14113D01*
X-19887Y14179D02*
X-19620D01*
X-19754D01*
Y13780D01*
X-19287Y14179D02*
X-19420D01*
X-19487Y14113D01*
Y13846D01*
X-19420Y13780D01*
X-19287D01*
X-19220Y13846D01*
Y14113D01*
X-19287Y14179D01*
X-19087Y13780D02*
Y14179D01*
X-18887D01*
X-18821Y14113D01*
Y13979D01*
X-18887Y13913D01*
X-19087D01*
X-16688Y13780D02*
X-16555D01*
X-16621D01*
Y14179D01*
X-16688Y14113D01*
X-15755Y14179D02*
X-15888D01*
X-15955Y14113D01*
Y13846D01*
X-15888Y13780D01*
X-15755D01*
X-15688Y13846D01*
Y14113D01*
X-15755Y14179D01*
X-15555D02*
X-15288D01*
Y14113D01*
X-15555Y13846D01*
Y13780D01*
X-15288D01*
X-38583Y12538D02*
X-38516Y12605D01*
X-38383D01*
X-38316Y12538D01*
Y12271D01*
X-38383Y12205D01*
X-38516D01*
X-38583Y12271D01*
Y12538D01*
X-38183Y12205D02*
Y12271D01*
X-38116D01*
Y12205D01*
X-38183D01*
X-37850Y12538D02*
X-37783Y12605D01*
X-37650D01*
X-37583Y12538D01*
Y12271D01*
X-37650Y12205D01*
X-37783D01*
X-37850Y12271D01*
Y12538D01*
X-37183Y12605D02*
X-37316Y12538D01*
X-37450Y12405D01*
Y12271D01*
X-37383Y12205D01*
X-37250D01*
X-37183Y12271D01*
Y12338D01*
X-37250Y12405D01*
X-37450D01*
X-36783Y12205D02*
X-37050D01*
X-36783Y12471D01*
Y12538D01*
X-36850Y12605D01*
X-36983D01*
X-37050Y12538D01*
X-35917Y12605D02*
X-35650D01*
X-35784D01*
Y12205D01*
X-35517Y12605D02*
Y12205D01*
Y12405D01*
X-35250D01*
Y12605D01*
Y12205D01*
X-35117Y12605D02*
X-34984D01*
X-35050D01*
Y12205D01*
X-35117D01*
X-34984D01*
X-34517Y12538D02*
X-34584Y12605D01*
X-34717D01*
X-34784Y12538D01*
Y12271D01*
X-34717Y12205D01*
X-34584D01*
X-34517Y12271D01*
X-34384Y12605D02*
Y12205D01*
Y12338D01*
X-34117Y12605D01*
X-34317Y12405D01*
X-34117Y12205D01*
X-39764Y19685D02*
X-39630D01*
X-39697D01*
Y20085D01*
X-39764Y20018D01*
X-39431D02*
X-39364Y20085D01*
X-39231D01*
X-39164Y20018D01*
Y19752D01*
X-39231Y19685D01*
X-39364D01*
X-39431Y19752D01*
Y20018D01*
X-39031Y19685D02*
Y19752D01*
X-38964D01*
Y19685D01*
X-39031D01*
X-38298Y20085D02*
Y19685D01*
X-38031D01*
X-37898D02*
Y19952D01*
X-37764Y20085D01*
X-37631Y19952D01*
Y19685D01*
Y19885D01*
X-37898D01*
X-37498Y20085D02*
Y20018D01*
X-37365Y19885D01*
X-37231Y20018D01*
Y20085D01*
X-37365Y19885D02*
Y19685D01*
X-36831Y20085D02*
X-37098D01*
Y19685D01*
X-36831D01*
X-37098Y19885D02*
X-36965D01*
X-36698Y19685D02*
Y20085D01*
X-36498D01*
X-36432Y20018D01*
Y19885D01*
X-36498Y19818D01*
X-36698D01*
X-36565D02*
X-36432Y19685D01*
X-35632Y20018D02*
X-35698Y20085D01*
X-35832D01*
X-35898Y20018D01*
Y19952D01*
X-35832Y19885D01*
X-35698D01*
X-35632Y19818D01*
Y19752D01*
X-35698Y19685D01*
X-35832D01*
X-35898Y19752D01*
X-35498Y20085D02*
X-35232D01*
X-35365D01*
Y19685D01*
X-35099D02*
Y19952D01*
X-34965Y20085D01*
X-34832Y19952D01*
Y19685D01*
Y19885D01*
X-35099D01*
X-34432Y20018D02*
X-34499Y20085D01*
X-34632D01*
X-34699Y20018D01*
Y19752D01*
X-34632Y19685D01*
X-34499D01*
X-34432Y19752D01*
X-34299Y20085D02*
Y19685D01*
Y19818D01*
X-34032Y20085D01*
X-34232Y19885D01*
X-34032Y19685D01*
X-33899Y20085D02*
Y19752D01*
X-33832Y19685D01*
X-33699D01*
X-33632Y19752D01*
Y20085D01*
X-33499Y19685D02*
Y20085D01*
X-33299D01*
X-33233Y20018D01*
Y19885D01*
X-33299Y19818D01*
X-33499D01*
X-32699Y19885D02*
X-32433D01*
X-31633Y20018D02*
X-31700Y20085D01*
X-31833D01*
X-31900Y20018D01*
Y19952D01*
X-31833Y19885D01*
X-31700D01*
X-31633Y19818D01*
Y19752D01*
X-31700Y19685D01*
X-31833D01*
X-31900Y19752D01*
X-31233Y20085D02*
X-31500D01*
Y19685D01*
X-31233D01*
X-31500Y19885D02*
X-31366D01*
X-30833Y20085D02*
X-31100D01*
Y19685D01*
X-30833D01*
X-31100Y19885D02*
X-30967D01*
X-30300Y20085D02*
Y19685D01*
X-30100D01*
X-30034Y19752D01*
Y20018D01*
X-30100Y20085D01*
X-30300D01*
X-29634D02*
X-29900D01*
Y19685D01*
X-29634D01*
X-29900Y19885D02*
X-29767D01*
X-29500Y20085D02*
X-29234D01*
X-29367D01*
Y19685D01*
X-29101D02*
Y19952D01*
X-28967Y20085D01*
X-28834Y19952D01*
Y19685D01*
Y19885D01*
X-29101D01*
X-28701Y20085D02*
X-28567D01*
X-28634D01*
Y19685D01*
X-28701D01*
X-28567D01*
X-28367Y20085D02*
Y19685D01*
X-28101D01*
X-27568D02*
Y19952D01*
X-27434Y20085D01*
X-27301Y19952D01*
Y19685D01*
Y19885D01*
X-27568D01*
X-38780Y21654D02*
Y21920D01*
X-38646Y22053D01*
X-38513Y21920D01*
Y21654D01*
Y21853D01*
X-38780D01*
X-38380Y22053D02*
Y21654D01*
X-38180D01*
X-38113Y21720D01*
Y21987D01*
X-38180Y22053D01*
X-38380D01*
X-37980D02*
Y21654D01*
X-37780D01*
X-37713Y21720D01*
Y21987D01*
X-37780Y22053D01*
X-37980D01*
X-37180D02*
Y21720D01*
X-37113Y21654D01*
X-36980D01*
X-36913Y21720D01*
Y22053D01*
X-36780D02*
Y21654D01*
X-36514D01*
X-35980D02*
Y22053D01*
X-35847Y21920D01*
X-35714Y22053D01*
Y21654D01*
X-35581D02*
Y21920D01*
X-35447Y22053D01*
X-35314Y21920D01*
Y21654D01*
Y21853D01*
X-35581D01*
X-35181Y21654D02*
Y22053D01*
X-34981D01*
X-34914Y21987D01*
Y21853D01*
X-34981Y21787D01*
X-35181D01*
X-35047D02*
X-34914Y21654D01*
X-34781Y22053D02*
Y21654D01*
Y21787D01*
X-34514Y22053D01*
X-34714Y21853D01*
X-34514Y21654D01*
X-34381Y22053D02*
X-34248D01*
X-34314D01*
Y21654D01*
X-34381D01*
X-34248D01*
X-34048D02*
Y22053D01*
X-33781Y21654D01*
Y22053D01*
X-33381Y21987D02*
X-33448Y22053D01*
X-33581D01*
X-33648Y21987D01*
Y21720D01*
X-33581Y21654D01*
X-33448D01*
X-33381Y21720D01*
Y21853D01*
X-33515D01*
X-32848Y21654D02*
Y21920D01*
X-32715Y22053D01*
X-32582Y21920D01*
Y21654D01*
Y21853D01*
X-32848D01*
X-32448Y21654D02*
Y22053D01*
X-32182Y21654D01*
Y22053D01*
X-32048D02*
Y21654D01*
X-31848D01*
X-31782Y21720D01*
Y21987D01*
X-31848Y22053D01*
X-32048D01*
X-31249D02*
X-31115D01*
X-31182D01*
Y21654D01*
X-31249D01*
X-31115D01*
X-30915Y22053D02*
Y21654D01*
X-30715D01*
X-30649Y21720D01*
Y21987D01*
X-30715Y22053D01*
X-30915D01*
X-39764Y23689D02*
X-39697Y23622D01*
X-39564D01*
X-39497Y23689D01*
Y23955D01*
X-39564Y24022D01*
X-39697D01*
X-39764Y23955D01*
Y23889D01*
X-39697Y23822D01*
X-39497D01*
X-39364Y23622D02*
Y23689D01*
X-39297D01*
Y23622D01*
X-39364D01*
X-38364Y23955D02*
X-38431Y24022D01*
X-38564D01*
X-38631Y23955D01*
Y23889D01*
X-38564Y23822D01*
X-38431D01*
X-38364Y23755D01*
Y23689D01*
X-38431Y23622D01*
X-38564D01*
X-38631Y23689D01*
X-38231Y24022D02*
Y23689D01*
X-38164Y23622D01*
X-38031D01*
X-37964Y23689D01*
Y24022D01*
X-37831Y23622D02*
Y24022D01*
X-37631D01*
X-37564Y23955D01*
Y23822D01*
X-37631Y23755D01*
X-37831D01*
X-37431Y23622D02*
Y24022D01*
X-37231D01*
X-37165Y23955D01*
Y23822D01*
X-37231Y23755D01*
X-37431D01*
X-37031Y24022D02*
Y23622D01*
X-36765D01*
X-36631Y24022D02*
X-36498D01*
X-36565D01*
Y23622D01*
X-36631D01*
X-36498D01*
X-36032Y24022D02*
X-36298D01*
Y23622D01*
X-36032D01*
X-36298Y23822D02*
X-36165D01*
X-35898Y23622D02*
Y24022D01*
X-35698D01*
X-35632Y23955D01*
Y23822D01*
X-35698Y23755D01*
X-35898D01*
X-35765D02*
X-35632Y23622D01*
X-35099D02*
Y24022D01*
X-34965Y23889D01*
X-34832Y24022D01*
Y23622D01*
X-34699D02*
Y23889D01*
X-34565Y24022D01*
X-34432Y23889D01*
Y23622D01*
Y23822D01*
X-34699D01*
X-34299Y23622D02*
Y24022D01*
X-34099D01*
X-34032Y23955D01*
Y23822D01*
X-34099Y23755D01*
X-34299D01*
X-34166D02*
X-34032Y23622D01*
X-33899Y24022D02*
Y23622D01*
Y23755D01*
X-33632Y24022D01*
X-33832Y23822D01*
X-33632Y23622D01*
X-33499Y24022D02*
X-33366D01*
X-33432D01*
Y23622D01*
X-33499D01*
X-33366D01*
X-33166D02*
Y24022D01*
X-32899Y23622D01*
Y24022D01*
X-32499Y23955D02*
X-32566Y24022D01*
X-32699D01*
X-32766Y23955D01*
Y23689D01*
X-32699Y23622D01*
X-32566D01*
X-32499Y23689D01*
Y23822D01*
X-32633D01*
X-31966D02*
X-31700D01*
X-30967Y24022D02*
X-31100D01*
X-31167Y23955D01*
Y23689D01*
X-31100Y23622D01*
X-30967D01*
X-30900Y23689D01*
Y23955D01*
X-30967Y24022D01*
X-30767Y23622D02*
Y24022D01*
X-30500Y23622D01*
Y24022D01*
X-29700Y23955D02*
X-29767Y24022D01*
X-29900D01*
X-29967Y23955D01*
Y23889D01*
X-29900Y23822D01*
X-29767D01*
X-29700Y23755D01*
Y23689D01*
X-29767Y23622D01*
X-29900D01*
X-29967Y23689D01*
X-29367Y24022D02*
X-29500D01*
X-29567Y23955D01*
Y23689D01*
X-29500Y23622D01*
X-29367D01*
X-29300Y23689D01*
Y23955D01*
X-29367Y24022D01*
X-29167D02*
Y23622D01*
X-28901D01*
X-28767Y24022D02*
Y23622D01*
X-28567D01*
X-28501Y23689D01*
Y23955D01*
X-28567Y24022D01*
X-28767D01*
X-28101D02*
X-28367D01*
Y23622D01*
X-28101D01*
X-28367Y23822D02*
X-28234D01*
X-27968Y23622D02*
Y24022D01*
X-27768D01*
X-27701Y23955D01*
Y23822D01*
X-27768Y23755D01*
X-27968D01*
X-27834D02*
X-27701Y23622D01*
X-26901Y23955D02*
X-26968Y24022D01*
X-27101D01*
X-27168Y23955D01*
Y23889D01*
X-27101Y23822D01*
X-26968D01*
X-26901Y23755D01*
Y23689D01*
X-26968Y23622D01*
X-27101D01*
X-27168Y23689D01*
X-26768Y24022D02*
X-26635D01*
X-26701D01*
Y23622D01*
X-26768D01*
X-26635D01*
X-26435Y24022D02*
Y23622D01*
X-26235D01*
X-26168Y23689D01*
Y23955D01*
X-26235Y24022D01*
X-26435D01*
X-25768D02*
X-26035D01*
Y23622D01*
X-25768D01*
X-26035Y23822D02*
X-25902D01*
X-38513Y28543D02*
X-38780D01*
X-38513Y28810D01*
Y28877D01*
X-38580Y28943D01*
X-38713D01*
X-38780Y28877D01*
X-37980Y28943D02*
Y28543D01*
X-37780D01*
X-37713Y28610D01*
Y28877D01*
X-37780Y28943D01*
X-37980D01*
X-37313D02*
X-37580D01*
Y28543D01*
X-37313D01*
X-37580Y28743D02*
X-37447D01*
X-36913Y28877D02*
X-36980Y28943D01*
X-37113D01*
X-37180Y28877D01*
Y28810D01*
X-37113Y28743D01*
X-36980D01*
X-36913Y28677D01*
Y28610D01*
X-36980Y28543D01*
X-37113D01*
X-37180Y28610D01*
X-36780Y28943D02*
X-36647D01*
X-36714D01*
Y28543D01*
X-36780D01*
X-36647D01*
X-36180Y28877D02*
X-36247Y28943D01*
X-36380D01*
X-36447Y28877D01*
Y28610D01*
X-36380Y28543D01*
X-36247D01*
X-36180Y28610D01*
Y28743D01*
X-36314D01*
X-36047Y28543D02*
Y28943D01*
X-35780Y28543D01*
Y28943D01*
X-35381Y28877D02*
X-35447Y28943D01*
X-35581D01*
X-35647Y28877D01*
Y28810D01*
X-35581Y28743D01*
X-35447D01*
X-35381Y28677D01*
Y28610D01*
X-35447Y28543D01*
X-35581D01*
X-35647Y28610D01*
X-34847Y28543D02*
Y28943D01*
X-34648D01*
X-34581Y28877D01*
Y28743D01*
X-34648Y28677D01*
X-34847D01*
X-34181Y28943D02*
X-34448D01*
Y28543D01*
X-34181D01*
X-34448Y28743D02*
X-34314D01*
X-34048Y28543D02*
Y28943D01*
X-33848D01*
X-33781Y28877D01*
Y28743D01*
X-33848Y28677D01*
X-34048D01*
X-33914D02*
X-33781Y28543D01*
X-33248D02*
Y28943D01*
X-33048D01*
X-32981Y28877D01*
Y28743D01*
X-33048Y28677D01*
X-33248D01*
X-32848Y28543D02*
Y28810D01*
X-32715Y28943D01*
X-32582Y28810D01*
Y28543D01*
Y28743D01*
X-32848D01*
X-32448Y28543D02*
Y28943D01*
X-32182Y28543D01*
Y28943D01*
X-31782D02*
X-32048D01*
Y28543D01*
X-31782D01*
X-32048Y28743D02*
X-31915D01*
X-31648Y28943D02*
Y28543D01*
X-31382D01*
X-38780Y27559D02*
Y27959D01*
X-38646Y27826D01*
X-38513Y27959D01*
Y27559D01*
X-38380D02*
Y27826D01*
X-38246Y27959D01*
X-38113Y27826D01*
Y27559D01*
Y27759D01*
X-38380D01*
X-37980Y27959D02*
X-37713Y27559D01*
Y27959D02*
X-37980Y27559D01*
X-37580Y27959D02*
X-37447D01*
X-37513D01*
Y27559D01*
X-37580D01*
X-37447D01*
X-37247D02*
Y27959D01*
X-37113Y27826D01*
X-36980Y27959D01*
Y27559D01*
X-36847Y27959D02*
Y27626D01*
X-36780Y27559D01*
X-36647D01*
X-36580Y27626D01*
Y27959D01*
X-36447Y27559D02*
Y27959D01*
X-36314Y27826D01*
X-36180Y27959D01*
Y27559D01*
X-35647D02*
Y27959D01*
X-35447D01*
X-35381Y27892D01*
Y27759D01*
X-35447Y27692D01*
X-35647D01*
X-35247Y27559D02*
Y27826D01*
X-35114Y27959D01*
X-34981Y27826D01*
Y27559D01*
Y27759D01*
X-35247D01*
X-34847Y27559D02*
Y27959D01*
X-34581Y27559D01*
Y27959D01*
X-34181D02*
X-34448D01*
Y27559D01*
X-34181D01*
X-34448Y27759D02*
X-34314D01*
X-34048Y27959D02*
Y27559D01*
X-33781D01*
X-32981Y27892D02*
X-33048Y27959D01*
X-33181D01*
X-33248Y27892D01*
Y27826D01*
X-33181Y27759D01*
X-33048D01*
X-32981Y27692D01*
Y27626D01*
X-33048Y27559D01*
X-33181D01*
X-33248Y27626D01*
X-32848Y27959D02*
X-32715D01*
X-32781D01*
Y27559D01*
X-32848D01*
X-32715D01*
X-32515Y27959D02*
X-32248D01*
Y27892D01*
X-32515Y27626D01*
Y27559D01*
X-32248D01*
X-31848Y27959D02*
X-32115D01*
Y27559D01*
X-31848D01*
X-32115Y27759D02*
X-31982D01*
X-31049Y27559D02*
X-31315D01*
X-31049Y27826D01*
Y27892D01*
X-31115Y27959D01*
X-31249D01*
X-31315Y27892D01*
X-30649Y27959D02*
X-30915D01*
Y27759D01*
X-30782Y27826D01*
X-30715D01*
X-30649Y27759D01*
Y27626D01*
X-30715Y27559D01*
X-30849D01*
X-30915Y27626D01*
X-30516Y27892D02*
X-30449Y27959D01*
X-30316D01*
X-30249Y27892D01*
Y27626D01*
X-30316Y27559D01*
X-30449D01*
X-30516Y27626D01*
Y27892D01*
X-29716Y27959D02*
X-29449Y27559D01*
Y27959D02*
X-29716Y27559D01*
X-28649D02*
X-28916D01*
X-28649Y27826D01*
Y27892D01*
X-28716Y27959D01*
X-28849D01*
X-28916Y27892D01*
X-28516D02*
X-28450Y27959D01*
X-28316D01*
X-28250Y27892D01*
Y27826D01*
X-28316Y27759D01*
X-28250Y27692D01*
Y27626D01*
X-28316Y27559D01*
X-28450D01*
X-28516Y27626D01*
Y27692D01*
X-28450Y27759D01*
X-28516Y27826D01*
Y27892D01*
X-28450Y27759D02*
X-28316D01*
X-28116Y27892D02*
X-28050Y27959D01*
X-27916D01*
X-27850Y27892D01*
Y27626D01*
X-27916Y27559D01*
X-28050D01*
X-28116Y27626D01*
Y27892D01*
X-27716Y27559D02*
Y27959D01*
X-27583Y27826D01*
X-27450Y27959D01*
Y27559D01*
X-27317D02*
Y27959D01*
X-27183Y27826D01*
X-27050Y27959D01*
Y27559D01*
X-39764Y29927D02*
X-39497D01*
Y29861D01*
X-39764Y29594D01*
Y29528D01*
X-39364D02*
Y29594D01*
X-39297D01*
Y29528D01*
X-39364D01*
X-38364Y29927D02*
X-38631D01*
Y29727D01*
X-38498D01*
X-38631D01*
Y29528D01*
X-38231Y29927D02*
X-38098D01*
X-38164D01*
Y29528D01*
X-38231D01*
X-38098D01*
X-37898D02*
Y29927D01*
X-37631Y29528D01*
Y29927D01*
X-37498D02*
X-37365D01*
X-37431D01*
Y29528D01*
X-37498D01*
X-37365D01*
X-36898Y29861D02*
X-36965Y29927D01*
X-37098D01*
X-37165Y29861D01*
Y29794D01*
X-37098Y29727D01*
X-36965D01*
X-36898Y29661D01*
Y29594D01*
X-36965Y29528D01*
X-37098D01*
X-37165Y29594D01*
X-36765Y29927D02*
Y29528D01*
Y29727D01*
X-36498D01*
Y29927D01*
Y29528D01*
X-36098Y29927D02*
X-36365D01*
Y29528D01*
X-36098D01*
X-36365Y29727D02*
X-36232D01*
X-35965Y29927D02*
Y29528D01*
X-35765D01*
X-35698Y29594D01*
Y29861D01*
X-35765Y29927D01*
X-35965D01*
X-35165Y29528D02*
Y29927D01*
X-34965D01*
X-34899Y29861D01*
Y29727D01*
X-34965Y29661D01*
X-35165D01*
X-34499Y29861D02*
X-34565Y29927D01*
X-34699D01*
X-34765Y29861D01*
Y29594D01*
X-34699Y29528D01*
X-34565D01*
X-34499Y29594D01*
X-34366Y29927D02*
Y29528D01*
X-34166D01*
X-34099Y29594D01*
Y29661D01*
X-34166Y29727D01*
X-34366D01*
X-34166D01*
X-34099Y29794D01*
Y29861D01*
X-34166Y29927D01*
X-34366D01*
X-33566Y29528D02*
Y29927D01*
X-33432Y29794D01*
X-33299Y29927D01*
Y29528D01*
X-33166Y29927D02*
Y29594D01*
X-33099Y29528D01*
X-32966D01*
X-32899Y29594D01*
Y29927D01*
X-32499Y29861D02*
X-32566Y29927D01*
X-32699D01*
X-32766Y29861D01*
Y29794D01*
X-32699Y29727D01*
X-32566D01*
X-32499Y29661D01*
Y29594D01*
X-32566Y29528D01*
X-32699D01*
X-32766Y29594D01*
X-32366Y29927D02*
X-32100D01*
X-32233D01*
Y29528D01*
X-31566Y29927D02*
Y29528D01*
X-31366D01*
X-31300Y29594D01*
Y29661D01*
X-31366Y29727D01*
X-31566D01*
X-31366D01*
X-31300Y29794D01*
Y29861D01*
X-31366Y29927D01*
X-31566D01*
X-30900D02*
X-31167D01*
Y29528D01*
X-30900D01*
X-31167Y29727D02*
X-31033D01*
X-30367Y29528D02*
Y29927D01*
X-30234Y29794D01*
X-30100Y29927D01*
Y29528D01*
X-29967D02*
Y29794D01*
X-29834Y29927D01*
X-29700Y29794D01*
Y29528D01*
Y29727D01*
X-29967D01*
X-29567Y29528D02*
Y29927D01*
X-29300Y29528D01*
Y29927D01*
X-28901D02*
X-29167D01*
Y29528D01*
X-28901D01*
X-29167Y29727D02*
X-29034D01*
X-28767Y29927D02*
Y29528D01*
X-28501D01*
X-28367Y29927D02*
X-28234D01*
X-28301D01*
Y29528D01*
X-28367D01*
X-28234D01*
X-28034Y29927D02*
X-27768D01*
Y29861D01*
X-28034Y29594D01*
Y29528D01*
X-27768D01*
X-27368Y29927D02*
X-27634D01*
Y29528D01*
X-27368D01*
X-27634Y29727D02*
X-27501D01*
X-27234Y29927D02*
Y29528D01*
X-27035D01*
X-26968Y29594D01*
Y29861D01*
X-27035Y29927D01*
X-27234D01*
X-26168D02*
X-26435D01*
Y29727D01*
X-26301D01*
X-26435D01*
Y29528D01*
X-25835Y29927D02*
X-25968D01*
X-26035Y29861D01*
Y29594D01*
X-25968Y29528D01*
X-25835D01*
X-25768Y29594D01*
Y29861D01*
X-25835Y29927D01*
X-25635Y29528D02*
Y29927D01*
X-25435D01*
X-25368Y29861D01*
Y29727D01*
X-25435Y29661D01*
X-25635D01*
X-25502D02*
X-25368Y29528D01*
X-24835D02*
Y29794D01*
X-24702Y29927D01*
X-24569Y29794D01*
Y29528D01*
Y29727D01*
X-24835D01*
X-24169Y29861D02*
X-24235Y29927D01*
X-24369D01*
X-24435Y29861D01*
Y29794D01*
X-24369Y29727D01*
X-24235D01*
X-24169Y29661D01*
Y29594D01*
X-24235Y29528D01*
X-24369D01*
X-24435Y29594D01*
X-23769Y29861D02*
X-23836Y29927D01*
X-23969D01*
X-24036Y29861D01*
Y29794D01*
X-23969Y29727D01*
X-23836D01*
X-23769Y29661D01*
Y29594D01*
X-23836Y29528D01*
X-23969D01*
X-24036Y29594D01*
X-23369Y29927D02*
X-23636D01*
Y29528D01*
X-23369D01*
X-23636Y29727D02*
X-23502D01*
X-23236Y29528D02*
Y29927D01*
X-23102Y29794D01*
X-22969Y29927D01*
Y29528D01*
X-22836Y29927D02*
Y29528D01*
X-22636D01*
X-22569Y29594D01*
Y29661D01*
X-22636Y29727D01*
X-22836D01*
X-22636D01*
X-22569Y29794D01*
Y29861D01*
X-22636Y29927D01*
X-22836D01*
X-22436D02*
Y29528D01*
X-22169D01*
X-22036Y29927D02*
Y29861D01*
X-21903Y29727D01*
X-21770Y29861D01*
Y29927D01*
X-21903Y29727D02*
Y29528D01*
X-21636D02*
Y29594D01*
X-21570D01*
Y29528D01*
X-21636D01*
X-20903D02*
Y29794D01*
X-20770Y29927D01*
X-20637Y29794D01*
Y29528D01*
Y29727D01*
X-20903D01*
X-20503Y29927D02*
Y29528D01*
X-20303D01*
X-20237Y29594D01*
Y29861D01*
X-20303Y29927D01*
X-20503D01*
X-20103D02*
Y29528D01*
X-19904D01*
X-19837Y29594D01*
Y29861D01*
X-19904Y29927D01*
X-20103D01*
X-19304Y29528D02*
Y29927D01*
X-19104D01*
X-19037Y29861D01*
Y29727D01*
X-19104Y29661D01*
X-19304D01*
X-19170D02*
X-19037Y29528D01*
X-18904D02*
Y29794D01*
X-18771Y29927D01*
X-18637Y29794D01*
Y29528D01*
Y29727D01*
X-18904D01*
X-18504Y29927D02*
X-18371D01*
X-18437D01*
Y29528D01*
X-18504D01*
X-18371D01*
X-18171Y29927D02*
Y29528D01*
X-17904D01*
X-17504Y29861D02*
X-17571Y29927D01*
X-17704D01*
X-17771Y29861D01*
Y29794D01*
X-17704Y29727D01*
X-17571D01*
X-17504Y29661D01*
Y29594D01*
X-17571Y29528D01*
X-17704D01*
X-17771Y29594D01*
X-16971Y29528D02*
Y29794D01*
X-16838Y29927D01*
X-16705Y29794D01*
Y29528D01*
Y29727D01*
X-16971D01*
X-16571Y29528D02*
Y29927D01*
X-16305Y29528D01*
Y29927D01*
X-16171D02*
Y29528D01*
X-15971D01*
X-15905Y29594D01*
Y29861D01*
X-15971Y29927D01*
X-16171D01*
X-15372Y29861D02*
X-15305Y29927D01*
X-15172D01*
X-15105Y29861D01*
Y29594D01*
X-15172Y29528D01*
X-15305D01*
X-15372Y29594D01*
Y29861D01*
X-14972Y29528D02*
Y29594D01*
X-14905D01*
Y29528D01*
X-14972D01*
X-14639D02*
X-14505D01*
X-14572D01*
Y29927D01*
X-14639Y29861D01*
X-14039Y29528D02*
X-14305D01*
X-14039Y29794D01*
Y29861D01*
X-14105Y29927D01*
X-14239D01*
X-14305Y29861D01*
X-13639Y29927D02*
X-13905D01*
Y29727D01*
X-13772Y29794D01*
X-13706D01*
X-13639Y29727D01*
Y29594D01*
X-13706Y29528D01*
X-13839D01*
X-13905Y29594D01*
X-12772Y29528D02*
Y29927D01*
X-12506Y29528D01*
Y29927D01*
X-12173D02*
X-12306D01*
X-12373Y29861D01*
Y29594D01*
X-12306Y29528D01*
X-12173D01*
X-12106Y29594D01*
Y29861D01*
X-12173Y29927D01*
X-11973Y29528D02*
Y29927D01*
X-11706Y29528D01*
Y29927D01*
X-11573Y29727D02*
X-11306D01*
X-11173Y29528D02*
Y29927D01*
X-10973D01*
X-10906Y29861D01*
Y29727D01*
X-10973Y29661D01*
X-11173D01*
X-10773Y29927D02*
Y29528D01*
X-10507D01*
X-10373D02*
Y29794D01*
X-10240Y29927D01*
X-10107Y29794D01*
Y29528D01*
Y29727D01*
X-10373D01*
X-9973Y29927D02*
X-9707D01*
X-9840D01*
Y29528D01*
X-9307Y29927D02*
X-9574D01*
Y29528D01*
X-9307D01*
X-9574Y29727D02*
X-9440D01*
X-9174Y29927D02*
Y29528D01*
X-8974D01*
X-8907Y29594D01*
Y29861D01*
X-8974Y29927D01*
X-9174D01*
X-8374D02*
X-8107D01*
X-8241D01*
Y29528D01*
X-7774Y29927D02*
X-7907D01*
X-7974Y29861D01*
Y29594D01*
X-7907Y29528D01*
X-7774D01*
X-7707Y29594D01*
Y29861D01*
X-7774Y29927D01*
X-7374D02*
X-7508D01*
X-7574Y29861D01*
Y29594D01*
X-7508Y29528D01*
X-7374D01*
X-7308Y29594D01*
Y29861D01*
X-7374Y29927D01*
X-7174D02*
Y29528D01*
X-6908D01*
X-6774Y29927D02*
X-6641D01*
X-6708D01*
Y29528D01*
X-6774D01*
X-6641D01*
X-6441D02*
Y29927D01*
X-6175Y29528D01*
Y29927D01*
X-5775Y29861D02*
X-5841Y29927D01*
X-5975D01*
X-6041Y29861D01*
Y29594D01*
X-5975Y29528D01*
X-5841D01*
X-5775Y29594D01*
Y29727D01*
X-5908D01*
X-5242Y29927D02*
Y29528D01*
Y29727D01*
X-4975D01*
Y29927D01*
Y29528D01*
X-4642Y29927D02*
X-4775D01*
X-4842Y29861D01*
Y29594D01*
X-4775Y29528D01*
X-4642D01*
X-4575Y29594D01*
Y29861D01*
X-4642Y29927D01*
X-4442D02*
Y29528D01*
X-4175D01*
X-3775Y29927D02*
X-4042D01*
Y29528D01*
X-3775D01*
X-4042Y29727D02*
X-3909D01*
X-3376Y29861D02*
X-3442Y29927D01*
X-3575D01*
X-3642Y29861D01*
Y29794D01*
X-3575Y29727D01*
X-3442D01*
X-3376Y29661D01*
Y29594D01*
X-3442Y29528D01*
X-3575D01*
X-3642Y29594D01*
X-3242Y29528D02*
Y29594D01*
X-3176D01*
Y29528D01*
X-3242D01*
X-38780Y22638D02*
Y22904D01*
X-38646Y23038D01*
X-38513Y22904D01*
Y22638D01*
Y22838D01*
X-38780D01*
X-38380Y23038D02*
Y22638D01*
X-38180D01*
X-38113Y22704D01*
Y22971D01*
X-38180Y23038D01*
X-38380D01*
X-37980D02*
Y22638D01*
X-37780D01*
X-37713Y22704D01*
Y22971D01*
X-37780Y23038D01*
X-37980D01*
X-37180Y22638D02*
Y23038D01*
X-36980D01*
X-36913Y22971D01*
Y22838D01*
X-36980Y22771D01*
X-37180D01*
X-37047D02*
X-36913Y22638D01*
X-36580Y23038D02*
X-36714D01*
X-36780Y22971D01*
Y22704D01*
X-36714Y22638D01*
X-36580D01*
X-36514Y22704D01*
Y22971D01*
X-36580Y23038D01*
X-36380D02*
Y22638D01*
Y22838D01*
X-36114D01*
Y23038D01*
Y22638D01*
X-35714Y22971D02*
X-35780Y23038D01*
X-35914D01*
X-35980Y22971D01*
Y22904D01*
X-35914Y22838D01*
X-35780D01*
X-35714Y22771D01*
Y22704D01*
X-35780Y22638D01*
X-35914D01*
X-35980Y22704D01*
X-35181Y23038D02*
Y22638D01*
X-34914D01*
X-34581Y23038D02*
X-34714D01*
X-34781Y22971D01*
Y22704D01*
X-34714Y22638D01*
X-34581D01*
X-34514Y22704D01*
Y22971D01*
X-34581Y23038D01*
X-34114Y22971D02*
X-34181Y23038D01*
X-34314D01*
X-34381Y22971D01*
Y22704D01*
X-34314Y22638D01*
X-34181D01*
X-34114Y22704D01*
Y22838D01*
X-34248D01*
X-39497Y31896D02*
X-39630Y31829D01*
X-39764Y31696D01*
Y31563D01*
X-39697Y31496D01*
X-39564D01*
X-39497Y31563D01*
Y31629D01*
X-39564Y31696D01*
X-39764D01*
X-39364Y31496D02*
Y31563D01*
X-39297D01*
Y31496D01*
X-39364D01*
X-38364Y31829D02*
X-38431Y31896D01*
X-38564D01*
X-38631Y31829D01*
Y31763D01*
X-38564Y31696D01*
X-38431D01*
X-38364Y31629D01*
Y31563D01*
X-38431Y31496D01*
X-38564D01*
X-38631Y31563D01*
X-38031Y31896D02*
X-38164D01*
X-38231Y31829D01*
Y31563D01*
X-38164Y31496D01*
X-38031D01*
X-37964Y31563D01*
Y31829D01*
X-38031Y31896D01*
X-37831D02*
Y31496D01*
X-37564D01*
X-37431Y31896D02*
Y31496D01*
X-37231D01*
X-37165Y31563D01*
Y31829D01*
X-37231Y31896D01*
X-37431D01*
X-36765D02*
X-37031D01*
Y31496D01*
X-36765D01*
X-37031Y31696D02*
X-36898D01*
X-36631Y31496D02*
Y31896D01*
X-36432D01*
X-36365Y31829D01*
Y31696D01*
X-36432Y31629D01*
X-36631D01*
X-36498D02*
X-36365Y31496D01*
X-35565Y31829D02*
X-35632Y31896D01*
X-35765D01*
X-35832Y31829D01*
Y31763D01*
X-35765Y31696D01*
X-35632D01*
X-35565Y31629D01*
Y31563D01*
X-35632Y31496D01*
X-35765D01*
X-35832Y31563D01*
X-35432Y31496D02*
Y31763D01*
X-35299Y31896D01*
X-35165Y31763D01*
Y31496D01*
Y31696D01*
X-35432D01*
X-35032Y31496D02*
Y31896D01*
X-34899Y31763D01*
X-34765Y31896D01*
Y31496D01*
X-34632D02*
Y31896D01*
X-34432D01*
X-34366Y31829D01*
Y31696D01*
X-34432Y31629D01*
X-34632D01*
X-34232Y31896D02*
Y31496D01*
X-33966D01*
X-33566Y31896D02*
X-33832D01*
Y31496D01*
X-33566D01*
X-33832Y31696D02*
X-33699D01*
X-33166Y31829D02*
X-33233Y31896D01*
X-33366D01*
X-33432Y31829D01*
Y31763D01*
X-33366Y31696D01*
X-33233D01*
X-33166Y31629D01*
Y31563D01*
X-33233Y31496D01*
X-33366D01*
X-33432Y31563D01*
X-32633Y31896D02*
X-32366D01*
X-32499D01*
Y31496D01*
X-32033Y31896D02*
X-32166D01*
X-32233Y31829D01*
Y31563D01*
X-32166Y31496D01*
X-32033D01*
X-31966Y31563D01*
Y31829D01*
X-32033Y31896D01*
X-31433D02*
Y31496D01*
X-31233D01*
X-31167Y31563D01*
Y31629D01*
X-31233Y31696D01*
X-31433D01*
X-31233D01*
X-31167Y31763D01*
Y31829D01*
X-31233Y31896D01*
X-31433D01*
X-30767D02*
X-31033D01*
Y31496D01*
X-30767D01*
X-31033Y31696D02*
X-30900D01*
X-30234Y31496D02*
Y31896D01*
X-30034D01*
X-29967Y31829D01*
Y31696D01*
X-30034Y31629D01*
X-30234D01*
X-29834Y31496D02*
Y31896D01*
X-29634D01*
X-29567Y31829D01*
Y31696D01*
X-29634Y31629D01*
X-29834D01*
X-29700D02*
X-29567Y31496D01*
X-29234Y31896D02*
X-29367D01*
X-29434Y31829D01*
Y31563D01*
X-29367Y31496D01*
X-29234D01*
X-29167Y31563D01*
Y31829D01*
X-29234Y31896D01*
X-29034D02*
Y31629D01*
X-28901Y31496D01*
X-28767Y31629D01*
Y31896D01*
X-28634D02*
X-28501D01*
X-28567D01*
Y31496D01*
X-28634D01*
X-28501D01*
X-28301Y31896D02*
Y31496D01*
X-28101D01*
X-28034Y31563D01*
Y31829D01*
X-28101Y31896D01*
X-28301D01*
X-27634D02*
X-27901D01*
Y31496D01*
X-27634D01*
X-27901Y31696D02*
X-27768D01*
X-27501Y31896D02*
Y31496D01*
X-27301D01*
X-27234Y31563D01*
Y31829D01*
X-27301Y31896D01*
X-27501D01*
X-39764Y25924D02*
X-39697Y25990D01*
X-39564D01*
X-39497Y25924D01*
Y25857D01*
X-39564Y25790D01*
X-39497Y25724D01*
Y25657D01*
X-39564Y25591D01*
X-39697D01*
X-39764Y25657D01*
Y25724D01*
X-39697Y25790D01*
X-39764Y25857D01*
Y25924D01*
X-39697Y25790D02*
X-39564D01*
X-39364Y25591D02*
Y25657D01*
X-39297D01*
Y25591D01*
X-39364D01*
X-38364Y25924D02*
X-38431Y25990D01*
X-38564D01*
X-38631Y25924D01*
Y25857D01*
X-38564Y25790D01*
X-38431D01*
X-38364Y25724D01*
Y25657D01*
X-38431Y25591D01*
X-38564D01*
X-38631Y25657D01*
X-38231Y25990D02*
X-38098D01*
X-38164D01*
Y25591D01*
X-38231D01*
X-38098D01*
X-37898Y25990D02*
Y25591D01*
X-37631D01*
X-37498Y25990D02*
Y25591D01*
Y25724D01*
X-37231Y25990D01*
X-37431Y25790D01*
X-37231Y25591D01*
X-36831Y25924D02*
X-36898Y25990D01*
X-37031D01*
X-37098Y25924D01*
Y25857D01*
X-37031Y25790D01*
X-36898D01*
X-36831Y25724D01*
Y25657D01*
X-36898Y25591D01*
X-37031D01*
X-37098Y25657D01*
X-36432Y25924D02*
X-36498Y25990D01*
X-36631D01*
X-36698Y25924D01*
Y25657D01*
X-36631Y25591D01*
X-36498D01*
X-36432Y25657D01*
X-36298Y25591D02*
Y25990D01*
X-36098D01*
X-36032Y25924D01*
Y25790D01*
X-36098Y25724D01*
X-36298D01*
X-36165D02*
X-36032Y25591D01*
X-35632Y25990D02*
X-35898D01*
Y25591D01*
X-35632D01*
X-35898Y25790D02*
X-35765D01*
X-35232Y25990D02*
X-35498D01*
Y25591D01*
X-35232D01*
X-35498Y25790D02*
X-35365D01*
X-35099Y25591D02*
Y25990D01*
X-34832Y25591D01*
Y25990D01*
X-34299Y25790D02*
X-34032D01*
X-33499Y25990D02*
Y25591D01*
X-33366Y25724D01*
X-33233Y25591D01*
Y25990D01*
X-33099D02*
Y25591D01*
Y25790D01*
X-32833D01*
Y25990D01*
Y25591D01*
X-32699Y25990D02*
X-32566D01*
X-32633D01*
Y25591D01*
X-32699D01*
X-32566D01*
X-32366Y25990D02*
X-32100D01*
X-32233D01*
Y25591D01*
X-31700Y25990D02*
X-31966D01*
Y25591D01*
X-31700D01*
X-31966Y25790D02*
X-31833D01*
X-30900Y25990D02*
X-31167D01*
Y25591D01*
X-30900D01*
X-31167Y25790D02*
X-31033D01*
X-30767Y25591D02*
Y25990D01*
X-30567D01*
X-30500Y25924D01*
Y25790D01*
X-30567Y25724D01*
X-30767D01*
X-30167Y25990D02*
X-30300D01*
X-30367Y25924D01*
Y25657D01*
X-30300Y25591D01*
X-30167D01*
X-30100Y25657D01*
Y25924D01*
X-30167Y25990D01*
X-29967D02*
X-29700Y25591D01*
Y25990D02*
X-29967Y25591D01*
X-29567Y25990D02*
Y25924D01*
X-29434Y25790D01*
X-29300Y25924D01*
Y25990D01*
X-29434Y25790D02*
Y25591D01*
X-28767Y25990D02*
X-28634D01*
X-28701D01*
Y25591D01*
X-28767D01*
X-28634D01*
X-28434D02*
Y25990D01*
X-28168Y25591D01*
Y25990D01*
X-28034D02*
Y25591D01*
Y25724D01*
X-27768Y25990D01*
X-27968Y25790D01*
X-27768Y25591D01*
X-27568Y25524D02*
X-27501Y25591D01*
Y25657D01*
X-27568D01*
Y25591D01*
X-27501D01*
X-27568Y25524D01*
X-27634Y25457D01*
X-26835Y25990D02*
Y25591D01*
X-26635D01*
X-26568Y25657D01*
Y25724D01*
X-26635Y25790D01*
X-26835D01*
X-26635D01*
X-26568Y25857D01*
Y25924D01*
X-26635Y25990D01*
X-26835D01*
X-26235D02*
X-26368D01*
X-26435Y25924D01*
Y25657D01*
X-26368Y25591D01*
X-26235D01*
X-26168Y25657D01*
Y25924D01*
X-26235Y25990D01*
X-26035D02*
X-25768D01*
X-25902D01*
Y25591D01*
X-25635Y25990D02*
Y25591D01*
Y25790D01*
X-25368D01*
Y25990D01*
Y25591D01*
X-24569Y25924D02*
X-24635Y25990D01*
X-24769D01*
X-24835Y25924D01*
Y25857D01*
X-24769Y25790D01*
X-24635D01*
X-24569Y25724D01*
Y25657D01*
X-24635Y25591D01*
X-24769D01*
X-24835Y25657D01*
X-24435Y25990D02*
X-24302D01*
X-24369D01*
Y25591D01*
X-24435D01*
X-24302D01*
X-24102Y25990D02*
Y25591D01*
X-23902D01*
X-23836Y25657D01*
Y25924D01*
X-23902Y25990D01*
X-24102D01*
X-23436D02*
X-23702D01*
Y25591D01*
X-23436D01*
X-23702Y25790D02*
X-23569D01*
X-23036Y25924D02*
X-23102Y25990D01*
X-23236D01*
X-23302Y25924D01*
Y25857D01*
X-23236Y25790D01*
X-23102D01*
X-23036Y25724D01*
Y25657D01*
X-23102Y25591D01*
X-23236D01*
X-23302Y25657D01*
X-22903Y25591D02*
Y25657D01*
X-22836D01*
Y25591D01*
X-22903D01*
X-22169D02*
Y25990D01*
X-21903Y25591D01*
Y25990D01*
X-21570D02*
X-21703D01*
X-21770Y25924D01*
Y25657D01*
X-21703Y25591D01*
X-21570D01*
X-21503Y25657D01*
Y25924D01*
X-21570Y25990D01*
X-20703Y25924D02*
X-20770Y25990D01*
X-20903D01*
X-20970Y25924D01*
Y25857D01*
X-20903Y25790D01*
X-20770D01*
X-20703Y25724D01*
Y25657D01*
X-20770Y25591D01*
X-20903D01*
X-20970Y25657D01*
X-20570Y25990D02*
X-20437D01*
X-20503D01*
Y25591D01*
X-20570D01*
X-20437D01*
X-20237Y25990D02*
Y25591D01*
X-19970D01*
X-19837Y25990D02*
Y25591D01*
Y25724D01*
X-19570Y25990D01*
X-19770Y25790D01*
X-19570Y25591D01*
X-18837Y25990D02*
X-18970D01*
X-19037Y25924D01*
Y25657D01*
X-18970Y25591D01*
X-18837D01*
X-18771Y25657D01*
Y25924D01*
X-18837Y25990D01*
X-18637Y25591D02*
Y25990D01*
X-18371Y25591D01*
Y25990D01*
X-17838Y25591D02*
Y25990D01*
X-17638D01*
X-17571Y25924D01*
Y25790D01*
X-17638Y25724D01*
X-17838D01*
X-17438Y25591D02*
Y25857D01*
X-17304Y25990D01*
X-17171Y25857D01*
Y25591D01*
Y25790D01*
X-17438D01*
X-17038Y25990D02*
Y25591D01*
X-16838D01*
X-16771Y25657D01*
Y25924D01*
X-16838Y25990D01*
X-17038D01*
X-16371Y25924D02*
X-16438Y25990D01*
X-16571D01*
X-16638Y25924D01*
Y25857D01*
X-16571Y25790D01*
X-16438D01*
X-16371Y25724D01*
Y25657D01*
X-16438Y25591D01*
X-16571D01*
X-16638Y25657D01*
X-39497Y33864D02*
X-39764D01*
Y33665D01*
X-39630Y33731D01*
X-39564D01*
X-39497Y33665D01*
Y33531D01*
X-39564Y33465D01*
X-39697D01*
X-39764Y33531D01*
X-39364Y33465D02*
Y33531D01*
X-39297D01*
Y33465D01*
X-39364D01*
X-38364Y33798D02*
X-38431Y33864D01*
X-38564D01*
X-38631Y33798D01*
Y33731D01*
X-38564Y33665D01*
X-38431D01*
X-38364Y33598D01*
Y33531D01*
X-38431Y33465D01*
X-38564D01*
X-38631Y33531D01*
X-38031Y33864D02*
X-38164D01*
X-38231Y33798D01*
Y33531D01*
X-38164Y33465D01*
X-38031D01*
X-37964Y33531D01*
Y33798D01*
X-38031Y33864D01*
X-37831D02*
Y33465D01*
X-37564D01*
X-37431Y33864D02*
Y33465D01*
X-37231D01*
X-37165Y33531D01*
Y33798D01*
X-37231Y33864D01*
X-37431D01*
X-36765D02*
X-37031D01*
Y33465D01*
X-36765D01*
X-37031Y33665D02*
X-36898D01*
X-36631Y33465D02*
Y33864D01*
X-36432D01*
X-36365Y33798D01*
Y33665D01*
X-36432Y33598D01*
X-36631D01*
X-36498D02*
X-36365Y33465D01*
X-36232D02*
Y33864D01*
X-36098Y33731D01*
X-35965Y33864D01*
Y33465D01*
X-35832D02*
Y33731D01*
X-35698Y33864D01*
X-35565Y33731D01*
Y33465D01*
Y33665D01*
X-35832D01*
X-35165Y33798D02*
X-35232Y33864D01*
X-35365D01*
X-35432Y33798D01*
Y33731D01*
X-35365Y33665D01*
X-35232D01*
X-35165Y33598D01*
Y33531D01*
X-35232Y33465D01*
X-35365D01*
X-35432Y33531D01*
X-35032Y33864D02*
Y33465D01*
Y33598D01*
X-34765Y33864D01*
X-34965Y33665D01*
X-34765Y33465D01*
X-34232Y33665D02*
X-33966D01*
X-33432Y33864D02*
Y33465D01*
X-33233D01*
X-33166Y33531D01*
Y33598D01*
X-33233Y33665D01*
X-33432D01*
X-33233D01*
X-33166Y33731D01*
Y33798D01*
X-33233Y33864D01*
X-33432D01*
X-32833D02*
X-32966D01*
X-33033Y33798D01*
Y33531D01*
X-32966Y33465D01*
X-32833D01*
X-32766Y33531D01*
Y33798D01*
X-32833Y33864D01*
X-32633D02*
X-32366D01*
X-32499D01*
Y33465D01*
X-32233Y33864D02*
Y33465D01*
Y33665D01*
X-31966D01*
Y33864D01*
Y33465D01*
X-31167Y33798D02*
X-31233Y33864D01*
X-31366D01*
X-31433Y33798D01*
Y33731D01*
X-31366Y33665D01*
X-31233D01*
X-31167Y33598D01*
Y33531D01*
X-31233Y33465D01*
X-31366D01*
X-31433Y33531D01*
X-31033Y33864D02*
X-30900D01*
X-30967D01*
Y33465D01*
X-31033D01*
X-30900D01*
X-30700Y33864D02*
Y33465D01*
X-30500D01*
X-30433Y33531D01*
Y33798D01*
X-30500Y33864D01*
X-30700D01*
X-30034D02*
X-30300D01*
Y33465D01*
X-30034D01*
X-30300Y33665D02*
X-30167D01*
X-29634Y33798D02*
X-29700Y33864D01*
X-29834D01*
X-29900Y33798D01*
Y33731D01*
X-29834Y33665D01*
X-29700D01*
X-29634Y33598D01*
Y33531D01*
X-29700Y33465D01*
X-29834D01*
X-29900Y33531D01*
X-28834Y33798D02*
X-28901Y33864D01*
X-29034D01*
X-29101Y33798D01*
Y33531D01*
X-29034Y33465D01*
X-28901D01*
X-28834Y33531D01*
Y33665D01*
X-28967D01*
X-28701Y33465D02*
Y33864D01*
X-28501D01*
X-28434Y33798D01*
Y33665D01*
X-28501Y33598D01*
X-28701D01*
X-28567D02*
X-28434Y33465D01*
X-28034Y33864D02*
X-28301D01*
Y33465D01*
X-28034D01*
X-28301Y33665D02*
X-28168D01*
X-27634Y33864D02*
X-27901D01*
Y33465D01*
X-27634D01*
X-27901Y33665D02*
X-27768D01*
X-27501Y33465D02*
Y33864D01*
X-27234Y33465D01*
Y33864D01*
X-39564Y35433D02*
Y35833D01*
X-39764Y35633D01*
X-39497D01*
X-39364Y35433D02*
Y35500D01*
X-39297D01*
Y35433D01*
X-39364D01*
X-38631D02*
Y35833D01*
X-38431D01*
X-38364Y35766D01*
Y35633D01*
X-38431Y35566D01*
X-38631D01*
X-38231Y35833D02*
Y35433D01*
X-37964D01*
X-37831D02*
Y35700D01*
X-37698Y35833D01*
X-37564Y35700D01*
Y35433D01*
Y35633D01*
X-37831D01*
X-37431Y35833D02*
X-37165D01*
X-37298D01*
Y35433D01*
X-37031Y35833D02*
X-36898D01*
X-36965D01*
Y35433D01*
X-37031D01*
X-36898D01*
X-36698D02*
Y35833D01*
X-36432Y35433D01*
Y35833D01*
X-36032Y35766D02*
X-36098Y35833D01*
X-36232D01*
X-36298Y35766D01*
Y35500D01*
X-36232Y35433D01*
X-36098D01*
X-36032Y35500D01*
Y35633D01*
X-36165D01*
X-35232Y35833D02*
X-35498D01*
Y35633D01*
X-35365D01*
X-35498D01*
Y35433D01*
X-35099Y35833D02*
X-34965D01*
X-35032D01*
Y35433D01*
X-35099D01*
X-34965D01*
X-34765D02*
Y35833D01*
X-34499Y35433D01*
Y35833D01*
X-34366D02*
X-34232D01*
X-34299D01*
Y35433D01*
X-34366D01*
X-34232D01*
X-33766Y35766D02*
X-33832Y35833D01*
X-33966D01*
X-34032Y35766D01*
Y35700D01*
X-33966Y35633D01*
X-33832D01*
X-33766Y35566D01*
Y35500D01*
X-33832Y35433D01*
X-33966D01*
X-34032Y35500D01*
X-33632Y35833D02*
Y35433D01*
Y35633D01*
X-33366D01*
Y35833D01*
Y35433D01*
X-32833Y35633D02*
X-32566D01*
X-32033Y35833D02*
Y35433D01*
X-31833D01*
X-31766Y35500D01*
Y35566D01*
X-31833Y35633D01*
X-32033D01*
X-31833D01*
X-31766Y35700D01*
Y35766D01*
X-31833Y35833D01*
X-32033D01*
X-31433D02*
X-31566D01*
X-31633Y35766D01*
Y35500D01*
X-31566Y35433D01*
X-31433D01*
X-31366Y35500D01*
Y35766D01*
X-31433Y35833D01*
X-31233D02*
X-30967D01*
X-31100D01*
Y35433D01*
X-30833Y35833D02*
Y35433D01*
Y35633D01*
X-30567D01*
Y35833D01*
Y35433D01*
X-29767Y35766D02*
X-29834Y35833D01*
X-29967D01*
X-30034Y35766D01*
Y35700D01*
X-29967Y35633D01*
X-29834D01*
X-29767Y35566D01*
Y35500D01*
X-29834Y35433D01*
X-29967D01*
X-30034Y35500D01*
X-29634Y35833D02*
X-29500D01*
X-29567D01*
Y35433D01*
X-29634D01*
X-29500D01*
X-29300Y35833D02*
Y35433D01*
X-29101D01*
X-29034Y35500D01*
Y35766D01*
X-29101Y35833D01*
X-29300D01*
X-28634D02*
X-28901D01*
Y35433D01*
X-28634D01*
X-28901Y35633D02*
X-28767D01*
X-28234Y35766D02*
X-28301Y35833D01*
X-28434D01*
X-28501Y35766D01*
Y35700D01*
X-28434Y35633D01*
X-28301D01*
X-28234Y35566D01*
Y35500D01*
X-28301Y35433D01*
X-28434D01*
X-28501Y35500D01*
X-27701Y35833D02*
Y35433D01*
X-27434D01*
X-27035Y35833D02*
X-27301D01*
Y35433D01*
X-27035D01*
X-27301Y35633D02*
X-27168D01*
X-26901Y35433D02*
Y35700D01*
X-26768Y35833D01*
X-26635Y35700D01*
Y35433D01*
Y35633D01*
X-26901D01*
X-26501Y35833D02*
Y35433D01*
X-26301D01*
X-26235Y35500D01*
Y35766D01*
X-26301Y35833D01*
X-26501D01*
X-25435D02*
X-25702D01*
Y35633D01*
X-25568D01*
X-25702D01*
Y35433D01*
X-25302D02*
Y35833D01*
X-25102D01*
X-25035Y35766D01*
Y35633D01*
X-25102Y35566D01*
X-25302D01*
X-25168D02*
X-25035Y35433D01*
X-24635Y35833D02*
X-24902D01*
Y35433D01*
X-24635D01*
X-24902Y35633D02*
X-24769D01*
X-24235Y35833D02*
X-24502D01*
Y35433D01*
X-24235D01*
X-24502Y35633D02*
X-24369D01*
X-23702Y35833D02*
Y35433D01*
Y35633D01*
X-23436D01*
Y35833D01*
Y35433D01*
X-23302D02*
Y35700D01*
X-23169Y35833D01*
X-23036Y35700D01*
Y35433D01*
Y35633D01*
X-23302D01*
X-22636Y35766D02*
X-22703Y35833D01*
X-22836D01*
X-22903Y35766D01*
Y35700D01*
X-22836Y35633D01*
X-22703D01*
X-22636Y35566D01*
Y35500D01*
X-22703Y35433D01*
X-22836D01*
X-22903Y35500D01*
X-22503Y35833D02*
Y35433D01*
X-22236D01*
X-39764Y37735D02*
X-39697Y37801D01*
X-39564D01*
X-39497Y37735D01*
Y37668D01*
X-39564Y37602D01*
X-39630D01*
X-39564D01*
X-39497Y37535D01*
Y37468D01*
X-39564Y37402D01*
X-39697D01*
X-39764Y37468D01*
X-39364Y37402D02*
Y37468D01*
X-39297D01*
Y37402D01*
X-39364D01*
X-38631Y37801D02*
Y37402D01*
X-38364D01*
X-38231D02*
Y37668D01*
X-38098Y37801D01*
X-37964Y37668D01*
Y37402D01*
Y37602D01*
X-38231D01*
X-37831Y37402D02*
Y37801D01*
X-37698Y37668D01*
X-37564Y37801D01*
Y37402D01*
X-37431Y37801D02*
X-37298D01*
X-37365D01*
Y37402D01*
X-37431D01*
X-37298D01*
X-37098D02*
Y37801D01*
X-36831Y37402D01*
Y37801D01*
X-36698Y37402D02*
Y37668D01*
X-36565Y37801D01*
X-36432Y37668D01*
Y37402D01*
Y37602D01*
X-36698D01*
X-36298Y37801D02*
X-36032D01*
X-36165D01*
Y37402D01*
X-35632Y37801D02*
X-35898D01*
Y37402D01*
X-35632D01*
X-35898Y37602D02*
X-35765D01*
X-35099Y37402D02*
Y37668D01*
X-34965Y37801D01*
X-34832Y37668D01*
Y37402D01*
Y37602D01*
X-35099D01*
X-34699Y37402D02*
Y37801D01*
X-34432Y37402D01*
Y37801D01*
X-34299D02*
Y37402D01*
X-34099D01*
X-34032Y37468D01*
Y37735D01*
X-34099Y37801D01*
X-34299D01*
X-33499Y37402D02*
Y37801D01*
X-33299D01*
X-33233Y37735D01*
Y37602D01*
X-33299Y37535D01*
X-33499D01*
X-33099Y37402D02*
Y37801D01*
X-32899D01*
X-32833Y37735D01*
Y37602D01*
X-32899Y37535D01*
X-33099D01*
X-32966D02*
X-32833Y37402D01*
X-32433Y37801D02*
X-32699D01*
Y37402D01*
X-32433D01*
X-32699Y37602D02*
X-32566D01*
X-32300Y37402D02*
Y37801D01*
X-32100D01*
X-32033Y37735D01*
Y37602D01*
X-32100Y37535D01*
X-32300D01*
X-31900Y37402D02*
Y37801D01*
X-31700D01*
X-31633Y37735D01*
Y37602D01*
X-31700Y37535D01*
X-31900D01*
X-31766D02*
X-31633Y37402D01*
X-31233Y37801D02*
X-31500D01*
Y37402D01*
X-31233D01*
X-31500Y37602D02*
X-31366D01*
X-30833Y37735D02*
X-30900Y37801D01*
X-31033D01*
X-31100Y37735D01*
Y37468D01*
X-31033Y37402D01*
X-30900D01*
X-30833Y37468D01*
Y37602D01*
X-30967D01*
X-30300Y37801D02*
X-30034D01*
X-30167D01*
Y37402D01*
X-29700Y37801D02*
X-29834D01*
X-29900Y37735D01*
Y37468D01*
X-29834Y37402D01*
X-29700D01*
X-29634Y37468D01*
Y37735D01*
X-29700Y37801D01*
X-29101D02*
Y37402D01*
X-28901D01*
X-28834Y37468D01*
Y37535D01*
X-28901Y37602D01*
X-29101D01*
X-28901D01*
X-28834Y37668D01*
Y37735D01*
X-28901Y37801D01*
X-29101D01*
X-28434D02*
X-28701D01*
Y37402D01*
X-28434D01*
X-28701Y37602D02*
X-28567D01*
X-27634Y37801D02*
X-27901D01*
Y37602D01*
X-27768D01*
X-27901D01*
Y37402D01*
X-27501D02*
Y37801D01*
X-27301D01*
X-27234Y37735D01*
Y37602D01*
X-27301Y37535D01*
X-27501D01*
X-27368D02*
X-27234Y37402D01*
X-26901D02*
Y37801D01*
X-27101Y37602D01*
X-26835D01*
X-39497Y39370D02*
X-39764D01*
X-39497Y39637D01*
Y39703D01*
X-39564Y39770D01*
X-39697D01*
X-39764Y39703D01*
X-39364Y39370D02*
Y39437D01*
X-39297D01*
Y39370D01*
X-39364D01*
X-38631Y39770D02*
X-38364D01*
X-38498D01*
Y39370D01*
X-38231Y39770D02*
Y39370D01*
Y39570D01*
X-37964D01*
Y39770D01*
Y39370D01*
X-37564Y39770D02*
X-37831D01*
Y39370D01*
X-37564D01*
X-37831Y39570D02*
X-37698D01*
X-37031Y39370D02*
Y39770D01*
X-36831D01*
X-36765Y39703D01*
Y39570D01*
X-36831Y39503D01*
X-37031D01*
X-36365Y39703D02*
X-36432Y39770D01*
X-36565D01*
X-36631Y39703D01*
Y39437D01*
X-36565Y39370D01*
X-36432D01*
X-36365Y39437D01*
X-36232Y39770D02*
Y39370D01*
X-36032D01*
X-35965Y39437D01*
Y39503D01*
X-36032Y39570D01*
X-36232D01*
X-36032D01*
X-35965Y39637D01*
Y39703D01*
X-36032Y39770D01*
X-36232D01*
X-35432Y39370D02*
Y39770D01*
X-35299Y39637D01*
X-35165Y39770D01*
Y39370D01*
X-35032Y39770D02*
Y39437D01*
X-34965Y39370D01*
X-34832D01*
X-34765Y39437D01*
Y39770D01*
X-34366Y39703D02*
X-34432Y39770D01*
X-34565D01*
X-34632Y39703D01*
Y39637D01*
X-34565Y39570D01*
X-34432D01*
X-34366Y39503D01*
Y39437D01*
X-34432Y39370D01*
X-34565D01*
X-34632Y39437D01*
X-34232Y39770D02*
X-33966D01*
X-34099D01*
Y39370D01*
X-33432Y39770D02*
Y39370D01*
X-33233D01*
X-33166Y39437D01*
Y39503D01*
X-33233Y39570D01*
X-33432D01*
X-33233D01*
X-33166Y39637D01*
Y39703D01*
X-33233Y39770D01*
X-33432D01*
X-32766D02*
X-33033D01*
Y39370D01*
X-32766D01*
X-33033Y39570D02*
X-32899D01*
X-32233Y39770D02*
Y39370D01*
X-31966D01*
X-31566Y39770D02*
X-31833D01*
Y39370D01*
X-31566D01*
X-31833Y39570D02*
X-31700D01*
X-31433Y39370D02*
Y39637D01*
X-31300Y39770D01*
X-31167Y39637D01*
Y39370D01*
Y39570D01*
X-31433D01*
X-31033Y39770D02*
Y39370D01*
X-30833D01*
X-30767Y39437D01*
Y39703D01*
X-30833Y39770D01*
X-31033D01*
X-29967D02*
X-30234D01*
Y39570D01*
X-30100D01*
X-30234D01*
Y39370D01*
X-29834D02*
Y39770D01*
X-29634D01*
X-29567Y39703D01*
Y39570D01*
X-29634Y39503D01*
X-29834D01*
X-29700D02*
X-29567Y39370D01*
X-29167Y39770D02*
X-29434D01*
Y39370D01*
X-29167D01*
X-29434Y39570D02*
X-29300D01*
X-28767Y39770D02*
X-29034D01*
Y39370D01*
X-28767D01*
X-29034Y39570D02*
X-28901D01*
X-28234Y39370D02*
Y39637D01*
X-28101Y39770D01*
X-27968Y39637D01*
Y39370D01*
Y39570D01*
X-28234D01*
X-27568Y39703D02*
X-27634Y39770D01*
X-27768D01*
X-27834Y39703D01*
Y39637D01*
X-27768Y39570D01*
X-27634D01*
X-27568Y39503D01*
Y39437D01*
X-27634Y39370D01*
X-27768D01*
X-27834Y39437D01*
X-27168Y39703D02*
X-27234Y39770D01*
X-27368D01*
X-27434Y39703D01*
Y39637D01*
X-27368Y39570D01*
X-27234D01*
X-27168Y39503D01*
Y39437D01*
X-27234Y39370D01*
X-27368D01*
X-27434Y39437D01*
X-26768Y39770D02*
X-27035D01*
Y39370D01*
X-26768D01*
X-27035Y39570D02*
X-26901D01*
X-26635Y39370D02*
Y39770D01*
X-26501Y39637D01*
X-26368Y39770D01*
Y39370D01*
X-26235Y39770D02*
Y39370D01*
X-26035D01*
X-25968Y39437D01*
Y39503D01*
X-26035Y39570D01*
X-26235D01*
X-26035D01*
X-25968Y39637D01*
Y39703D01*
X-26035Y39770D01*
X-26235D01*
X-25835D02*
Y39370D01*
X-25568D01*
X-25435Y39770D02*
Y39703D01*
X-25302Y39570D01*
X-25168Y39703D01*
Y39770D01*
X-25302Y39570D02*
Y39370D01*
X-24635D02*
Y39770D01*
X-24435D01*
X-24369Y39703D01*
Y39570D01*
X-24435Y39503D01*
X-24635D01*
X-24235Y39370D02*
Y39770D01*
X-24036D01*
X-23969Y39703D01*
Y39570D01*
X-24036Y39503D01*
X-24235D01*
X-24102D02*
X-23969Y39370D01*
X-23636Y39770D02*
X-23769D01*
X-23836Y39703D01*
Y39437D01*
X-23769Y39370D01*
X-23636D01*
X-23569Y39437D01*
Y39703D01*
X-23636Y39770D01*
X-23169Y39703D02*
X-23236Y39770D01*
X-23369D01*
X-23436Y39703D01*
Y39437D01*
X-23369Y39370D01*
X-23236D01*
X-23169Y39437D01*
X-22769Y39770D02*
X-23036D01*
Y39370D01*
X-22769D01*
X-23036Y39570D02*
X-22903D01*
X-22369Y39703D02*
X-22436Y39770D01*
X-22569D01*
X-22636Y39703D01*
Y39637D01*
X-22569Y39570D01*
X-22436D01*
X-22369Y39503D01*
Y39437D01*
X-22436Y39370D01*
X-22569D01*
X-22636Y39437D01*
X-21970Y39703D02*
X-22036Y39770D01*
X-22169D01*
X-22236Y39703D01*
Y39637D01*
X-22169Y39570D01*
X-22036D01*
X-21970Y39503D01*
Y39437D01*
X-22036Y39370D01*
X-22169D01*
X-22236Y39437D01*
X-21170Y39703D02*
X-21236Y39770D01*
X-21370D01*
X-21436Y39703D01*
Y39437D01*
X-21370Y39370D01*
X-21236D01*
X-21170Y39437D01*
X-20837Y39770D02*
X-20970D01*
X-21036Y39703D01*
Y39437D01*
X-20970Y39370D01*
X-20837D01*
X-20770Y39437D01*
Y39703D01*
X-20837Y39770D01*
X-20637Y39370D02*
Y39770D01*
X-20503Y39637D01*
X-20370Y39770D01*
Y39370D01*
X-20237D02*
Y39770D01*
X-20037D01*
X-19970Y39703D01*
Y39570D01*
X-20037Y39503D01*
X-20237D01*
X-19837Y39370D02*
Y39637D01*
X-19704Y39770D01*
X-19570Y39637D01*
Y39370D01*
Y39570D01*
X-19837D01*
X-19437Y39770D02*
X-19170D01*
X-19304D01*
Y39370D01*
X-19037Y39770D02*
X-18904D01*
X-18970D01*
Y39370D01*
X-19037D01*
X-18904D01*
X-18704Y39770D02*
Y39370D01*
X-18504D01*
X-18437Y39437D01*
Y39503D01*
X-18504Y39570D01*
X-18704D01*
X-18504D01*
X-18437Y39637D01*
Y39703D01*
X-18504Y39770D01*
X-18704D01*
X-18304D02*
Y39370D01*
X-18037D01*
X-17638Y39770D02*
X-17904D01*
Y39370D01*
X-17638D01*
X-17904Y39570D02*
X-17771D01*
X-17504Y39370D02*
Y39437D01*
X-17438D01*
Y39370D01*
X-17504D01*
X-16771D02*
Y39770D01*
X-16638Y39637D01*
X-16505Y39770D01*
Y39370D01*
X-16371Y39770D02*
Y39437D01*
X-16305Y39370D01*
X-16171D01*
X-16105Y39437D01*
Y39770D01*
X-15705Y39703D02*
X-15772Y39770D01*
X-15905D01*
X-15971Y39703D01*
Y39637D01*
X-15905Y39570D01*
X-15772D01*
X-15705Y39503D01*
Y39437D01*
X-15772Y39370D01*
X-15905D01*
X-15971Y39437D01*
X-15572Y39770D02*
X-15305D01*
X-15438D01*
Y39370D01*
X-14772Y39770D02*
Y39370D01*
Y39570D01*
X-14505D01*
Y39770D01*
Y39370D01*
X-14372D02*
Y39637D01*
X-14239Y39770D01*
X-14105Y39637D01*
Y39370D01*
Y39570D01*
X-14372D01*
X-13972Y39370D02*
Y39770D01*
X-13706Y39370D01*
Y39770D01*
X-13572D02*
Y39370D01*
X-13372D01*
X-13306Y39437D01*
Y39703D01*
X-13372Y39770D01*
X-13572D01*
X-13172D02*
Y39370D01*
X-12906D01*
X-12506Y39770D02*
X-12772D01*
Y39370D01*
X-12506D01*
X-12772Y39570D02*
X-12639D01*
X-11973Y39370D02*
Y39770D01*
X-11839Y39637D01*
X-11706Y39770D01*
Y39370D01*
X-11573Y39770D02*
X-11440D01*
X-11506D01*
Y39370D01*
X-11573D01*
X-11440D01*
X-11240D02*
Y39770D01*
X-10973Y39370D01*
Y39770D01*
X-10840D02*
X-10706D01*
X-10773D01*
Y39370D01*
X-10840D01*
X-10706D01*
X-10507D02*
Y39770D01*
X-10373Y39637D01*
X-10240Y39770D01*
Y39370D01*
X-10107Y39770D02*
Y39437D01*
X-10040Y39370D01*
X-9907D01*
X-9840Y39437D01*
Y39770D01*
X-9707Y39370D02*
Y39770D01*
X-9574Y39637D01*
X-9440Y39770D01*
Y39370D01*
X-8640Y39770D02*
X-8774Y39703D01*
X-8907Y39570D01*
Y39437D01*
X-8840Y39370D01*
X-8707D01*
X-8640Y39437D01*
Y39503D01*
X-8707Y39570D01*
X-8907D01*
X-7841Y39703D02*
X-7907Y39770D01*
X-8041D01*
X-8107Y39703D01*
Y39437D01*
X-8041Y39370D01*
X-7907D01*
X-7841Y39437D01*
X-7707Y39770D02*
Y39703D01*
X-7574Y39570D01*
X-7441Y39703D01*
Y39770D01*
X-7574Y39570D02*
Y39370D01*
X-7041Y39703D02*
X-7108Y39770D01*
X-7241D01*
X-7308Y39703D01*
Y39437D01*
X-7241Y39370D01*
X-7108D01*
X-7041Y39437D01*
X-6908Y39770D02*
Y39370D01*
X-6641D01*
X-6241Y39770D02*
X-6508D01*
Y39370D01*
X-6241D01*
X-6508Y39570D02*
X-6375D01*
X-5841Y39703D02*
X-5908Y39770D01*
X-6041D01*
X-6108Y39703D01*
Y39637D01*
X-6041Y39570D01*
X-5908D01*
X-5841Y39503D01*
Y39437D01*
X-5908Y39370D01*
X-6041D01*
X-6108Y39437D01*
X-5308Y39570D02*
X-5042D01*
X-4242Y39370D02*
X-4508D01*
X-4242Y39637D01*
Y39703D01*
X-4309Y39770D01*
X-4442D01*
X-4508Y39703D01*
X-3842Y39770D02*
X-3975Y39703D01*
X-4109Y39570D01*
Y39437D01*
X-4042Y39370D01*
X-3909D01*
X-3842Y39437D01*
Y39503D01*
X-3909Y39570D01*
X-4109D01*
X-3709Y39703D02*
X-3642Y39770D01*
X-3509D01*
X-3442Y39703D01*
Y39437D01*
X-3509Y39370D01*
X-3642D01*
X-3709Y39437D01*
Y39703D01*
X-3042D02*
X-3109Y39770D01*
X-3242D01*
X-3309Y39703D01*
Y39437D01*
X-3242Y39370D01*
X-3109D01*
X-3042Y39437D01*
X-2243Y39770D02*
X-2509D01*
Y39570D01*
X-2376D01*
X-2509D01*
Y39370D01*
X-1909Y39770D02*
X-2043D01*
X-2109Y39703D01*
Y39437D01*
X-2043Y39370D01*
X-1909D01*
X-1843Y39437D01*
Y39703D01*
X-1909Y39770D01*
X-1709Y39370D02*
Y39770D01*
X-1509D01*
X-1443Y39703D01*
Y39570D01*
X-1509Y39503D01*
X-1709D01*
X-1576D02*
X-1443Y39370D01*
X-910D02*
X-776D01*
X-843D01*
Y39770D01*
X-910Y39703D01*
X-576D02*
X-510Y39770D01*
X-376D01*
X-310Y39703D01*
Y39437D01*
X-376Y39370D01*
X-510D01*
X-576Y39437D01*
Y39703D01*
X490D02*
X423Y39770D01*
X290D01*
X223Y39703D01*
Y39637D01*
X290Y39570D01*
X423D01*
X490Y39503D01*
Y39437D01*
X423Y39370D01*
X290D01*
X223Y39437D01*
X890Y39770D02*
X623D01*
Y39370D01*
X890D01*
X623Y39570D02*
X756D01*
X1290Y39703D02*
X1223Y39770D01*
X1090D01*
X1023Y39703D01*
Y39437D01*
X1090Y39370D01*
X1223D01*
X1290Y39437D01*
X1623Y39770D02*
X1490D01*
X1423Y39703D01*
Y39437D01*
X1490Y39370D01*
X1623D01*
X1690Y39437D01*
Y39703D01*
X1623Y39770D01*
X1823Y39370D02*
Y39770D01*
X2089Y39370D01*
Y39770D01*
X2223D02*
Y39370D01*
X2423D01*
X2489Y39437D01*
Y39703D01*
X2423Y39770D01*
X2223D01*
X2889Y39703D02*
X2822Y39770D01*
X2689D01*
X2623Y39703D01*
Y39637D01*
X2689Y39570D01*
X2822D01*
X2889Y39503D01*
Y39437D01*
X2822Y39370D01*
X2689D01*
X2623Y39437D01*
X3022Y39370D02*
Y39437D01*
X3089D01*
Y39370D01*
X3022D01*
X-39764Y41339D02*
X-39630D01*
X-39697D01*
Y41738D01*
X-39764Y41672D01*
X-39431Y41339D02*
Y41405D01*
X-39364D01*
Y41339D01*
X-39431D01*
X-38431Y41738D02*
X-38697D01*
Y41539D01*
X-38564D01*
X-38697D01*
Y41339D01*
X-38298D02*
Y41605D01*
X-38164Y41738D01*
X-38031Y41605D01*
Y41339D01*
Y41539D01*
X-38298D01*
X-37898Y41738D02*
Y41339D01*
X-37698D01*
X-37631Y41405D01*
Y41472D01*
X-37698Y41539D01*
X-37898D01*
X-37698D01*
X-37631Y41605D01*
Y41672D01*
X-37698Y41738D01*
X-37898D01*
X-37498Y41339D02*
Y41738D01*
X-37298D01*
X-37231Y41672D01*
Y41539D01*
X-37298Y41472D01*
X-37498D01*
X-37365D02*
X-37231Y41339D01*
X-37098Y41738D02*
X-36965D01*
X-37031D01*
Y41339D01*
X-37098D01*
X-36965D01*
X-36498Y41672D02*
X-36565Y41738D01*
X-36698D01*
X-36765Y41672D01*
Y41405D01*
X-36698Y41339D01*
X-36565D01*
X-36498Y41405D01*
X-36365Y41339D02*
Y41605D01*
X-36232Y41738D01*
X-36098Y41605D01*
Y41339D01*
Y41539D01*
X-36365D01*
X-35965Y41738D02*
X-35698D01*
X-35832D01*
Y41339D01*
X-35299Y41738D02*
X-35565D01*
Y41339D01*
X-35299D01*
X-35565Y41539D02*
X-35432D01*
X-34765Y41339D02*
Y41738D01*
X-34565D01*
X-34499Y41672D01*
Y41539D01*
X-34565Y41472D01*
X-34765D01*
X-34099Y41672D02*
X-34166Y41738D01*
X-34299D01*
X-34366Y41672D01*
Y41405D01*
X-34299Y41339D01*
X-34166D01*
X-34099Y41405D01*
X-33966Y41738D02*
Y41339D01*
X-33766D01*
X-33699Y41405D01*
Y41472D01*
X-33766Y41539D01*
X-33966D01*
X-33766D01*
X-33699Y41605D01*
Y41672D01*
X-33766Y41738D01*
X-33966D01*
X-33166D02*
X-33033D01*
X-33099D01*
Y41339D01*
X-33166D01*
X-33033D01*
X-32833D02*
Y41738D01*
X-32566Y41339D01*
Y41738D01*
X-32033Y41339D02*
Y41605D01*
X-31900Y41738D01*
X-31766Y41605D01*
Y41339D01*
Y41539D01*
X-32033D01*
X-31366Y41672D02*
X-31433Y41738D01*
X-31566D01*
X-31633Y41672D01*
Y41405D01*
X-31566Y41339D01*
X-31433D01*
X-31366Y41405D01*
X-30967Y41672D02*
X-31033Y41738D01*
X-31167D01*
X-31233Y41672D01*
Y41405D01*
X-31167Y41339D01*
X-31033D01*
X-30967Y41405D01*
X-30633Y41738D02*
X-30767D01*
X-30833Y41672D01*
Y41405D01*
X-30767Y41339D01*
X-30633D01*
X-30567Y41405D01*
Y41672D01*
X-30633Y41738D01*
X-30433Y41339D02*
Y41738D01*
X-30234D01*
X-30167Y41672D01*
Y41539D01*
X-30234Y41472D01*
X-30433D01*
X-30300D02*
X-30167Y41339D01*
X-30034Y41738D02*
Y41339D01*
X-29834D01*
X-29767Y41405D01*
Y41672D01*
X-29834Y41738D01*
X-30034D01*
X-29634Y41339D02*
Y41605D01*
X-29500Y41738D01*
X-29367Y41605D01*
Y41339D01*
Y41539D01*
X-29634D01*
X-29234Y41339D02*
Y41738D01*
X-28967Y41339D01*
Y41738D01*
X-28567Y41672D02*
X-28634Y41738D01*
X-28767D01*
X-28834Y41672D01*
Y41405D01*
X-28767Y41339D01*
X-28634D01*
X-28567Y41405D01*
X-28168Y41738D02*
X-28434D01*
Y41339D01*
X-28168D01*
X-28434Y41539D02*
X-28301D01*
X-27634Y41738D02*
Y41339D01*
X-27501Y41472D01*
X-27368Y41339D01*
Y41738D01*
X-27234D02*
X-27101D01*
X-27168D01*
Y41339D01*
X-27234D01*
X-27101D01*
X-26901Y41738D02*
X-26635D01*
X-26768D01*
Y41339D01*
X-26501Y41738D02*
Y41339D01*
Y41539D01*
X-26235D01*
Y41738D01*
Y41339D01*
X-25702Y41738D02*
X-25568D01*
X-25635D01*
Y41339D01*
X-25702D01*
X-25568D01*
X-25368D02*
Y41738D01*
X-25168D01*
X-25102Y41672D01*
Y41539D01*
X-25168Y41472D01*
X-25368D01*
X-24702Y41672D02*
X-24769Y41738D01*
X-24902D01*
X-24969Y41672D01*
Y41405D01*
X-24902Y41339D01*
X-24769D01*
X-24702Y41405D01*
X-24569Y41539D02*
X-24302D01*
X-24169Y41339D02*
Y41605D01*
X-24036Y41738D01*
X-23902Y41605D01*
Y41339D01*
Y41539D01*
X-24169D01*
X-23769D02*
X-23502D01*
X-23102Y41738D02*
X-23236Y41672D01*
X-23369Y41539D01*
Y41405D01*
X-23302Y41339D01*
X-23169D01*
X-23102Y41405D01*
Y41472D01*
X-23169Y41539D01*
X-23369D01*
X-22969Y41672D02*
X-22903Y41738D01*
X-22769D01*
X-22703Y41672D01*
Y41405D01*
X-22769Y41339D01*
X-22903D01*
X-22969Y41405D01*
Y41672D01*
X-22569D02*
X-22503Y41738D01*
X-22369D01*
X-22303Y41672D01*
Y41405D01*
X-22369Y41339D01*
X-22503D01*
X-22569Y41405D01*
Y41672D01*
X-21503D02*
X-21570Y41738D01*
X-21703D01*
X-21770Y41672D01*
Y41405D01*
X-21703Y41339D01*
X-21570D01*
X-21503Y41405D01*
X-21370Y41738D02*
Y41339D01*
X-21103D01*
X-20970D02*
Y41605D01*
X-20837Y41738D01*
X-20703Y41605D01*
Y41339D01*
Y41539D01*
X-20970D01*
X-20303Y41672D02*
X-20370Y41738D01*
X-20503D01*
X-20570Y41672D01*
Y41605D01*
X-20503Y41539D01*
X-20370D01*
X-20303Y41472D01*
Y41405D01*
X-20370Y41339D01*
X-20503D01*
X-20570Y41405D01*
X-19904Y41672D02*
X-19970Y41738D01*
X-20103D01*
X-20170Y41672D01*
Y41605D01*
X-20103Y41539D01*
X-19970D01*
X-19904Y41472D01*
Y41405D01*
X-19970Y41339D01*
X-20103D01*
X-20170Y41405D01*
X-19104Y41339D02*
X-19370D01*
X-19104Y41605D01*
Y41672D01*
X-19170Y41738D01*
X-19304D01*
X-19370Y41672D01*
X-18437Y41339D02*
X-18571Y41472D01*
Y41605D01*
X-18437Y41738D01*
X-18237D02*
Y41339D01*
X-17971D01*
X-17838D02*
Y41605D01*
X-17704Y41738D01*
X-17571Y41605D01*
Y41339D01*
Y41539D01*
X-17838D01*
X-17438Y41738D02*
X-17171D01*
X-17304D01*
Y41339D01*
X-16771Y41738D02*
X-17038D01*
Y41339D01*
X-16771D01*
X-17038Y41539D02*
X-16904D01*
X-16371Y41672D02*
X-16438Y41738D01*
X-16571D01*
X-16638Y41672D01*
Y41605D01*
X-16571Y41539D01*
X-16438D01*
X-16371Y41472D01*
Y41405D01*
X-16438Y41339D01*
X-16571D01*
X-16638Y41405D01*
X-16238Y41738D02*
X-15971D01*
X-16105D01*
Y41339D01*
X-15438D02*
Y41738D01*
X-15238D01*
X-15172Y41672D01*
Y41539D01*
X-15238Y41472D01*
X-15438D01*
X-15305D02*
X-15172Y41339D01*
X-14772Y41738D02*
X-15038D01*
Y41339D01*
X-14772D01*
X-15038Y41539D02*
X-14905D01*
X-14639Y41738D02*
Y41472D01*
X-14505Y41339D01*
X-14372Y41472D01*
Y41738D01*
X-14239D02*
X-14105D01*
X-14172D01*
Y41339D01*
X-14239D01*
X-14105D01*
X-13639Y41672D02*
X-13706Y41738D01*
X-13839D01*
X-13905Y41672D01*
Y41605D01*
X-13839Y41539D01*
X-13706D01*
X-13639Y41472D01*
Y41405D01*
X-13706Y41339D01*
X-13839D01*
X-13905Y41405D01*
X-13506Y41738D02*
X-13372D01*
X-13439D01*
Y41339D01*
X-13506D01*
X-13372D01*
X-12972Y41738D02*
X-13106D01*
X-13172Y41672D01*
Y41405D01*
X-13106Y41339D01*
X-12972D01*
X-12906Y41405D01*
Y41672D01*
X-12972Y41738D01*
X-12772Y41339D02*
Y41738D01*
X-12506Y41339D01*
Y41738D01*
X-12373Y41339D02*
X-12239Y41472D01*
Y41605D01*
X-12373Y41738D01*
X-40748Y43307D02*
Y43707D01*
X-40481Y43307D01*
Y43707D01*
X-40148D02*
X-40282D01*
X-40348Y43640D01*
Y43374D01*
X-40282Y43307D01*
X-40148D01*
X-40082Y43374D01*
Y43640D01*
X-40148Y43707D01*
X-39948D02*
X-39682D01*
X-39815D01*
Y43307D01*
X-39282Y43707D02*
X-39548D01*
Y43307D01*
X-39282D01*
X-39548Y43507D02*
X-39415D01*
X-38882Y43640D02*
X-38949Y43707D01*
X-39082D01*
X-39149Y43640D01*
Y43574D01*
X-39082Y43507D01*
X-38949D01*
X-38882Y43440D01*
Y43374D01*
X-38949Y43307D01*
X-39082D01*
X-39149Y43374D01*
X-38216Y43307D02*
X-38349Y43440D01*
Y43574D01*
X-38216Y43707D01*
X-38016D02*
Y43374D01*
X-37949Y43307D01*
X-37816D01*
X-37749Y43374D01*
Y43707D01*
X-37616Y43307D02*
Y43707D01*
X-37349Y43307D01*
Y43707D01*
X-37216D02*
Y43307D01*
X-36949D01*
X-36549Y43707D02*
X-36816D01*
Y43307D01*
X-36549D01*
X-36816Y43507D02*
X-36683D01*
X-36150Y43640D02*
X-36216Y43707D01*
X-36349D01*
X-36416Y43640D01*
Y43574D01*
X-36349Y43507D01*
X-36216D01*
X-36150Y43440D01*
Y43374D01*
X-36216Y43307D01*
X-36349D01*
X-36416Y43374D01*
X-35750Y43640D02*
X-35816Y43707D01*
X-35950D01*
X-36016Y43640D01*
Y43574D01*
X-35950Y43507D01*
X-35816D01*
X-35750Y43440D01*
Y43374D01*
X-35816Y43307D01*
X-35950D01*
X-36016Y43374D01*
X-34950Y43640D02*
X-35017Y43707D01*
X-35150D01*
X-35216Y43640D01*
Y43574D01*
X-35150Y43507D01*
X-35017D01*
X-34950Y43440D01*
Y43374D01*
X-35017Y43307D01*
X-35150D01*
X-35216Y43374D01*
X-34817Y43307D02*
Y43707D01*
X-34617D01*
X-34550Y43640D01*
Y43507D01*
X-34617Y43440D01*
X-34817D01*
X-34150Y43707D02*
X-34417D01*
Y43307D01*
X-34150D01*
X-34417Y43507D02*
X-34283D01*
X-33750Y43640D02*
X-33817Y43707D01*
X-33950D01*
X-34017Y43640D01*
Y43374D01*
X-33950Y43307D01*
X-33817D01*
X-33750Y43374D01*
X-33617Y43707D02*
X-33484D01*
X-33550D01*
Y43307D01*
X-33617D01*
X-33484D01*
X-33017Y43707D02*
X-33284D01*
Y43507D01*
X-33150D01*
X-33284D01*
Y43307D01*
X-32884Y43707D02*
X-32751D01*
X-32817D01*
Y43307D01*
X-32884D01*
X-32751D01*
X-32284Y43707D02*
X-32551D01*
Y43307D01*
X-32284D01*
X-32551Y43507D02*
X-32417D01*
X-32151Y43707D02*
Y43307D01*
X-31951D01*
X-31884Y43374D01*
Y43640D01*
X-31951Y43707D01*
X-32151D01*
X-31151D02*
X-31284D01*
X-31351Y43640D01*
Y43374D01*
X-31284Y43307D01*
X-31151D01*
X-31084Y43374D01*
Y43640D01*
X-31151Y43707D01*
X-30951D02*
X-30685D01*
X-30818D01*
Y43307D01*
X-30551Y43707D02*
Y43307D01*
Y43507D01*
X-30285D01*
Y43707D01*
Y43307D01*
X-29885Y43707D02*
X-30151D01*
Y43307D01*
X-29885D01*
X-30151Y43507D02*
X-30018D01*
X-29752Y43307D02*
Y43707D01*
X-29552D01*
X-29485Y43640D01*
Y43507D01*
X-29552Y43440D01*
X-29752D01*
X-29618D02*
X-29485Y43307D01*
X-29352Y43707D02*
Y43307D01*
X-29218Y43440D01*
X-29085Y43307D01*
Y43707D01*
X-28952D02*
X-28819D01*
X-28885D01*
Y43307D01*
X-28952D01*
X-28819D01*
X-28352Y43640D02*
X-28419Y43707D01*
X-28552D01*
X-28619Y43640D01*
Y43574D01*
X-28552Y43507D01*
X-28419D01*
X-28352Y43440D01*
Y43374D01*
X-28419Y43307D01*
X-28552D01*
X-28619Y43374D01*
X-27952Y43707D02*
X-28219D01*
Y43307D01*
X-27952D01*
X-28219Y43507D02*
X-28085D01*
X-27819Y43307D02*
X-27686Y43440D01*
Y43574D01*
X-27819Y43707D01*
M02*
