G04 Layer_Color=8388736*
%FSLAX24Y24*%
%MOIN*%
G70*
G01*
G75*
%ADD240R,0.0126X0.0236*%
%ADD241R,0.0236X0.0126*%
%ADD242R,0.0079X0.0318*%
%ADD243R,0.0318X0.0079*%
D240*
X10291Y22771D02*
D03*
X16141Y20631D02*
D03*
X23991Y29061D02*
D03*
X37101Y18861D02*
D03*
X34571Y18831D02*
D03*
X32111Y18871D02*
D03*
X29601Y18855D02*
D03*
X37101Y19611D02*
D03*
X34571Y19581D02*
D03*
X32111Y19621D02*
D03*
X29601Y19605D02*
D03*
X26511Y39031D02*
D03*
X21011Y39030D02*
D03*
X17011Y39030D02*
D03*
X12981Y39030D02*
D03*
X10311Y38991D02*
D03*
X5011Y29071D02*
D03*
X13101Y31971D02*
D03*
X17991Y29511D02*
D03*
X40851Y11921D02*
D03*
X40851Y11381D02*
D03*
X14821Y25711D02*
D03*
X15581Y19311D02*
D03*
X23971Y30421D02*
D03*
X28901Y37401D02*
D03*
Y36851D02*
D03*
X22405Y10261D02*
D03*
X18671Y10091D02*
D03*
X23322Y7031D02*
D03*
X18482Y7021D02*
D03*
X24821Y39031D02*
D03*
X20001Y39031D02*
D03*
X15991Y39031D02*
D03*
X11971Y39031D02*
D03*
X9761Y38411D02*
D03*
X3981Y36251D02*
D03*
X36580Y10251D02*
D03*
X29491D02*
D03*
X15314D02*
D03*
X8345D02*
D03*
X32847Y10101D02*
D03*
X25758D02*
D03*
X11581D02*
D03*
X4612D02*
D03*
X37497Y7031D02*
D03*
X30408Y7031D02*
D03*
X16231Y7031D02*
D03*
X9262Y7031D02*
D03*
X32657Y7021D02*
D03*
X25568Y7021D02*
D03*
X11440Y7021D02*
D03*
X4421Y7031D02*
D03*
X13101Y26911D02*
D03*
X10291Y63271D02*
D03*
X16141Y61131D02*
D03*
X23991Y69561D02*
D03*
X37101Y59361D02*
D03*
X34571Y59331D02*
D03*
X32111Y59371D02*
D03*
X29601Y59355D02*
D03*
X37101Y60111D02*
D03*
X34571Y60081D02*
D03*
X32111Y60121D02*
D03*
X29601Y60105D02*
D03*
X26511Y79531D02*
D03*
X21011Y79530D02*
D03*
X17011Y79530D02*
D03*
X12981Y79530D02*
D03*
X10311Y79491D02*
D03*
X5011Y69571D02*
D03*
X13101Y72471D02*
D03*
X17991Y70011D02*
D03*
X40851Y52421D02*
D03*
X40851Y51881D02*
D03*
X14821Y66211D02*
D03*
X15581Y59811D02*
D03*
X23971Y70921D02*
D03*
X28901Y77901D02*
D03*
Y77351D02*
D03*
X22405Y50761D02*
D03*
X18671Y50591D02*
D03*
X23322Y47531D02*
D03*
X18482Y47521D02*
D03*
X24821Y79531D02*
D03*
X20001Y79531D02*
D03*
X15991Y79531D02*
D03*
X11971Y79531D02*
D03*
X9761Y78911D02*
D03*
X3981Y76751D02*
D03*
X36580Y50751D02*
D03*
X29491D02*
D03*
X15314D02*
D03*
X8345D02*
D03*
X32847Y50601D02*
D03*
X25758D02*
D03*
X11581D02*
D03*
X4612D02*
D03*
X37497Y47531D02*
D03*
X30408Y47531D02*
D03*
X16231Y47531D02*
D03*
X9262Y47531D02*
D03*
X32657Y47521D02*
D03*
X25568Y47521D02*
D03*
X11440Y47521D02*
D03*
X4421Y47531D02*
D03*
X13101Y67411D02*
D03*
D241*
X39651Y19201D02*
D03*
X33541Y38891D02*
D03*
X34094Y38891D02*
D03*
X6061Y36081D02*
D03*
X7831Y30011D02*
D03*
X18771Y29631D02*
D03*
X36854Y41095D02*
D03*
X15651Y24361D02*
D03*
X32261Y30191D02*
D03*
X33041Y30191D02*
D03*
X15651Y23361D02*
D03*
X23982Y6161D02*
D03*
X17802Y6161D02*
D03*
X38157Y6161D02*
D03*
X30771Y6011D02*
D03*
X17187Y6161D02*
D03*
X10416Y6161D02*
D03*
X31991Y6161D02*
D03*
X24888Y6161D02*
D03*
X11016Y6094D02*
D03*
X3604Y6616D02*
D03*
X39651Y59701D02*
D03*
X33541Y79391D02*
D03*
X34094Y79391D02*
D03*
X6061Y76581D02*
D03*
X7831Y70511D02*
D03*
X18771Y70131D02*
D03*
X36854Y81595D02*
D03*
X15651Y64861D02*
D03*
X32261Y70691D02*
D03*
X33041Y70691D02*
D03*
X15651Y63861D02*
D03*
X23982Y46661D02*
D03*
X17802Y46661D02*
D03*
X38157Y46661D02*
D03*
X30771Y46511D02*
D03*
X17187Y46661D02*
D03*
X10416Y46661D02*
D03*
X31991Y46661D02*
D03*
X24888Y46661D02*
D03*
X11016Y46594D02*
D03*
X3604Y47116D02*
D03*
D242*
X13251Y25692D02*
D03*
X16151Y19980D02*
D03*
X24191Y29752D02*
D03*
X36494Y42044D02*
D03*
X5031Y21962D02*
D03*
X13251Y66192D02*
D03*
X16151Y60480D02*
D03*
X24191Y70252D02*
D03*
X36494Y82544D02*
D03*
X5031Y62462D02*
D03*
D243*
X33222Y41756D02*
D03*
X28652Y31351D02*
D03*
X33222Y82256D02*
D03*
X28652Y71851D02*
D03*
M02*
