G04 Layer_Color=2752767*
%FSLAX24Y24*%
%MOIN*%
G70*
G01*
G75*
%ADD117C,0.0040*%
%ADD120C,0.0050*%
%ADD283C,0.0067*%
D117*
X39620Y500D02*
G03*
X39620Y500I-120J0D01*
G01*
Y2500D02*
G03*
X39620Y2500I-120J0D01*
G01*
X40620Y1500D02*
G03*
X40620Y1500I-120J0D01*
G01*
X38620D02*
G03*
X38620Y1500I-120J0D01*
G01*
X38920Y2200D02*
G03*
X38920Y2200I-120J0D01*
G01*
X40320D02*
G03*
X40320Y2200I-120J0D01*
G01*
Y800D02*
G03*
X40320Y800I-120J0D01*
G01*
X38920D02*
G03*
X38920Y800I-120J0D01*
G01*
X39620Y38000D02*
G03*
X39620Y38000I-120J0D01*
G01*
Y40000D02*
G03*
X39620Y40000I-120J0D01*
G01*
X40620Y39000D02*
G03*
X40620Y39000I-120J0D01*
G01*
X38620D02*
G03*
X38620Y39000I-120J0D01*
G01*
X38920Y39700D02*
G03*
X38920Y39700I-120J0D01*
G01*
X40320D02*
G03*
X40320Y39700I-120J0D01*
G01*
Y38300D02*
G03*
X40320Y38300I-120J0D01*
G01*
X38920D02*
G03*
X38920Y38300I-120J0D01*
G01*
X1620Y38000D02*
G03*
X1620Y38000I-120J0D01*
G01*
Y40000D02*
G03*
X1620Y40000I-120J0D01*
G01*
X2620Y39000D02*
G03*
X2620Y39000I-120J0D01*
G01*
X620D02*
G03*
X620Y39000I-120J0D01*
G01*
X920Y39700D02*
G03*
X920Y39700I-120J0D01*
G01*
X2320D02*
G03*
X2320Y39700I-120J0D01*
G01*
Y38300D02*
G03*
X2320Y38300I-120J0D01*
G01*
X920D02*
G03*
X920Y38300I-120J0D01*
G01*
X1620Y500D02*
G03*
X1620Y500I-120J0D01*
G01*
Y2500D02*
G03*
X1620Y2500I-120J0D01*
G01*
X2620Y1500D02*
G03*
X2620Y1500I-120J0D01*
G01*
X620D02*
G03*
X620Y1500I-120J0D01*
G01*
X920Y2200D02*
G03*
X920Y2200I-120J0D01*
G01*
X2320D02*
G03*
X2320Y2200I-120J0D01*
G01*
Y800D02*
G03*
X2320Y800I-120J0D01*
G01*
X920D02*
G03*
X920Y800I-120J0D01*
G01*
X694Y11690D02*
G03*
X694Y11690I-120J0D01*
G01*
X2506D02*
G03*
X2506Y11690I-120J0D01*
G01*
X1600Y12596D02*
G03*
X1600Y12596I-120J0D01*
G01*
Y10784D02*
G03*
X1600Y10784I-120J0D01*
G01*
X32827Y38638D02*
G03*
X32827Y38638I-120J0D01*
G01*
X32433D02*
G03*
X32433Y38638I-120J0D01*
G01*
X32039D02*
G03*
X32039Y38638I-120J0D01*
G01*
Y38244D02*
G03*
X32039Y38244I-120J0D01*
G01*
Y37851D02*
G03*
X32039Y37851I-120J0D01*
G01*
X32433D02*
G03*
X32433Y37851I-120J0D01*
G01*
X32827D02*
G03*
X32827Y37851I-120J0D01*
G01*
Y38244D02*
G03*
X32827Y38244I-120J0D01*
G01*
X32433D02*
G03*
X32433Y38244I-120J0D01*
G01*
X22385Y33820D02*
G03*
X22385Y33820I-120J0D01*
G01*
Y34220D02*
G03*
X22385Y34220I-120J0D01*
G01*
Y33420D02*
G03*
X22385Y33420I-120J0D01*
G01*
Y33020D02*
G03*
X22385Y33020I-120J0D01*
G01*
X21985D02*
G03*
X21985Y33020I-120J0D01*
G01*
X21585D02*
G03*
X21585Y33020I-120J0D01*
G01*
Y33420D02*
G03*
X21585Y33420I-120J0D01*
G01*
X21985D02*
G03*
X21985Y33420I-120J0D01*
G01*
Y33820D02*
G03*
X21985Y33820I-120J0D01*
G01*
X21585D02*
G03*
X21585Y33820I-120J0D01*
G01*
Y34220D02*
G03*
X21585Y34220I-120J0D01*
G01*
X21985D02*
G03*
X21985Y34220I-120J0D01*
G01*
X22785D02*
G03*
X22785Y34220I-120J0D01*
G01*
X23185D02*
G03*
X23185Y34220I-120J0D01*
G01*
Y33820D02*
G03*
X23185Y33820I-120J0D01*
G01*
X22785D02*
G03*
X22785Y33820I-120J0D01*
G01*
Y33420D02*
G03*
X22785Y33420I-120J0D01*
G01*
X23185D02*
G03*
X23185Y33420I-120J0D01*
G01*
Y33020D02*
G03*
X23185Y33020I-120J0D01*
G01*
X22785D02*
G03*
X22785Y33020I-120J0D01*
G01*
X17830Y34620D02*
G03*
X17830Y34620I-120J0D01*
G01*
Y35020D02*
G03*
X17830Y35020I-120J0D01*
G01*
Y34220D02*
G03*
X17830Y34220I-120J0D01*
G01*
Y33820D02*
G03*
X17830Y33820I-120J0D01*
G01*
X17430D02*
G03*
X17430Y33820I-120J0D01*
G01*
X17030D02*
G03*
X17030Y33820I-120J0D01*
G01*
Y34220D02*
G03*
X17030Y34220I-120J0D01*
G01*
X17430D02*
G03*
X17430Y34220I-120J0D01*
G01*
Y34620D02*
G03*
X17430Y34620I-120J0D01*
G01*
X17030D02*
G03*
X17030Y34620I-120J0D01*
G01*
Y35020D02*
G03*
X17030Y35020I-120J0D01*
G01*
X17430D02*
G03*
X17430Y35020I-120J0D01*
G01*
X18230D02*
G03*
X18230Y35020I-120J0D01*
G01*
X18630D02*
G03*
X18630Y35020I-120J0D01*
G01*
Y34620D02*
G03*
X18630Y34620I-120J0D01*
G01*
X18230D02*
G03*
X18230Y34620I-120J0D01*
G01*
Y34220D02*
G03*
X18230Y34220I-120J0D01*
G01*
X18630D02*
G03*
X18630Y34220I-120J0D01*
G01*
Y33820D02*
G03*
X18630Y33820I-120J0D01*
G01*
X18230D02*
G03*
X18230Y33820I-120J0D01*
G01*
X13820Y34620D02*
G03*
X13820Y34620I-120J0D01*
G01*
Y35020D02*
G03*
X13820Y35020I-120J0D01*
G01*
Y34220D02*
G03*
X13820Y34220I-120J0D01*
G01*
Y33820D02*
G03*
X13820Y33820I-120J0D01*
G01*
X13420D02*
G03*
X13420Y33820I-120J0D01*
G01*
X13020D02*
G03*
X13020Y33820I-120J0D01*
G01*
Y34220D02*
G03*
X13020Y34220I-120J0D01*
G01*
X13420D02*
G03*
X13420Y34220I-120J0D01*
G01*
Y34620D02*
G03*
X13420Y34620I-120J0D01*
G01*
X13020D02*
G03*
X13020Y34620I-120J0D01*
G01*
Y35020D02*
G03*
X13020Y35020I-120J0D01*
G01*
X13420D02*
G03*
X13420Y35020I-120J0D01*
G01*
X14220D02*
G03*
X14220Y35020I-120J0D01*
G01*
X14620D02*
G03*
X14620Y35020I-120J0D01*
G01*
Y34620D02*
G03*
X14620Y34620I-120J0D01*
G01*
X14220D02*
G03*
X14220Y34620I-120J0D01*
G01*
Y34220D02*
G03*
X14220Y34220I-120J0D01*
G01*
X14620D02*
G03*
X14620Y34220I-120J0D01*
G01*
Y33820D02*
G03*
X14620Y33820I-120J0D01*
G01*
X14220D02*
G03*
X14220Y33820I-120J0D01*
G01*
X9835Y34620D02*
G03*
X9835Y34620I-120J0D01*
G01*
Y35020D02*
G03*
X9835Y35020I-120J0D01*
G01*
Y34220D02*
G03*
X9835Y34220I-120J0D01*
G01*
Y33820D02*
G03*
X9835Y33820I-120J0D01*
G01*
X9435D02*
G03*
X9435Y33820I-120J0D01*
G01*
X9035D02*
G03*
X9035Y33820I-120J0D01*
G01*
Y34220D02*
G03*
X9035Y34220I-120J0D01*
G01*
X9435D02*
G03*
X9435Y34220I-120J0D01*
G01*
Y34620D02*
G03*
X9435Y34620I-120J0D01*
G01*
X9035D02*
G03*
X9035Y34620I-120J0D01*
G01*
Y35020D02*
G03*
X9035Y35020I-120J0D01*
G01*
X9435D02*
G03*
X9435Y35020I-120J0D01*
G01*
X10235D02*
G03*
X10235Y35020I-120J0D01*
G01*
X10635D02*
G03*
X10635Y35020I-120J0D01*
G01*
Y34620D02*
G03*
X10635Y34620I-120J0D01*
G01*
X10235D02*
G03*
X10235Y34620I-120J0D01*
G01*
Y34220D02*
G03*
X10235Y34220I-120J0D01*
G01*
X10635D02*
G03*
X10635Y34220I-120J0D01*
G01*
Y33820D02*
G03*
X10635Y33820I-120J0D01*
G01*
X10235D02*
G03*
X10235Y33820I-120J0D01*
G01*
X20764Y14430D02*
G03*
X20764Y14430I-120J0D01*
G01*
X22576D02*
G03*
X22576Y14430I-120J0D01*
G01*
X21670Y15336D02*
G03*
X21670Y15336I-120J0D01*
G01*
Y13524D02*
G03*
X21670Y13524I-120J0D01*
G01*
X3810Y30144D02*
G03*
X3810Y30144I-120J0D01*
G01*
Y31956D02*
G03*
X3810Y31956I-120J0D01*
G01*
X4716Y31050D02*
G03*
X4716Y31050I-120J0D01*
G01*
X2904D02*
G03*
X2904Y31050I-120J0D01*
G01*
X9600Y7180D02*
G03*
X9600Y7180I-120J0D01*
G01*
X2630Y7170D02*
G03*
X2630Y7170I-120J0D01*
G01*
X16690D02*
G03*
X16690Y7170I-120J0D01*
G01*
X23780D02*
G03*
X23780Y7170I-120J0D01*
G01*
X30870Y7180D02*
G03*
X30870Y7180I-120J0D01*
G01*
X32820Y7600D02*
G03*
X32820Y7600I-120J0D01*
G01*
X3480Y1480D02*
G03*
X3480Y1480I-120J0D01*
G01*
X2460Y36460D02*
G03*
X2460Y36460I-120J0D01*
G01*
X2010Y26500D02*
G03*
X2010Y26500I-120J0D01*
G01*
X37840Y9360D02*
G03*
X37840Y9360I-120J0D01*
G01*
Y8820D02*
G03*
X37840Y8820I-120J0D01*
G01*
X37450Y10020D02*
G03*
X37450Y10020I-120J0D01*
G01*
X39286Y37006D02*
G03*
X39286Y37006I-120J0D01*
G01*
X32770Y34830D02*
G03*
X32770Y34830I-120J0D01*
G01*
Y34280D02*
G03*
X32770Y34280I-120J0D01*
G01*
Y33680D02*
G03*
X32770Y33680I-120J0D01*
G01*
Y33130D02*
G03*
X32770Y33130I-120J0D01*
G01*
Y32580D02*
G03*
X32770Y32580I-120J0D01*
G01*
Y32120D02*
G03*
X32770Y32120I-120J0D01*
G01*
X35280Y34960D02*
G03*
X35280Y34960I-120J0D01*
G01*
X34770D02*
G03*
X34770Y34960I-120J0D01*
G01*
Y28340D02*
G03*
X34770Y28340I-120J0D01*
G01*
X34760Y31370D02*
G03*
X34760Y31370I-120J0D01*
G01*
X39475Y35467D02*
G03*
X39475Y35467I-120J0D01*
G01*
Y35867D02*
G03*
X39475Y35867I-120J0D01*
G01*
X38995Y36457D02*
G03*
X38995Y36457I-120J0D01*
G01*
X40120Y21760D02*
G03*
X40120Y21760I-120J0D01*
G01*
X40520Y36460D02*
G03*
X40520Y36460I-120J0D01*
G01*
Y35870D02*
G03*
X40520Y35870I-120J0D01*
G01*
Y35470D02*
G03*
X40520Y35470I-120J0D01*
G01*
X3040Y29550D02*
G03*
X3040Y29550I-120J0D01*
G01*
X920Y12920D02*
G03*
X920Y12920I-120J0D01*
G01*
X6340Y35130D02*
G03*
X6340Y35130I-120J0D01*
G01*
X5330D02*
G03*
X5330Y35130I-120J0D01*
G01*
X4840Y33970D02*
G03*
X4840Y33970I-120J0D01*
G01*
X5670Y33960D02*
G03*
X5670Y33960I-120J0D01*
G01*
X6840Y33970D02*
G03*
X6840Y33970I-120J0D01*
G01*
X6890Y35420D02*
G03*
X6890Y35420I-120J0D01*
G01*
X4780Y35550D02*
G03*
X4780Y35550I-120J0D01*
G01*
X6050Y33970D02*
G03*
X6050Y33970I-120J0D01*
G01*
X6350Y35840D02*
G03*
X6350Y35840I-120J0D01*
G01*
X5360Y35820D02*
G03*
X5360Y35820I-120J0D01*
G01*
X21620Y36000D02*
G03*
X21620Y36000I-120J0D01*
G01*
X25620Y34000D02*
G03*
X25620Y34000I-120J0D01*
G01*
X23620D02*
G03*
X23620Y34000I-120J0D01*
G01*
Y33000D02*
G03*
X23620Y33000I-120J0D01*
G01*
X24620D02*
G03*
X24620Y33000I-120J0D01*
G01*
Y34000D02*
G03*
X24620Y34000I-120J0D01*
G01*
X25580Y35010D02*
G03*
X25580Y35010I-120J0D01*
G01*
X24620Y35000D02*
G03*
X24620Y35000I-120J0D01*
G01*
X23620D02*
G03*
X23620Y35000I-120J0D01*
G01*
X22620D02*
G03*
X22620Y35000I-120J0D01*
G01*
X21620D02*
G03*
X21620Y35000I-120J0D01*
G01*
X20500D02*
G03*
X20500Y35000I-120J0D01*
G01*
Y34000D02*
G03*
X20500Y34000I-120J0D01*
G01*
X21120D02*
G03*
X21120Y34000I-120J0D01*
G01*
Y33000D02*
G03*
X21120Y33000I-120J0D01*
G01*
X22600Y36020D02*
G03*
X22600Y36020I-120J0D01*
G01*
X24110Y32790D02*
G03*
X24110Y32790I-120J0D01*
G01*
X25480Y32830D02*
G03*
X25480Y32830I-120J0D01*
G01*
X24960Y35950D02*
G03*
X24960Y35950I-120J0D01*
G01*
X16500Y36240D02*
G03*
X16500Y36240I-120J0D01*
G01*
X12510Y36220D02*
G03*
X12510Y36220I-120J0D01*
G01*
X20500Y36020D02*
G03*
X20500Y36020I-120J0D01*
G01*
Y33030D02*
G03*
X20500Y33030I-120J0D01*
G01*
X20025Y33550D02*
G03*
X20025Y33550I-120J0D01*
G01*
Y35590D02*
G03*
X20025Y35590I-120J0D01*
G01*
X16490Y35370D02*
G03*
X16490Y35370I-120J0D01*
G01*
Y33530D02*
G03*
X16490Y33530I-120J0D01*
G01*
Y34460D02*
G03*
X16490Y34460I-120J0D01*
G01*
X20030Y34220D02*
G03*
X20030Y34220I-120J0D01*
G01*
X16020D02*
G03*
X16020Y34220I-120J0D01*
G01*
X12480Y34460D02*
G03*
X12480Y34460I-120J0D01*
G01*
Y33530D02*
G03*
X12480Y33530I-120J0D01*
G01*
Y35370D02*
G03*
X12480Y35370I-120J0D01*
G01*
X16015Y35590D02*
G03*
X16015Y35590I-120J0D01*
G01*
Y33550D02*
G03*
X16015Y33550I-120J0D01*
G01*
X12030Y34310D02*
G03*
X12030Y34310I-120J0D01*
G01*
X8330Y34440D02*
G03*
X8330Y34440I-120J0D01*
G01*
Y35350D02*
G03*
X8330Y35350I-120J0D01*
G01*
Y33530D02*
G03*
X8330Y33530I-120J0D01*
G01*
X12030Y33550D02*
G03*
X12030Y33550I-120J0D01*
G01*
X8560Y36190D02*
G03*
X8560Y36190I-120J0D01*
G01*
X27230Y39610D02*
G03*
X27230Y39610I-120J0D01*
G01*
X11580Y38610D02*
G03*
X11580Y38610I-120J0D01*
G01*
X10260D02*
G03*
X10260Y38610I-120J0D01*
G01*
X11590Y38220D02*
G03*
X11590Y38220I-120J0D01*
G01*
X11600Y39020D02*
G03*
X11600Y39020I-120J0D01*
G01*
X10260Y39000D02*
G03*
X10260Y39000I-120J0D01*
G01*
Y38230D02*
G03*
X10260Y38230I-120J0D01*
G01*
X10300Y37090D02*
G03*
X10300Y37090I-120J0D01*
G01*
X11600Y37070D02*
G03*
X11600Y37070I-120J0D01*
G01*
X15580Y38610D02*
G03*
X15580Y38610I-120J0D01*
G01*
X14260D02*
G03*
X14260Y38610I-120J0D01*
G01*
X15590Y38220D02*
G03*
X15590Y38220I-120J0D01*
G01*
X15600Y39020D02*
G03*
X15600Y39020I-120J0D01*
G01*
X14260Y39000D02*
G03*
X14260Y39000I-120J0D01*
G01*
Y38230D02*
G03*
X14260Y38230I-120J0D01*
G01*
X14300Y37090D02*
G03*
X14300Y37090I-120J0D01*
G01*
X15600Y37070D02*
G03*
X15600Y37070I-120J0D01*
G01*
X19600D02*
G03*
X19600Y37070I-120J0D01*
G01*
X18300Y37090D02*
G03*
X18300Y37090I-120J0D01*
G01*
X8690Y36800D02*
G03*
X8690Y36800I-120J0D01*
G01*
X12640Y36890D02*
G03*
X12640Y36890I-120J0D01*
G01*
X18260Y38230D02*
G03*
X18260Y38230I-120J0D01*
G01*
Y39000D02*
G03*
X18260Y39000I-120J0D01*
G01*
X19600Y39020D02*
G03*
X19600Y39020I-120J0D01*
G01*
X19590Y38220D02*
G03*
X19590Y38220I-120J0D01*
G01*
X16590Y36870D02*
G03*
X16590Y36870I-120J0D01*
G01*
X18260Y38610D02*
G03*
X18260Y38610I-120J0D01*
G01*
X19580D02*
G03*
X19580Y38610I-120J0D01*
G01*
X27230Y39250D02*
G03*
X27230Y39250I-120J0D01*
G01*
Y38880D02*
G03*
X27230Y38880I-120J0D01*
G01*
X20540Y36750D02*
G03*
X20540Y36750I-120J0D01*
G01*
X12030Y35590D02*
G03*
X12030Y35590I-120J0D01*
G01*
X25910Y34290D02*
G03*
X25910Y34290I-120J0D01*
G01*
Y34830D02*
G03*
X25910Y34830I-120J0D01*
G01*
X26900Y31412D02*
G03*
X26900Y31412I-120J0D01*
G01*
Y31825D02*
G03*
X26900Y31825I-120J0D01*
G01*
Y32238D02*
G03*
X26900Y32238I-120J0D01*
G01*
X25890Y31423D02*
G03*
X25890Y31423I-120J0D01*
G01*
X26900Y31000D02*
G03*
X26900Y31000I-120J0D01*
G01*
X26180D02*
G03*
X26180Y31000I-120J0D01*
G01*
X25890Y31010D02*
G03*
X25890Y31010I-120J0D01*
G01*
X26900Y32650D02*
G03*
X26900Y32650I-120J0D01*
G01*
X26180Y32660D02*
G03*
X26180Y32660I-120J0D01*
G01*
X25890D02*
G03*
X25890Y32660I-120J0D01*
G01*
X26330Y27270D02*
G03*
X26330Y27270I-120J0D01*
G01*
X26350Y27640D02*
G03*
X26350Y27640I-120J0D01*
G01*
X26320Y28030D02*
G03*
X26320Y28030I-120J0D01*
G01*
X27480Y28220D02*
G03*
X27480Y28220I-120J0D01*
G01*
X28600Y27410D02*
G03*
X28600Y27410I-120J0D01*
G01*
Y27830D02*
G03*
X28600Y27830I-120J0D01*
G01*
X27480Y27820D02*
G03*
X27480Y27820I-120J0D01*
G01*
Y27340D02*
G03*
X27480Y27340I-120J0D01*
G01*
X31860Y31040D02*
G03*
X31860Y31040I-120J0D01*
G01*
X29950Y29010D02*
G03*
X29950Y29010I-120J0D01*
G01*
X29940Y28410D02*
G03*
X29940Y28410I-120J0D01*
G01*
X26860Y33610D02*
G03*
X26860Y33610I-120J0D01*
G01*
X31890Y27680D02*
G03*
X31890Y27680I-120J0D01*
G01*
X30170Y27370D02*
G03*
X30170Y27370I-120J0D01*
G01*
X31010Y27360D02*
G03*
X31010Y27360I-120J0D01*
G01*
X27580Y39680D02*
G03*
X27580Y39680I-120J0D01*
G01*
X27600Y38880D02*
G03*
X27600Y38880I-120J0D01*
G01*
X29750Y38870D02*
G03*
X29750Y38870I-120J0D01*
G01*
Y39700D02*
G03*
X29750Y39700I-120J0D01*
G01*
X29400Y38860D02*
G03*
X29400Y38860I-120J0D01*
G01*
Y39280D02*
G03*
X29400Y39280I-120J0D01*
G01*
X29390Y39710D02*
G03*
X29390Y39710I-120J0D01*
G01*
X28450Y39260D02*
G03*
X28450Y39260I-120J0D01*
G01*
Y39680D02*
G03*
X28450Y39680I-120J0D01*
G01*
Y38870D02*
G03*
X28450Y38870I-120J0D01*
G01*
X26900Y39610D02*
G03*
X26900Y39610I-120J0D01*
G01*
X26890Y39240D02*
G03*
X26890Y39240I-120J0D01*
G01*
X26900Y38880D02*
G03*
X26900Y38880I-120J0D01*
G01*
X25170Y39640D02*
G03*
X25170Y39640I-120J0D01*
G01*
X33020Y28090D02*
G03*
X33020Y28090I-120J0D01*
G01*
X39740Y21760D02*
G03*
X39740Y21760I-120J0D01*
G01*
X38560Y25120D02*
G03*
X38560Y25120I-120J0D01*
G01*
X39480Y25130D02*
G03*
X39480Y25130I-120J0D01*
G01*
X39030Y25120D02*
G03*
X39030Y25120I-120J0D01*
G01*
X38100Y25260D02*
G03*
X38100Y25260I-120J0D01*
G01*
X38060Y26440D02*
G03*
X38060Y26440I-120J0D01*
G01*
X38520Y26520D02*
G03*
X38520Y26520I-120J0D01*
G01*
X40040Y26320D02*
G03*
X40040Y26320I-120J0D01*
G01*
Y25230D02*
G03*
X40040Y25230I-120J0D01*
G01*
X40050Y25850D02*
G03*
X40050Y25850I-120J0D01*
G01*
X39560Y26520D02*
G03*
X39560Y26520I-120J0D01*
G01*
X39080Y26500D02*
G03*
X39080Y26500I-120J0D01*
G01*
X38000Y27780D02*
G03*
X38000Y27780I-120J0D01*
G01*
X39090Y28550D02*
G03*
X39090Y28550I-120J0D01*
G01*
X39110Y27090D02*
G03*
X39110Y27090I-120J0D01*
G01*
X40120Y27830D02*
G03*
X40120Y27830I-120J0D01*
G01*
Y27410D02*
G03*
X40120Y27410I-120J0D01*
G01*
X40110Y28280D02*
G03*
X40110Y28280I-120J0D01*
G01*
X39560Y28530D02*
G03*
X39560Y28530I-120J0D01*
G01*
X38670D02*
G03*
X38670Y28530I-120J0D01*
G01*
X38070Y28150D02*
G03*
X38070Y28150I-120J0D01*
G01*
X38130Y27390D02*
G03*
X38130Y27390I-120J0D01*
G01*
X38690Y27120D02*
G03*
X38690Y27120I-120J0D01*
G01*
X39510Y27130D02*
G03*
X39510Y27130I-120J0D01*
G01*
X39060Y29090D02*
G03*
X39060Y29090I-120J0D01*
G01*
X40120Y29830D02*
G03*
X40120Y29830I-120J0D01*
G01*
X39100Y30580D02*
G03*
X39100Y30580I-120J0D01*
G01*
X37990Y29390D02*
G03*
X37990Y29390I-120J0D01*
G01*
X38000Y30330D02*
G03*
X38000Y30330I-120J0D01*
G01*
X40120Y30320D02*
G03*
X40120Y30320I-120J0D01*
G01*
X40110Y29310D02*
G03*
X40110Y29310I-120J0D01*
G01*
X39510Y31130D02*
G03*
X39510Y31130I-120J0D01*
G01*
X38690Y31120D02*
G03*
X38690Y31120I-120J0D01*
G01*
X38130Y31390D02*
G03*
X38130Y31390I-120J0D01*
G01*
X38070Y32150D02*
G03*
X38070Y32150I-120J0D01*
G01*
X38670Y32530D02*
G03*
X38670Y32530I-120J0D01*
G01*
X39560D02*
G03*
X39560Y32530I-120J0D01*
G01*
X40110Y32280D02*
G03*
X40110Y32280I-120J0D01*
G01*
X40120Y31410D02*
G03*
X40120Y31410I-120J0D01*
G01*
Y31830D02*
G03*
X40120Y31830I-120J0D01*
G01*
X39110Y31090D02*
G03*
X39110Y31090I-120J0D01*
G01*
X39090Y32550D02*
G03*
X39090Y32550I-120J0D01*
G01*
X38000Y31780D02*
G03*
X38000Y31780I-120J0D01*
G01*
X40070Y33290D02*
G03*
X40070Y33290I-120J0D01*
G01*
X40080Y34400D02*
G03*
X40080Y34400I-120J0D01*
G01*
X38000Y34330D02*
G03*
X38000Y34330I-120J0D01*
G01*
X38201Y32982D02*
G03*
X38201Y32982I-120J0D01*
G01*
X39090Y34710D02*
G03*
X39090Y34710I-120J0D01*
G01*
X40120Y33830D02*
G03*
X40120Y33830I-120J0D01*
G01*
X39060Y33090D02*
G03*
X39060Y33090I-120J0D01*
G01*
X6880Y31000D02*
G03*
X6880Y31000I-120J0D01*
G01*
X18160Y24820D02*
G03*
X18160Y24820I-120J0D01*
G01*
X17800Y24860D02*
G03*
X17800Y24860I-120J0D01*
G01*
X23430Y14720D02*
G03*
X23430Y14720I-120J0D01*
G01*
X23460Y15810D02*
G03*
X23460Y15810I-120J0D01*
G01*
X23100Y15820D02*
G03*
X23100Y15820I-120J0D01*
G01*
X23080Y16940D02*
G03*
X23080Y16940I-120J0D01*
G01*
X25820Y17700D02*
G03*
X25820Y17700I-120J0D01*
G01*
X25860Y19270D02*
G03*
X25860Y19270I-120J0D01*
G01*
X26480Y17550D02*
G03*
X26480Y17550I-120J0D01*
G01*
X26410Y16950D02*
G03*
X26410Y16950I-120J0D01*
G01*
X18380Y15915D02*
G03*
X18380Y15915I-120J0D01*
G01*
X18640Y16200D02*
G03*
X18640Y16200I-120J0D01*
G01*
X18780Y16710D02*
G03*
X18780Y16710I-120J0D01*
G01*
X18980Y16370D02*
G03*
X18980Y16370I-120J0D01*
G01*
X20850Y15630D02*
G03*
X20850Y15630I-120J0D01*
G01*
X20890Y16020D02*
G03*
X20890Y16020I-120J0D01*
G01*
X21140Y16280D02*
G03*
X21140Y16280I-120J0D01*
G01*
X21370Y16000D02*
G03*
X21370Y16000I-120J0D01*
G01*
X6250Y27660D02*
G03*
X6250Y27660I-120J0D01*
G01*
X6600Y28270D02*
G03*
X6600Y28270I-120J0D01*
G01*
X12310Y28170D02*
G03*
X12310Y28170I-120J0D01*
G01*
X12570Y16740D02*
G03*
X12570Y16740I-120J0D01*
G01*
X14500Y16760D02*
G03*
X14500Y16760I-120J0D01*
G01*
X15870Y20240D02*
G03*
X15870Y20240I-120J0D01*
G01*
X14250Y20510D02*
G03*
X14250Y20510I-120J0D01*
G01*
X22120Y26510D02*
G03*
X22120Y26510I-120J0D01*
G01*
X38680Y3620D02*
G03*
X38680Y3620I-120J0D01*
G01*
X40650Y18220D02*
G03*
X40650Y18220I-120J0D01*
G01*
Y18820D02*
G03*
X40650Y18820I-120J0D01*
G01*
Y18520D02*
G03*
X40650Y18520I-120J0D01*
G01*
X34850Y22280D02*
G03*
X34850Y22280I-120J0D01*
G01*
X33300D02*
G03*
X33300Y22280I-120J0D01*
G01*
X30730D02*
G03*
X30730Y22280I-120J0D01*
G01*
X29360D02*
G03*
X29360Y22280I-120J0D01*
G01*
X27560D02*
G03*
X27560Y22280I-120J0D01*
G01*
X28250Y14690D02*
G03*
X28250Y14690I-120J0D01*
G01*
X25840Y13910D02*
G03*
X25840Y13910I-120J0D01*
G01*
X26740Y21280D02*
G03*
X26740Y21280I-120J0D01*
G01*
X26340Y21300D02*
G03*
X26340Y21300I-120J0D01*
G01*
X26390Y20230D02*
G03*
X26390Y20230I-120J0D01*
G01*
X26030D02*
G03*
X26030Y20230I-120J0D01*
G01*
X28710Y21540D02*
G03*
X28710Y21540I-120J0D01*
G01*
X32170Y21610D02*
G03*
X32170Y21610I-120J0D01*
G01*
X33670Y20250D02*
G03*
X33670Y20250I-120J0D01*
G01*
X31380Y20240D02*
G03*
X31380Y20240I-120J0D01*
G01*
X28357Y21290D02*
G03*
X28357Y21290I-120J0D01*
G01*
X30167D02*
G03*
X30167Y21290I-120J0D01*
G01*
X34127D02*
G03*
X34127Y21290I-120J0D01*
G01*
X31817D02*
G03*
X31817Y21290I-120J0D01*
G01*
X35787Y21280D02*
G03*
X35787Y21280I-120J0D01*
G01*
X35350Y21270D02*
G03*
X35350Y21270I-120J0D01*
G01*
X33670D02*
G03*
X33670Y21270I-120J0D01*
G01*
X31380D02*
G03*
X31380Y21270I-120J0D01*
G01*
X29730Y21280D02*
G03*
X29730Y21280I-120J0D01*
G01*
X27930D02*
G03*
X27930Y21280I-120J0D01*
G01*
X35350Y20230D02*
G03*
X35350Y20230I-120J0D01*
G01*
X29730Y20240D02*
G03*
X29730Y20240I-120J0D01*
G01*
X27930D02*
G03*
X27930Y20240I-120J0D01*
G01*
X6575Y19985D02*
G03*
X6575Y19985I-120J0D01*
G01*
X5220Y19710D02*
G03*
X5220Y19710I-120J0D01*
G01*
X2390Y16630D02*
G03*
X2390Y16630I-120J0D01*
G01*
X680Y14520D02*
G03*
X680Y14520I-120J0D01*
G01*
Y17480D02*
G03*
X680Y17480I-120J0D01*
G01*
Y17920D02*
G03*
X680Y17920I-120J0D01*
G01*
Y14090D02*
G03*
X680Y14090I-120J0D01*
G01*
X8670Y16880D02*
G03*
X8670Y16880I-120J0D01*
G01*
X6510Y16310D02*
G03*
X6510Y16310I-120J0D01*
G01*
X21930Y21570D02*
G03*
X21930Y21570I-120J0D01*
G01*
X22270Y21210D02*
G03*
X22270Y21210I-120J0D01*
G01*
X3100Y33990D02*
G03*
X3100Y33990I-120J0D01*
G01*
X3480Y34730D02*
G03*
X3480Y34730I-120J0D01*
G01*
X3190D02*
G03*
X3190Y34730I-120J0D01*
G01*
X3100Y33340D02*
G03*
X3100Y33340I-120J0D01*
G01*
X25630Y29970D02*
G03*
X25630Y29970I-120J0D01*
G01*
X24190Y29840D02*
G03*
X24190Y29840I-120J0D01*
G01*
X24240Y29220D02*
G03*
X24240Y29220I-120J0D01*
G01*
X23240Y31120D02*
G03*
X23240Y31120I-120J0D01*
G01*
X24090Y28260D02*
G03*
X24090Y28260I-120J0D01*
G01*
X24410Y27920D02*
G03*
X24410Y27920I-120J0D01*
G01*
X21080Y31150D02*
G03*
X21080Y31150I-120J0D01*
G01*
X25350Y27310D02*
G03*
X25350Y27310I-120J0D01*
G01*
X20430Y32640D02*
G03*
X20430Y32640I-120J0D01*
G01*
X18130Y31990D02*
G03*
X18130Y31990I-120J0D01*
G01*
X16480Y31680D02*
G03*
X16480Y31680I-120J0D01*
G01*
X13040Y32010D02*
G03*
X13040Y32010I-120J0D01*
G01*
X8540Y31690D02*
G03*
X8540Y31690I-120J0D01*
G01*
X9140Y32010D02*
G03*
X9140Y32010I-120J0D01*
G01*
X9960Y31690D02*
G03*
X9960Y31690I-120J0D01*
G01*
X12420D02*
G03*
X12420Y31690I-120J0D01*
G01*
X13830D02*
G03*
X13830Y31690I-120J0D01*
G01*
X17080Y32010D02*
G03*
X17080Y32010I-120J0D01*
G01*
X16370Y33090D02*
G03*
X16370Y33090I-120J0D01*
G01*
X12400Y33100D02*
G03*
X12400Y33100I-120J0D01*
G01*
X8420D02*
G03*
X8420Y33100I-120J0D01*
G01*
X4850Y36730D02*
G03*
X4850Y36730I-120J0D01*
G01*
X5100Y32950D02*
G03*
X5100Y32950I-120J0D01*
G01*
X6250Y32920D02*
G03*
X6250Y32920I-120J0D01*
G01*
X5440Y30790D02*
G03*
X5440Y30790I-120J0D01*
G01*
X2970Y18910D02*
G03*
X2970Y18910I-120J0D01*
G01*
X1280D02*
G03*
X1280Y18910I-120J0D01*
G01*
X630Y20090D02*
G03*
X630Y20090I-120J0D01*
G01*
X2410Y17070D02*
G03*
X2410Y17070I-120J0D01*
G01*
X7360Y11264D02*
G03*
X7360Y11264I-120J0D01*
G01*
Y10827D02*
G03*
X7360Y10827I-120J0D01*
G01*
Y11707D02*
G03*
X7360Y11707I-120J0D01*
G01*
X14460Y11264D02*
G03*
X14460Y11264I-120J0D01*
G01*
Y10827D02*
G03*
X14460Y10827I-120J0D01*
G01*
Y11707D02*
G03*
X14460Y11707I-120J0D01*
G01*
X21520Y11264D02*
G03*
X21520Y11264I-120J0D01*
G01*
Y10827D02*
G03*
X21520Y10827I-120J0D01*
G01*
Y11707D02*
G03*
X21520Y11707I-120J0D01*
G01*
X28590Y11264D02*
G03*
X28590Y11264I-120J0D01*
G01*
Y10827D02*
G03*
X28590Y10827I-120J0D01*
G01*
Y11707D02*
G03*
X28590Y11707I-120J0D01*
G01*
X35720D02*
G03*
X35720Y11707I-120J0D01*
G01*
Y10827D02*
G03*
X35720Y10827I-120J0D01*
G01*
Y11264D02*
G03*
X35720Y11264I-120J0D01*
G01*
X7320Y9674D02*
G03*
X7320Y9674I-120J0D01*
G01*
X7340Y8794D02*
G03*
X7340Y8794I-120J0D01*
G01*
X7320Y9230D02*
G03*
X7320Y9230I-120J0D01*
G01*
X14420Y9674D02*
G03*
X14420Y9674I-120J0D01*
G01*
Y8794D02*
G03*
X14420Y8794I-120J0D01*
G01*
Y9230D02*
G03*
X14420Y9230I-120J0D01*
G01*
X21480Y9674D02*
G03*
X21480Y9674I-120J0D01*
G01*
Y8794D02*
G03*
X21480Y8794I-120J0D01*
G01*
Y9230D02*
G03*
X21480Y9230I-120J0D01*
G01*
X28550Y9674D02*
G03*
X28550Y9674I-120J0D01*
G01*
Y8794D02*
G03*
X28550Y8794I-120J0D01*
G01*
Y9230D02*
G03*
X28550Y9230I-120J0D01*
G01*
X35680D02*
G03*
X35680Y9230I-120J0D01*
G01*
Y8794D02*
G03*
X35680Y8794I-120J0D01*
G01*
Y9674D02*
G03*
X35680Y9674I-120J0D01*
G01*
X37440Y13410D02*
G03*
X37440Y13410I-120J0D01*
G01*
X33160Y13450D02*
G03*
X33160Y13450I-120J0D01*
G01*
X30570Y11090D02*
G03*
X30570Y11090I-120J0D01*
G01*
X23670Y11270D02*
G03*
X23670Y11270I-120J0D01*
G01*
X2980Y11280D02*
G03*
X2980Y11280I-120J0D01*
G01*
X13620Y12335D02*
G03*
X13620Y12335I-120J0D01*
G01*
X36250Y7160D02*
G03*
X36250Y7160I-120J0D01*
G01*
X35550Y7650D02*
G03*
X35550Y7650I-120J0D01*
G01*
X28490Y7590D02*
G03*
X28490Y7590I-120J0D01*
G01*
X29130Y7150D02*
G03*
X29130Y7150I-120J0D01*
G01*
X20125Y9010D02*
G03*
X20125Y9010I-120J0D01*
G01*
X21360Y7660D02*
G03*
X21360Y7660I-120J0D01*
G01*
X22070Y7170D02*
G03*
X22070Y7170I-120J0D01*
G01*
X610Y12690D02*
G03*
X610Y12690I-120J0D01*
G01*
X20660Y13430D02*
G03*
X20660Y13430I-120J0D01*
G01*
X570Y31390D02*
G03*
X570Y31390I-120J0D01*
G01*
X620Y10580D02*
G03*
X620Y10580I-120J0D01*
G01*
X2120Y19900D02*
G03*
X2120Y19900I-120J0D01*
G01*
X4000Y19030D02*
G03*
X4000Y19030I-120J0D01*
G01*
X5530Y19050D02*
G03*
X5530Y19050I-120J0D01*
G01*
X5950D02*
G03*
X5950Y19050I-120J0D01*
G01*
X6575Y19055D02*
G03*
X6575Y19055I-120J0D01*
G01*
X3580Y19050D02*
G03*
X3580Y19050I-120J0D01*
G01*
X8410Y16620D02*
G03*
X8410Y16620I-120J0D01*
G01*
X7730Y16870D02*
G03*
X7730Y16870I-120J0D01*
G01*
X13750Y16290D02*
G03*
X13750Y16290I-120J0D01*
G01*
X14800Y17450D02*
G03*
X14800Y17450I-120J0D01*
G01*
X14460Y17270D02*
G03*
X14460Y17270I-120J0D01*
G01*
X15000Y16940D02*
G03*
X15000Y16940I-120J0D01*
G01*
X15350Y16810D02*
G03*
X15350Y16810I-120J0D01*
G01*
X16313Y16663D02*
G03*
X16313Y16663I-120J0D01*
G01*
X19550Y17905D02*
G03*
X19550Y17905I-120J0D01*
G01*
X19250Y12050D02*
G03*
X19250Y12050I-120J0D01*
G01*
X23500Y13320D02*
G03*
X23500Y13320I-120J0D01*
G01*
X20020Y13330D02*
G03*
X20020Y13330I-120J0D01*
G01*
X15760Y18240D02*
G03*
X15760Y18240I-120J0D01*
G01*
X15400Y18330D02*
G03*
X15400Y18330I-120J0D01*
G01*
X21790Y20140D02*
G03*
X21790Y20140I-120J0D01*
G01*
X22090Y20580D02*
G03*
X22090Y20580I-120J0D01*
G01*
X22040Y19820D02*
G03*
X22040Y19820I-120J0D01*
G01*
X17300Y25130D02*
G03*
X17300Y25130I-120J0D01*
G01*
X24050Y21390D02*
G03*
X24050Y21390I-120J0D01*
G01*
X26390Y15990D02*
G03*
X26390Y15990I-120J0D01*
G01*
X24250Y21920D02*
G03*
X24250Y21920I-120J0D01*
G01*
X33640Y15470D02*
G03*
X33640Y15470I-120J0D01*
G01*
X23780Y24960D02*
G03*
X23780Y24960I-120J0D01*
G01*
X21884Y23640D02*
G03*
X21884Y23640I-120J0D01*
G01*
X29330Y13550D02*
G03*
X29330Y13550I-120J0D01*
G01*
X24020Y22970D02*
G03*
X24020Y22970I-120J0D01*
G01*
X24320Y23180D02*
G03*
X24320Y23180I-120J0D01*
G01*
X24310Y22480D02*
G03*
X24310Y22480I-120J0D01*
G01*
X24120Y23550D02*
G03*
X24120Y23550I-120J0D01*
G01*
X23740Y22740D02*
G03*
X23740Y22740I-120J0D01*
G01*
X20940Y27570D02*
G03*
X20940Y27570I-120J0D01*
G01*
X20460Y24690D02*
G03*
X20460Y24690I-120J0D01*
G01*
X20010Y26710D02*
G03*
X20010Y26710I-120J0D01*
G01*
X19650Y26120D02*
G03*
X19650Y26120I-120J0D01*
G01*
X20370Y26610D02*
G03*
X20370Y26610I-120J0D01*
G01*
X20410Y25050D02*
G03*
X20410Y25050I-120J0D01*
G01*
X22130Y27860D02*
G03*
X22130Y27860I-120J0D01*
G01*
X20770Y26970D02*
G03*
X20770Y26970I-120J0D01*
G01*
X22360Y20860D02*
G03*
X22360Y20860I-120J0D01*
G01*
X33900Y15990D02*
G03*
X33900Y15990I-120J0D01*
G01*
X19460Y24830D02*
G03*
X19460Y24830I-120J0D01*
G01*
X19780Y25050D02*
G03*
X19780Y25050I-120J0D01*
G01*
X14270Y7680D02*
G03*
X14270Y7680I-120J0D01*
G01*
X14980Y7160D02*
G03*
X14980Y7160I-120J0D01*
G01*
X6066Y9010D02*
G03*
X6066Y9010I-120J0D01*
G01*
X7870Y7170D02*
G03*
X7870Y7170I-120J0D01*
G01*
X30330Y13910D02*
G03*
X30330Y13910I-120J0D01*
G01*
X23850Y20740D02*
G03*
X23850Y20740I-120J0D01*
G01*
X22400Y19770D02*
G03*
X22400Y19770I-120J0D01*
G01*
X22180Y19480D02*
G03*
X22180Y19480I-120J0D01*
G01*
X24640Y13910D02*
G03*
X24640Y13910I-120J0D01*
G01*
X23760Y23640D02*
G03*
X23760Y23640I-120J0D01*
G01*
X23780Y19750D02*
G03*
X23780Y19750I-120J0D01*
G01*
X15700Y18620D02*
G03*
X15700Y18620I-120J0D01*
G01*
X15410Y18950D02*
G03*
X15410Y18950I-120J0D01*
G01*
X22280Y16060D02*
G03*
X22280Y16060I-120J0D01*
G01*
X22550Y19190D02*
G03*
X22550Y19190I-120J0D01*
G01*
X22340Y18880D02*
G03*
X22340Y18880I-120J0D01*
G01*
X22550Y18580D02*
G03*
X22550Y18580I-120J0D01*
G01*
X29330Y14540D02*
G03*
X29330Y14540I-120J0D01*
G01*
X31440Y15970D02*
G03*
X31440Y15970I-120J0D01*
G01*
X28690Y15980D02*
G03*
X28690Y15980I-120J0D01*
G01*
X26880Y17430D02*
G03*
X26880Y17430I-120J0D01*
G01*
X35900Y17160D02*
G03*
X35900Y17160I-120J0D01*
G01*
X9540Y12210D02*
G03*
X9540Y12210I-120J0D01*
G01*
X13410Y24930D02*
G03*
X13410Y24930I-120J0D01*
G01*
X28610Y16680D02*
G03*
X28610Y16680I-120J0D01*
G01*
X33910Y16970D02*
G03*
X33910Y16970I-120J0D01*
G01*
X31900Y17450D02*
G03*
X31900Y17450I-120J0D01*
G01*
X31380Y16970D02*
G03*
X31380Y16970I-120J0D01*
G01*
X34400Y17430D02*
G03*
X34400Y17430I-120J0D01*
G01*
X32880Y17120D02*
G03*
X32880Y17120I-120J0D01*
G01*
X29400Y17450D02*
G03*
X29400Y17450I-120J0D01*
G01*
X30420Y17180D02*
G03*
X30420Y17180I-120J0D01*
G01*
X27920D02*
G03*
X27920Y17180I-120J0D01*
G01*
X29300Y15060D02*
G03*
X29300Y15060I-120J0D01*
G01*
X30470Y14510D02*
G03*
X30470Y14510I-120J0D01*
G01*
X14010Y23880D02*
G03*
X14010Y23880I-120J0D01*
G01*
X25720Y29160D02*
G03*
X25720Y29160I-120J0D01*
G01*
X27221Y12080D02*
G03*
X27221Y12080I-120J0D01*
G01*
X26751D02*
G03*
X26751Y12080I-120J0D01*
G01*
X26331D02*
G03*
X26331Y12080I-120J0D01*
G01*
X33840D02*
G03*
X33840Y12080I-120J0D01*
G01*
X34310D02*
G03*
X34310Y12080I-120J0D01*
G01*
X30238Y35817D02*
G03*
X30238Y35817I-120J0D01*
G01*
X38260Y14006D02*
G03*
X38260Y14006I-120J0D01*
G01*
X38978Y16142D02*
G03*
X38978Y16142I-120J0D01*
G01*
X39303Y14990D02*
G03*
X39303Y14990I-120J0D01*
G01*
X13410Y24550D02*
G03*
X13410Y24550I-120J0D01*
G01*
X15420Y24522D02*
G03*
X15420Y24522I-120J0D01*
G01*
X38289Y21260D02*
G03*
X38289Y21260I-120J0D01*
G01*
X39726D02*
G03*
X39726Y21260I-120J0D01*
G01*
X4120Y18400D02*
G03*
X4120Y18400I-120J0D01*
G01*
X38476Y16339D02*
G03*
X38476Y16339I-120J0D01*
G01*
X40120Y16350D02*
G03*
X40120Y16350I-120J0D01*
G01*
X39470D02*
G03*
X39470Y16350I-120J0D01*
G01*
Y15950D02*
G03*
X39470Y15950I-120J0D01*
G01*
X40218Y14016D02*
G03*
X40218Y14016I-120J0D01*
G01*
X39579D02*
G03*
X39579Y14016I-120J0D01*
G01*
X38949D02*
G03*
X38949Y14016I-120J0D01*
G01*
X40120Y15950D02*
G03*
X40120Y15950I-120J0D01*
G01*
X38476Y15965D02*
G03*
X38476Y15965I-120J0D01*
G01*
X29970Y31050D02*
G03*
X29970Y31050I-120J0D01*
G01*
X30970D02*
G03*
X30970Y31050I-120J0D01*
G01*
X31870Y28400D02*
G03*
X31870Y28400I-120J0D01*
G01*
X30920D02*
G03*
X30920Y28400I-120J0D01*
G01*
X29970Y30350D02*
G03*
X29970Y30350I-120J0D01*
G01*
Y29700D02*
G03*
X29970Y29700I-120J0D01*
G01*
X31870Y29000D02*
G03*
X31870Y29000I-120J0D01*
G01*
Y29700D02*
G03*
X31870Y29700I-120J0D01*
G01*
Y30350D02*
G03*
X31870Y30350I-120J0D01*
G01*
X30920Y29700D02*
G03*
X30920Y29700I-120J0D01*
G01*
X34770Y29050D02*
G03*
X34770Y29050I-120J0D01*
G01*
Y29750D02*
G03*
X34770Y29750I-120J0D01*
G01*
Y30400D02*
G03*
X34770Y30400I-120J0D01*
G01*
X35320Y28350D02*
G03*
X35320Y28350I-120J0D01*
G01*
Y31050D02*
G03*
X35320Y31050I-120J0D01*
G01*
Y29750D02*
G03*
X35320Y29750I-120J0D01*
G01*
X37120Y29700D02*
G03*
X37120Y29700I-120J0D01*
G01*
X36220Y31050D02*
G03*
X36220Y31050I-120J0D01*
G01*
X37120Y30350D02*
G03*
X37120Y30350I-120J0D01*
G01*
Y29000D02*
G03*
X37120Y29000I-120J0D01*
G01*
X36220Y28350D02*
G03*
X36220Y28350I-120J0D01*
G01*
X35320Y29050D02*
G03*
X35320Y29050I-120J0D01*
G01*
Y30400D02*
G03*
X35320Y30400I-120J0D01*
G01*
X36220Y29700D02*
G03*
X36220Y29700I-120J0D01*
G01*
X39070Y21750D02*
G03*
X39070Y21750I-120J0D01*
G01*
X38220D02*
G03*
X38220Y21750I-120J0D01*
G01*
X37470Y26250D02*
G03*
X37470Y26250I-120J0D01*
G01*
Y23650D02*
G03*
X37470Y23650I-120J0D01*
G01*
Y24250D02*
G03*
X37470Y24250I-120J0D01*
G01*
Y24900D02*
G03*
X37470Y24900I-120J0D01*
G01*
Y25450D02*
G03*
X37470Y25450I-120J0D01*
G01*
X40120Y19370D02*
G03*
X40120Y19370I-120J0D01*
G01*
X38170Y19400D02*
G03*
X38170Y19400I-120J0D01*
G01*
X39018Y21250D02*
G03*
X39018Y21250I-120J0D01*
G01*
X39323Y19380D02*
G03*
X39323Y19380I-120J0D01*
G01*
X37520Y31760D02*
G03*
X37520Y31760I-120J0D01*
G01*
X34070Y31500D02*
G03*
X34070Y31500I-120J0D01*
G01*
X36820Y31760D02*
G03*
X36820Y31760I-120J0D01*
G01*
X36120D02*
G03*
X36120Y31760I-120J0D01*
G01*
X35420D02*
G03*
X35420Y31760I-120J0D01*
G01*
X34720D02*
G03*
X34720Y31760I-120J0D01*
G01*
X34070Y30800D02*
G03*
X34070Y30800I-120J0D01*
G01*
X34020Y30250D02*
G03*
X34020Y30250I-120J0D01*
G01*
Y29650D02*
G03*
X34020Y29650I-120J0D01*
G01*
Y29050D02*
G03*
X34020Y29050I-120J0D01*
G01*
Y28550D02*
G03*
X34020Y28550I-120J0D01*
G01*
Y34900D02*
G03*
X34020Y34900I-120J0D01*
G01*
X34070Y32250D02*
G03*
X34070Y32250I-120J0D01*
G01*
Y32950D02*
G03*
X34070Y32950I-120J0D01*
G01*
X34020Y33600D02*
G03*
X34020Y33600I-120J0D01*
G01*
Y34300D02*
G03*
X34020Y34300I-120J0D01*
G01*
X31900Y32240D02*
G03*
X31900Y32240I-120J0D01*
G01*
X31940Y34850D02*
G03*
X31940Y34850I-120J0D01*
G01*
X29920Y33650D02*
G03*
X29920Y33650I-120J0D01*
G01*
X31920Y33550D02*
G03*
X31920Y33550I-120J0D01*
G01*
X35320Y27950D02*
G03*
X35320Y27950I-120J0D01*
G01*
X33020Y28550D02*
G03*
X33020Y28550I-120J0D01*
G01*
Y29100D02*
G03*
X33020Y29100I-120J0D01*
G01*
Y29650D02*
G03*
X33020Y29650I-120J0D01*
G01*
Y30250D02*
G03*
X33020Y30250I-120J0D01*
G01*
Y30800D02*
G03*
X33020Y30800I-120J0D01*
G01*
X29920Y32250D02*
G03*
X29920Y32250I-120J0D01*
G01*
X30920D02*
G03*
X30920Y32250I-120J0D01*
G01*
Y33600D02*
G03*
X30920Y33600I-120J0D01*
G01*
X31920Y32950D02*
G03*
X31920Y32950I-120J0D01*
G01*
Y34300D02*
G03*
X31920Y34300I-120J0D01*
G01*
X34770Y32250D02*
G03*
X34770Y32250I-120J0D01*
G01*
Y32950D02*
G03*
X34770Y32950I-120J0D01*
G01*
Y33600D02*
G03*
X34770Y33600I-120J0D01*
G01*
Y34250D02*
G03*
X34770Y34250I-120J0D01*
G01*
X37170Y32250D02*
G03*
X37170Y32250I-120J0D01*
G01*
X35270D02*
G03*
X35270Y32250I-120J0D01*
G01*
X37170Y33600D02*
G03*
X37170Y33600I-120J0D01*
G01*
X35270D02*
G03*
X35270Y33600I-120J0D01*
G01*
X37170Y34300D02*
G03*
X37170Y34300I-120J0D01*
G01*
Y32950D02*
G03*
X37170Y32950I-120J0D01*
G01*
X36220Y32250D02*
G03*
X36220Y32250I-120J0D01*
G01*
X35270Y32950D02*
G03*
X35270Y32950I-120J0D01*
G01*
Y34250D02*
G03*
X35270Y34250I-120J0D01*
G01*
X22390Y32160D02*
G03*
X22390Y32160I-120J0D01*
G01*
X16940Y32520D02*
G03*
X16940Y32520I-120J0D01*
G01*
X12790Y32960D02*
G03*
X12790Y32960I-120J0D01*
G01*
X8940Y32520D02*
G03*
X8940Y32520I-120J0D01*
G01*
X17840Y32960D02*
G03*
X17840Y32960I-120J0D01*
G01*
X13810Y32980D02*
G03*
X13810Y32980I-120J0D01*
G01*
X9830Y32970D02*
G03*
X9830Y32970I-120J0D01*
G01*
X10140Y32520D02*
G03*
X10140Y32520I-120J0D01*
G01*
X8820Y32970D02*
G03*
X8820Y32970I-120J0D01*
G01*
X9340D02*
G03*
X9340Y32970I-120J0D01*
G01*
X9740Y32520D02*
G03*
X9740Y32520I-120J0D01*
G01*
X9340D02*
G03*
X9340Y32520I-120J0D01*
G01*
X21310Y31710D02*
G03*
X21310Y31710I-120J0D01*
G01*
X22526D02*
G03*
X22526Y31710I-120J0D01*
G01*
X13750Y32520D02*
G03*
X13750Y32520I-120J0D01*
G01*
X14150D02*
G03*
X14150Y32520I-120J0D01*
G01*
X13320Y32970D02*
G03*
X13320Y32970I-120J0D01*
G01*
X13350Y32520D02*
G03*
X13350Y32520I-120J0D01*
G01*
X12950D02*
G03*
X12950Y32520I-120J0D01*
G01*
X17340D02*
G03*
X17340Y32520I-120J0D01*
G01*
X17740D02*
G03*
X17740Y32520I-120J0D01*
G01*
X17310Y32970D02*
G03*
X17310Y32970I-120J0D01*
G01*
X16790Y32960D02*
G03*
X16790Y32960I-120J0D01*
G01*
X18140Y32520D02*
G03*
X18140Y32520I-120J0D01*
G01*
X33594Y37352D02*
G03*
X33594Y37352I-120J0D01*
G01*
X31553Y37564D02*
G03*
X31553Y37564I-120J0D01*
G01*
X35540Y38750D02*
G03*
X35540Y38750I-120J0D01*
G01*
X640Y32890D02*
G03*
X640Y32890I-120J0D01*
G01*
X12350Y28560D02*
G03*
X12350Y28560I-120J0D01*
G01*
X31580Y14350D02*
G03*
X31580Y14350I-120J0D01*
G01*
X37040Y38800D02*
G03*
X37040Y38800I-120J0D01*
G01*
X21614Y31710D02*
G03*
X21614Y31710I-120J0D01*
G01*
X21310Y32000D02*
G03*
X21310Y32000I-120J0D01*
G01*
X6920Y25160D02*
G03*
X6920Y25160I-120J0D01*
G01*
X22830Y31710D02*
G03*
X22830Y31710I-120J0D01*
G01*
X21870Y32160D02*
G03*
X21870Y32160I-120J0D01*
G01*
X21918Y31710D02*
G03*
X21918Y31710I-120J0D01*
G01*
X29920Y32950D02*
G03*
X29920Y32950I-120J0D01*
G01*
Y34300D02*
G03*
X29920Y34300I-120J0D01*
G01*
X30920Y34950D02*
G03*
X30920Y34950I-120J0D01*
G01*
X30320Y35300D02*
G03*
X30320Y35300I-120J0D01*
G01*
X38820Y12650D02*
G03*
X38820Y12650I-120J0D01*
G01*
Y12050D02*
G03*
X38820Y12050I-120J0D01*
G01*
Y11300D02*
G03*
X38820Y11300I-120J0D01*
G01*
Y10700D02*
G03*
X38820Y10700I-120J0D01*
G01*
X38320Y10650D02*
G03*
X38320Y10650I-120J0D01*
G01*
Y11300D02*
G03*
X38320Y11300I-120J0D01*
G01*
Y12050D02*
G03*
X38320Y12050I-120J0D01*
G01*
Y12650D02*
G03*
X38320Y12650I-120J0D01*
G01*
X25890Y32248D02*
G03*
X25890Y32248I-120J0D01*
G01*
Y31835D02*
G03*
X25890Y31835I-120J0D01*
G01*
X35040Y38750D02*
G03*
X35040Y38750I-120J0D01*
G01*
X1750Y20090D02*
G03*
X1750Y20090I-120J0D01*
G01*
X40110Y18100D02*
G03*
X40110Y18100I-120J0D01*
G01*
X40100Y16801D02*
G03*
X40100Y16801I-120J0D01*
G01*
X38340Y18080D02*
G03*
X38340Y18080I-120J0D01*
G01*
X38378Y16791D02*
G03*
X38378Y16791I-120J0D01*
G01*
X20060Y24800D02*
G03*
X20060Y24800I-120J0D01*
G01*
X13520Y24160D02*
G03*
X13520Y24160I-120J0D01*
G01*
X3250Y29010D02*
G03*
X3250Y29010I-120J0D01*
G01*
X30760Y36320D02*
G03*
X30760Y36320I-120J0D01*
G01*
X31430Y35770D02*
G03*
X31430Y35770I-120J0D01*
G01*
X32162Y39424D02*
G03*
X32162Y39424I-120J0D01*
G01*
X39264Y20305D02*
G03*
X39264Y20305I-120J0D01*
G01*
X40120Y21270D02*
G03*
X40120Y21270I-120J0D01*
G01*
X33440Y12080D02*
G03*
X33440Y12080I-120J0D01*
G01*
X20140D02*
G03*
X20140Y12080I-120J0D01*
G01*
X19670D02*
G03*
X19670Y12080I-120J0D01*
G01*
X16640Y11290D02*
G03*
X16640Y11290I-120J0D01*
G01*
X11544Y7860D02*
G03*
X11544Y7860I-120J0D01*
G01*
X11184D02*
G03*
X11184Y7860I-120J0D01*
G01*
X13460Y7680D02*
G03*
X13460Y7680I-120J0D01*
G01*
X13044Y12080D02*
G03*
X13044Y12080I-120J0D01*
G01*
X12574D02*
G03*
X12574Y12080I-120J0D01*
G01*
X12154D02*
G03*
X12154Y12080I-120J0D01*
G01*
X11184Y7600D02*
G03*
X11184Y7600I-120J0D01*
G01*
X11544D02*
G03*
X11544Y7600I-120J0D01*
G01*
X10345Y4030D02*
G03*
X10345Y4030I-120J0D01*
G01*
X9590Y11310D02*
G03*
X9590Y11310I-120J0D01*
G01*
X6060Y12050D02*
G03*
X6060Y12050I-120J0D01*
G01*
X5590D02*
G03*
X5590Y12050I-120J0D01*
G01*
X2731Y10200D02*
G03*
X2731Y10200I-120J0D01*
G01*
X10605Y4030D02*
G03*
X10605Y4030I-120J0D01*
G01*
X12200Y7790D02*
G03*
X12200Y7790I-120J0D01*
G01*
Y7510D02*
G03*
X12200Y7510I-120J0D01*
G01*
X8550Y7540D02*
G03*
X8550Y7540I-120J0D01*
G01*
X10580Y7800D02*
G03*
X10580Y7800I-120J0D01*
G01*
Y7530D02*
G03*
X10580Y7530I-120J0D01*
G01*
X13230Y7250D02*
G03*
X13230Y7250I-120J0D01*
G01*
X9710Y7410D02*
G03*
X9710Y7410I-120J0D01*
G01*
X9980D02*
G03*
X9980Y7410I-120J0D01*
G01*
X13520Y5870D02*
G03*
X13520Y5870I-120J0D01*
G01*
X13330Y6050D02*
G03*
X13330Y6050I-120J0D01*
G01*
X13230Y5330D02*
G03*
X13230Y5330I-120J0D01*
G01*
X13060Y5520D02*
G03*
X13060Y5520I-120J0D01*
G01*
X14100Y6220D02*
G03*
X14100Y6220I-120J0D01*
G01*
X12685Y4030D02*
G03*
X12685Y4030I-120J0D01*
G01*
X9666Y5520D02*
G03*
X9666Y5520I-120J0D01*
G01*
X9496Y5330D02*
G03*
X9496Y5330I-120J0D01*
G01*
X9396Y6050D02*
G03*
X9396Y6050I-120J0D01*
G01*
X9206Y5870D02*
G03*
X9206Y5870I-120J0D01*
G01*
X10110Y4890D02*
G03*
X10110Y4890I-120J0D01*
G01*
X10437D02*
G03*
X10437Y4890I-120J0D01*
G01*
X10763D02*
G03*
X10763Y4890I-120J0D01*
G01*
X11090D02*
G03*
X11090Y4890I-120J0D01*
G01*
X11590D02*
G03*
X11590Y4890I-120J0D01*
G01*
X11927D02*
G03*
X11927Y4890I-120J0D01*
G01*
X12263D02*
G03*
X12263Y4890I-120J0D01*
G01*
X12600D02*
G03*
X12600Y4890I-120J0D01*
G01*
X11050Y6150D02*
G03*
X11050Y6150I-120J0D01*
G01*
X11730D02*
G03*
X11730Y6150I-120J0D01*
G01*
X8510Y6200D02*
G03*
X8510Y6200I-120J0D01*
G01*
X8240D02*
G03*
X8240Y6200I-120J0D01*
G01*
X14745Y3010D02*
G03*
X14745Y3010I-120J0D01*
G01*
X12710Y7350D02*
G03*
X12710Y7350I-120J0D01*
G01*
X12960Y7260D02*
G03*
X12960Y7260I-120J0D01*
G01*
X20321Y7250D02*
G03*
X20321Y7250I-120J0D01*
G01*
X19801Y7350D02*
G03*
X19801Y7350I-120J0D01*
G01*
X20051Y7260D02*
G03*
X20051Y7260I-120J0D01*
G01*
X21541Y3010D02*
G03*
X21541Y3010I-120J0D01*
G01*
X15361Y2990D02*
G03*
X15361Y2990I-120J0D01*
G01*
X15331Y6200D02*
G03*
X15331Y6200I-120J0D01*
G01*
X15601D02*
G03*
X15601Y6200I-120J0D01*
G01*
X18821Y6150D02*
G03*
X18821Y6150I-120J0D01*
G01*
X18141D02*
G03*
X18141Y6150I-120J0D01*
G01*
X19691Y4890D02*
G03*
X19691Y4890I-120J0D01*
G01*
X19355D02*
G03*
X19355Y4890I-120J0D01*
G01*
X19018D02*
G03*
X19018Y4890I-120J0D01*
G01*
X18681D02*
G03*
X18681Y4890I-120J0D01*
G01*
X18181D02*
G03*
X18181Y4890I-120J0D01*
G01*
X17855D02*
G03*
X17855Y4890I-120J0D01*
G01*
X17528D02*
G03*
X17528Y4890I-120J0D01*
G01*
X17201D02*
G03*
X17201Y4890I-120J0D01*
G01*
X15767Y4090D02*
G03*
X15767Y4090I-120J0D01*
G01*
X16297Y5870D02*
G03*
X16297Y5870I-120J0D01*
G01*
X16487Y6050D02*
G03*
X16487Y6050I-120J0D01*
G01*
X16587Y5330D02*
G03*
X16587Y5330I-120J0D01*
G01*
X16757Y5520D02*
G03*
X16757Y5520I-120J0D01*
G01*
X19481Y4030D02*
G03*
X19481Y4030I-120J0D01*
G01*
X19751D02*
G03*
X19751Y4030I-120J0D01*
G01*
X21191Y6220D02*
G03*
X21191Y6220I-120J0D01*
G01*
X20151Y5520D02*
G03*
X20151Y5520I-120J0D01*
G01*
X20321Y5330D02*
G03*
X20321Y5330I-120J0D01*
G01*
X20421Y6050D02*
G03*
X20421Y6050I-120J0D01*
G01*
X20611Y5870D02*
G03*
X20611Y5870I-120J0D01*
G01*
X17071Y7410D02*
G03*
X17071Y7410I-120J0D01*
G01*
X16801D02*
G03*
X16801Y7410I-120J0D01*
G01*
X17671Y7530D02*
G03*
X17671Y7530I-120J0D01*
G01*
Y7800D02*
G03*
X17671Y7800I-120J0D01*
G01*
X15641Y7520D02*
G03*
X15641Y7520I-120J0D01*
G01*
X19291Y7510D02*
G03*
X19291Y7510I-120J0D01*
G01*
Y7790D02*
G03*
X19291Y7790I-120J0D01*
G01*
X17401Y4030D02*
G03*
X17401Y4030I-120J0D01*
G01*
X21141Y4090D02*
G03*
X21141Y4090I-120J0D01*
G01*
X17141Y4030D02*
G03*
X17141Y4030I-120J0D01*
G01*
X18635Y7600D02*
G03*
X18635Y7600I-120J0D01*
G01*
X18275D02*
G03*
X18275Y7600I-120J0D01*
G01*
X20551Y7680D02*
G03*
X20551Y7680I-120J0D01*
G01*
X18275Y7860D02*
G03*
X18275Y7860I-120J0D01*
G01*
X18635D02*
G03*
X18635Y7860I-120J0D01*
G01*
X27407Y7250D02*
G03*
X27407Y7250I-120J0D01*
G01*
X26887Y7350D02*
G03*
X26887Y7350I-120J0D01*
G01*
X27137Y7260D02*
G03*
X27137Y7260I-120J0D01*
G01*
X22447Y2990D02*
G03*
X22447Y2990I-120J0D01*
G01*
X22417Y6200D02*
G03*
X22417Y6200I-120J0D01*
G01*
X22687D02*
G03*
X22687Y6200I-120J0D01*
G01*
X25907Y6150D02*
G03*
X25907Y6150I-120J0D01*
G01*
X25227D02*
G03*
X25227Y6150I-120J0D01*
G01*
X26777Y4890D02*
G03*
X26777Y4890I-120J0D01*
G01*
X26441D02*
G03*
X26441Y4890I-120J0D01*
G01*
X26104D02*
G03*
X26104Y4890I-120J0D01*
G01*
X25767D02*
G03*
X25767Y4890I-120J0D01*
G01*
X25267D02*
G03*
X25267Y4890I-120J0D01*
G01*
X24941D02*
G03*
X24941Y4890I-120J0D01*
G01*
X24614D02*
G03*
X24614Y4890I-120J0D01*
G01*
X24287D02*
G03*
X24287Y4890I-120J0D01*
G01*
X22853Y4090D02*
G03*
X22853Y4090I-120J0D01*
G01*
X23383Y5870D02*
G03*
X23383Y5870I-120J0D01*
G01*
X23573Y6050D02*
G03*
X23573Y6050I-120J0D01*
G01*
X23673Y5330D02*
G03*
X23673Y5330I-120J0D01*
G01*
X23843Y5520D02*
G03*
X23843Y5520I-120J0D01*
G01*
X26567Y4030D02*
G03*
X26567Y4030I-120J0D01*
G01*
X26837D02*
G03*
X26837Y4030I-120J0D01*
G01*
X28277Y6220D02*
G03*
X28277Y6220I-120J0D01*
G01*
X27237Y5520D02*
G03*
X27237Y5520I-120J0D01*
G01*
X27407Y5330D02*
G03*
X27407Y5330I-120J0D01*
G01*
X27507Y6050D02*
G03*
X27507Y6050I-120J0D01*
G01*
X27697Y5870D02*
G03*
X27697Y5870I-120J0D01*
G01*
X24157Y7410D02*
G03*
X24157Y7410I-120J0D01*
G01*
X23887D02*
G03*
X23887Y7410I-120J0D01*
G01*
X24757Y7530D02*
G03*
X24757Y7530I-120J0D01*
G01*
Y7800D02*
G03*
X24757Y7800I-120J0D01*
G01*
X22727Y7540D02*
G03*
X22727Y7540I-120J0D01*
G01*
X26377Y7510D02*
G03*
X26377Y7510I-120J0D01*
G01*
Y7790D02*
G03*
X26377Y7790I-120J0D01*
G01*
X24487Y4030D02*
G03*
X24487Y4030I-120J0D01*
G01*
X28227Y4090D02*
G03*
X28227Y4090I-120J0D01*
G01*
X24227Y4030D02*
G03*
X24227Y4030I-120J0D01*
G01*
X25721Y7600D02*
G03*
X25721Y7600I-120J0D01*
G01*
X25361D02*
G03*
X25361Y7600I-120J0D01*
G01*
X27211Y9010D02*
G03*
X27211Y9010I-120J0D01*
G01*
X27637Y7680D02*
G03*
X27637Y7680I-120J0D01*
G01*
X25361Y7860D02*
G03*
X25361Y7860I-120J0D01*
G01*
X25721D02*
G03*
X25721Y7860I-120J0D01*
G01*
X34496Y7250D02*
G03*
X34496Y7250I-120J0D01*
G01*
X33976Y7350D02*
G03*
X33976Y7350I-120J0D01*
G01*
X34226Y7260D02*
G03*
X34226Y7260I-120J0D01*
G01*
X35716Y3010D02*
G03*
X35716Y3010I-120J0D01*
G01*
X29506Y6200D02*
G03*
X29506Y6200I-120J0D01*
G01*
X29776D02*
G03*
X29776Y6200I-120J0D01*
G01*
X32990Y6150D02*
G03*
X32990Y6150I-120J0D01*
G01*
X32316D02*
G03*
X32316Y6150I-120J0D01*
G01*
X33866Y4890D02*
G03*
X33866Y4890I-120J0D01*
G01*
X33529D02*
G03*
X33529Y4890I-120J0D01*
G01*
X33192D02*
G03*
X33192Y4890I-120J0D01*
G01*
X32856D02*
G03*
X32856Y4890I-120J0D01*
G01*
X32356D02*
G03*
X32356Y4890I-120J0D01*
G01*
X32029D02*
G03*
X32029Y4890I-120J0D01*
G01*
X31702D02*
G03*
X31702Y4890I-120J0D01*
G01*
X31376D02*
G03*
X31376Y4890I-120J0D01*
G01*
X29942Y4090D02*
G03*
X29942Y4090I-120J0D01*
G01*
X30472Y5870D02*
G03*
X30472Y5870I-120J0D01*
G01*
X30662Y6050D02*
G03*
X30662Y6050I-120J0D01*
G01*
X30762Y5330D02*
G03*
X30762Y5330I-120J0D01*
G01*
X30932Y5520D02*
G03*
X30932Y5520I-120J0D01*
G01*
X33656Y4030D02*
G03*
X33656Y4030I-120J0D01*
G01*
X33926D02*
G03*
X33926Y4030I-120J0D01*
G01*
X35366Y6220D02*
G03*
X35366Y6220I-120J0D01*
G01*
X34496Y5330D02*
G03*
X34496Y5330I-120J0D01*
G01*
X34596Y6050D02*
G03*
X34596Y6050I-120J0D01*
G01*
X34786Y5870D02*
G03*
X34786Y5870I-120J0D01*
G01*
X31246Y7410D02*
G03*
X31246Y7410I-120J0D01*
G01*
X30976D02*
G03*
X30976Y7410I-120J0D01*
G01*
X31846Y7530D02*
G03*
X31846Y7530I-120J0D01*
G01*
Y7800D02*
G03*
X31846Y7800I-120J0D01*
G01*
X29816Y7540D02*
G03*
X29816Y7540I-120J0D01*
G01*
X33466Y7510D02*
G03*
X33466Y7510I-120J0D01*
G01*
Y7790D02*
G03*
X33466Y7790I-120J0D01*
G01*
X31576Y4030D02*
G03*
X31576Y4030I-120J0D01*
G01*
X35316Y4090D02*
G03*
X35316Y4090I-120J0D01*
G01*
X31316Y4030D02*
G03*
X31316Y4030I-120J0D01*
G01*
X32450Y7600D02*
G03*
X32450Y7600I-120J0D01*
G01*
X34300Y9010D02*
G03*
X34300Y9010I-120J0D01*
G01*
X34726Y7680D02*
G03*
X34726Y7680I-120J0D01*
G01*
X32450Y7860D02*
G03*
X32450Y7860I-120J0D01*
G01*
X32810D02*
G03*
X32810Y7860I-120J0D01*
G01*
X640Y33320D02*
G03*
X640Y33320I-120J0D01*
G01*
X6261Y7250D02*
G03*
X6261Y7250I-120J0D01*
G01*
X5741Y7350D02*
G03*
X5741Y7350I-120J0D01*
G01*
X5991Y7260D02*
G03*
X5991Y7260I-120J0D01*
G01*
X7877Y3010D02*
G03*
X7877Y3010I-120J0D01*
G01*
X1271Y6200D02*
G03*
X1271Y6200I-120J0D01*
G01*
X7501Y6230D02*
G03*
X7501Y6230I-120J0D01*
G01*
X1541Y6200D02*
G03*
X1541Y6200I-120J0D01*
G01*
X4761Y6150D02*
G03*
X4761Y6150I-120J0D01*
G01*
X4081D02*
G03*
X4081Y6150I-120J0D01*
G01*
X5631Y4890D02*
G03*
X5631Y4890I-120J0D01*
G01*
X5295D02*
G03*
X5295Y4890I-120J0D01*
G01*
X4958D02*
G03*
X4958Y4890I-120J0D01*
G01*
X4621D02*
G03*
X4621Y4890I-120J0D01*
G01*
X4121D02*
G03*
X4121Y4890I-120J0D01*
G01*
X3795D02*
G03*
X3795Y4890I-120J0D01*
G01*
X3468D02*
G03*
X3468Y4890I-120J0D01*
G01*
X3141D02*
G03*
X3141Y4890I-120J0D01*
G01*
X2237Y5870D02*
G03*
X2237Y5870I-120J0D01*
G01*
X2427Y6050D02*
G03*
X2427Y6050I-120J0D01*
G01*
X2527Y5330D02*
G03*
X2527Y5330I-120J0D01*
G01*
X2697Y5520D02*
G03*
X2697Y5520I-120J0D01*
G01*
X5815Y4030D02*
G03*
X5815Y4030I-120J0D01*
G01*
X6085D02*
G03*
X6085Y4030I-120J0D01*
G01*
X7231Y6220D02*
G03*
X7231Y6220I-120J0D01*
G01*
X6261Y5330D02*
G03*
X6261Y5330I-120J0D01*
G01*
X6361Y6050D02*
G03*
X6361Y6050I-120J0D01*
G01*
X6551Y5870D02*
G03*
X6551Y5870I-120J0D01*
G01*
X3011Y7410D02*
G03*
X3011Y7410I-120J0D01*
G01*
X2741D02*
G03*
X2741Y7410I-120J0D01*
G01*
X3611Y7530D02*
G03*
X3611Y7530I-120J0D01*
G01*
Y7800D02*
G03*
X3611Y7800I-120J0D01*
G01*
X1581Y7540D02*
G03*
X1581Y7540I-120J0D01*
G01*
X5231Y7510D02*
G03*
X5231Y7510I-120J0D01*
G01*
Y7790D02*
G03*
X5231Y7790I-120J0D01*
G01*
X3735Y4030D02*
G03*
X3735Y4030I-120J0D01*
G01*
X3475D02*
G03*
X3475Y4030I-120J0D01*
G01*
X4576Y7600D02*
G03*
X4576Y7600I-120J0D01*
G01*
X4216D02*
G03*
X4216Y7600I-120J0D01*
G01*
X6491Y7680D02*
G03*
X6491Y7680I-120J0D01*
G01*
X4216Y7860D02*
G03*
X4216Y7860I-120J0D01*
G01*
X4576D02*
G03*
X4576Y7860I-120J0D01*
G01*
X28660Y2990D02*
G03*
X28660Y2990I-120J0D01*
G01*
X29600Y3040D02*
G03*
X29600Y3040I-120J0D01*
G01*
X5170Y12060D02*
G03*
X5170Y12060I-120J0D01*
G01*
X34379Y9590D02*
G03*
X34379Y9590I-120J0D01*
G01*
Y10090D02*
G03*
X34379Y10090I-120J0D01*
G01*
X30879Y9590D02*
G03*
X30879Y9590I-120J0D01*
G01*
X31129Y9090D02*
G03*
X31129Y9090I-120J0D01*
G01*
X23040Y10340D02*
G03*
X23040Y10340I-120J0D01*
G01*
Y9590D02*
G03*
X23040Y9590I-120J0D01*
G01*
X24040Y9090D02*
G03*
X24040Y9090I-120J0D01*
G01*
X23790Y9590D02*
G03*
X23790Y9590I-120J0D01*
G01*
X27290Y10090D02*
G03*
X27290Y10090I-120J0D01*
G01*
Y9590D02*
G03*
X27290Y9590I-120J0D01*
G01*
X16954Y9090D02*
G03*
X16954Y9090I-120J0D01*
G01*
X16704Y9590D02*
G03*
X16704Y9590I-120J0D01*
G01*
X20204Y10090D02*
G03*
X20204Y10090I-120J0D01*
G01*
Y9590D02*
G03*
X20204Y9590I-120J0D01*
G01*
X8863Y10340D02*
G03*
X8863Y10340I-120J0D01*
G01*
Y9590D02*
G03*
X8863Y9590I-120J0D01*
G01*
X9863Y9090D02*
G03*
X9863Y9090I-120J0D01*
G01*
X9613Y9590D02*
G03*
X9613Y9590I-120J0D01*
G01*
X13113Y10090D02*
G03*
X13113Y10090I-120J0D01*
G01*
Y9590D02*
G03*
X13113Y9590I-120J0D01*
G01*
X13034Y9010D02*
G03*
X13034Y9010I-120J0D01*
G01*
X1144Y7840D02*
G03*
X1144Y7840I-120J0D01*
G01*
Y8840D02*
G03*
X1144Y8840I-120J0D01*
G01*
Y9590D02*
G03*
X1144Y9590I-120J0D01*
G01*
Y10340D02*
G03*
X1144Y10340I-120J0D01*
G01*
X1890Y10320D02*
G03*
X1890Y10320I-120J0D01*
G01*
X1894Y9590D02*
G03*
X1894Y9590I-120J0D01*
G01*
X2894Y9090D02*
G03*
X2894Y9090I-120J0D01*
G01*
X2644Y9590D02*
G03*
X2644Y9590I-120J0D01*
G01*
X6144Y10090D02*
G03*
X6144Y10090I-120J0D01*
G01*
Y9590D02*
G03*
X6144Y9590I-120J0D01*
G01*
X2894Y12590D02*
G03*
X2894Y12590I-120J0D01*
G01*
X8863Y11090D02*
G03*
X8863Y11090I-120J0D01*
G01*
X1163Y3465D02*
G03*
X1163Y3465I-120J0D01*
G01*
X1200Y29460D02*
G03*
X1200Y29460I-120J0D01*
G01*
X19700Y29210D02*
G03*
X19700Y29210I-120J0D01*
G01*
X18710Y29230D02*
G03*
X18710Y29230I-120J0D01*
G01*
X18210Y29190D02*
G03*
X18210Y29190I-120J0D01*
G01*
X18960Y30110D02*
G03*
X18960Y30110I-120J0D01*
G01*
X22222Y31710D02*
G03*
X22222Y31710I-120J0D01*
G01*
X21310Y32290D02*
G03*
X21310Y32290I-120J0D01*
G01*
X20440Y31340D02*
G03*
X20440Y31340I-120J0D01*
G01*
X20060Y31350D02*
G03*
X20060Y31350I-120J0D01*
G01*
X16860Y25000D02*
G03*
X16860Y25000I-120J0D01*
G01*
X16310Y24590D02*
G03*
X16310Y24590I-120J0D01*
G01*
X15970Y24250D02*
G03*
X15970Y24250I-120J0D01*
G01*
X15340Y23540D02*
G03*
X15340Y23540I-120J0D01*
G01*
X15760Y23660D02*
G03*
X15760Y23660I-120J0D01*
G01*
X18970Y25070D02*
G03*
X18970Y25070I-120J0D01*
G01*
X13250Y23520D02*
G03*
X13250Y23520I-120J0D01*
G01*
X21920Y16060D02*
G03*
X21920Y16060I-120J0D01*
G01*
X29790Y14150D02*
G03*
X29790Y14150I-120J0D01*
G01*
X31880Y15050D02*
G03*
X31880Y15050I-120J0D01*
G01*
X21630Y18160D02*
G03*
X21630Y18160I-120J0D01*
G01*
X21770Y22150D02*
G03*
X21770Y22150I-120J0D01*
G01*
X13190Y19520D02*
G03*
X13190Y19520I-120J0D01*
G01*
X13150Y19890D02*
G03*
X13150Y19890I-120J0D01*
G01*
X13630Y20700D02*
G03*
X13630Y20700I-120J0D01*
G01*
X18480Y25040D02*
G03*
X18480Y25040I-120J0D01*
G01*
X17910Y27580D02*
G03*
X17910Y27580I-120J0D01*
G01*
X20680Y29580D02*
G03*
X20680Y29580I-120J0D01*
G01*
X30900Y37240D02*
G03*
X30900Y37240I-120J0D01*
G01*
X7270Y20200D02*
G03*
X7270Y20200I-120J0D01*
G01*
X21930Y24210D02*
G03*
X21930Y24210I-120J0D01*
G01*
X21980Y24670D02*
G03*
X21980Y24670I-120J0D01*
G01*
X21650Y24850D02*
G03*
X21650Y24850I-120J0D01*
G01*
X20900Y24710D02*
G03*
X20900Y24710I-120J0D01*
G01*
X20870Y24350D02*
G03*
X20870Y24350I-120J0D01*
G01*
X13560Y21210D02*
G03*
X13560Y21210I-120J0D01*
G01*
X16550Y18010D02*
G03*
X16550Y18010I-120J0D01*
G01*
X16830Y18250D02*
G03*
X16830Y18250I-120J0D01*
G01*
X17100Y18490D02*
G03*
X17100Y18490I-120J0D01*
G01*
X17340Y18760D02*
G03*
X17340Y18760I-120J0D01*
G01*
X11670Y15900D02*
G03*
X11670Y15900I-120J0D01*
G01*
X12610Y16220D02*
G03*
X12610Y16220I-120J0D01*
G01*
X12190Y15770D02*
G03*
X12190Y15770I-120J0D01*
G01*
X8200Y12270D02*
G03*
X8200Y12270I-120J0D01*
G01*
X6270Y17630D02*
G03*
X6270Y17630I-120J0D01*
G01*
X7150Y19640D02*
G03*
X7150Y19640I-120J0D01*
G01*
X7410Y17060D02*
G03*
X7410Y17060I-120J0D01*
G01*
X15330Y20580D02*
G03*
X15330Y20580I-120J0D01*
G01*
X14170Y21400D02*
G03*
X14170Y21400I-120J0D01*
G01*
X13840Y22230D02*
G03*
X13840Y22230I-120J0D01*
G01*
X8660Y19960D02*
G03*
X8660Y19960I-120J0D01*
G01*
X6830Y20660D02*
G03*
X6830Y20660I-120J0D01*
G01*
X17620Y19020D02*
G03*
X17620Y19020I-120J0D01*
G01*
X12110Y23520D02*
G03*
X12110Y23520I-120J0D01*
G01*
X13200Y22370D02*
G03*
X13200Y22370I-120J0D01*
G01*
X12780Y19940D02*
G03*
X12780Y19940I-120J0D01*
G01*
X13490Y19260D02*
G03*
X13490Y19260I-120J0D01*
G01*
X9980Y23130D02*
G03*
X9980Y23130I-120J0D01*
G01*
X15930Y21720D02*
G03*
X15930Y21720I-120J0D01*
G01*
X3380Y28390D02*
G03*
X3380Y28390I-120J0D01*
G01*
X3210Y27790D02*
G03*
X3210Y27790I-120J0D01*
G01*
X3680Y26450D02*
G03*
X3680Y26450I-120J0D01*
G01*
X3670Y25560D02*
G03*
X3670Y25560I-120J0D01*
G01*
X600Y26620D02*
G03*
X600Y26620I-120J0D01*
G01*
X3120Y26510D02*
G03*
X3120Y26510I-120J0D01*
G01*
X4260Y25910D02*
G03*
X4260Y25910I-120J0D01*
G01*
X4280Y26280D02*
G03*
X4280Y26280I-120J0D01*
G01*
X4310Y25540D02*
G03*
X4310Y25540I-120J0D01*
G01*
X11960Y25000D02*
G03*
X11960Y25000I-120J0D01*
G01*
X5670Y26750D02*
G03*
X5670Y26750I-120J0D01*
G01*
X4980Y27930D02*
G03*
X4980Y27930I-120J0D01*
G01*
X4960Y27020D02*
G03*
X4960Y27020I-120J0D01*
G01*
X6630Y28650D02*
G03*
X6630Y28650I-120J0D01*
G01*
X5670Y28180D02*
G03*
X5670Y28180I-120J0D01*
G01*
X12590Y27520D02*
G03*
X12590Y27520I-120J0D01*
G01*
X11250Y24350D02*
G03*
X11250Y24350I-120J0D01*
G01*
X11260Y29410D02*
G03*
X11260Y29410I-120J0D01*
G01*
X7590Y22680D02*
G03*
X7590Y22680I-120J0D01*
G01*
X6620Y30070D02*
G03*
X6620Y30070I-120J0D01*
G01*
X12730Y29970D02*
G03*
X12730Y29970I-120J0D01*
G01*
X5940Y29210D02*
G03*
X5940Y29210I-120J0D01*
G01*
X5230Y21310D02*
G03*
X5230Y21310I-120J0D01*
G01*
X11530Y23910D02*
G03*
X11530Y23910I-120J0D01*
G01*
X16940Y24550D02*
G03*
X16940Y24550I-120J0D01*
G01*
X21760Y23260D02*
G03*
X21760Y23260I-120J0D01*
G01*
X19900Y18270D02*
G03*
X19900Y18270I-120J0D01*
G01*
X15700Y19420D02*
G03*
X15700Y19420I-120J0D01*
G01*
X16330Y19030D02*
G03*
X16330Y19030I-120J0D01*
G01*
X16230Y20540D02*
G03*
X16230Y20540I-120J0D01*
G01*
X15970Y22190D02*
G03*
X15970Y22190I-120J0D01*
G01*
X15420Y22170D02*
G03*
X15420Y22170I-120J0D01*
G01*
X15510Y20930D02*
G03*
X15510Y20930I-120J0D01*
G01*
X19030Y24660D02*
G03*
X19030Y24660I-120J0D01*
G01*
X22210Y18030D02*
G03*
X22210Y18030I-120J0D01*
G01*
X15690Y24020D02*
G03*
X15690Y24020I-120J0D01*
G01*
X18730Y22140D02*
G03*
X18730Y22140I-120J0D01*
G01*
X17520Y31680D02*
G03*
X17520Y31680I-120J0D01*
G01*
X16110Y31590D02*
G03*
X16110Y31590I-120J0D01*
G01*
X15780Y31330D02*
G03*
X15780Y31330I-120J0D01*
G01*
X15570Y31000D02*
G03*
X15570Y31000I-120J0D01*
G01*
X20080Y30070D02*
G03*
X20080Y30070I-120J0D01*
G01*
X17370Y30100D02*
G03*
X17370Y30100I-120J0D01*
G01*
X18590Y27560D02*
G03*
X18590Y27560I-120J0D01*
G01*
X19210Y29220D02*
G03*
X19210Y29220I-120J0D01*
G01*
X17130Y28140D02*
G03*
X17130Y28140I-120J0D01*
G01*
X17380Y27000D02*
G03*
X17380Y27000I-120J0D01*
G01*
X16280Y26530D02*
G03*
X16280Y26530I-120J0D01*
G01*
X15910D02*
G03*
X15910Y26530I-120J0D01*
G01*
X13770Y26970D02*
G03*
X13770Y26970I-120J0D01*
G01*
X14410Y26680D02*
G03*
X14410Y26680I-120J0D01*
G01*
X9530Y29990D02*
G03*
X9530Y29990I-120J0D01*
G01*
X8500Y23690D02*
G03*
X8500Y23690I-120J0D01*
G01*
X34430Y35345D02*
G03*
X34430Y35345I-120J0D01*
G01*
X35520D02*
G03*
X35520Y35345I-120J0D01*
G01*
X36490D02*
G03*
X36490Y35345I-120J0D01*
G01*
X37670D02*
G03*
X37670Y35345I-120J0D01*
G01*
X34360Y27950D02*
G03*
X34360Y27950I-120J0D01*
G01*
X37270D02*
G03*
X37270Y27950I-120J0D01*
G01*
X36370D02*
G03*
X36370Y27950I-120J0D01*
G01*
X7240Y7480D02*
G03*
X7240Y7480I-120J0D01*
G01*
X21460Y6220D02*
G03*
X21460Y6220I-120J0D01*
G01*
X14370D02*
G03*
X14370Y6220I-120J0D01*
G01*
X28550D02*
G03*
X28550Y6220I-120J0D01*
G01*
X35630D02*
G03*
X35630Y6220I-120J0D01*
G01*
X1870Y9000D02*
G03*
X1870Y9000I-120J0D01*
G01*
X6870D02*
G03*
X6870Y9000I-120J0D01*
G01*
Y9750D02*
G03*
X6870Y9750I-120J0D01*
G01*
Y10500D02*
G03*
X6870Y10500I-120J0D01*
G01*
Y11250D02*
G03*
X6870Y11250I-120J0D01*
G01*
Y12000D02*
G03*
X6870Y12000I-120J0D01*
G01*
X13870Y9000D02*
G03*
X13870Y9000I-120J0D01*
G01*
Y9750D02*
G03*
X13870Y9750I-120J0D01*
G01*
Y10500D02*
G03*
X13870Y10500I-120J0D01*
G01*
Y11250D02*
G03*
X13870Y11250I-120J0D01*
G01*
Y12000D02*
G03*
X13870Y12000I-120J0D01*
G01*
X16120Y9000D02*
G03*
X16120Y9000I-120J0D01*
G01*
Y9750D02*
G03*
X16120Y9750I-120J0D01*
G01*
Y10500D02*
G03*
X16120Y10500I-120J0D01*
G01*
Y11250D02*
G03*
X16120Y11250I-120J0D01*
G01*
X15620Y12250D02*
G03*
X15620Y12250I-120J0D01*
G01*
X22870Y11250D02*
G03*
X22870Y11250I-120J0D01*
G01*
Y9000D02*
G03*
X22870Y9000I-120J0D01*
G01*
X20870D02*
G03*
X20870Y9000I-120J0D01*
G01*
Y9750D02*
G03*
X20870Y9750I-120J0D01*
G01*
Y10500D02*
G03*
X20870Y10500I-120J0D01*
G01*
Y11250D02*
G03*
X20870Y11250I-120J0D01*
G01*
Y12000D02*
G03*
X20870Y12000I-120J0D01*
G01*
X21620Y12250D02*
G03*
X21620Y12250I-120J0D01*
G01*
X27870Y9000D02*
G03*
X27870Y9000I-120J0D01*
G01*
Y9750D02*
G03*
X27870Y9750I-120J0D01*
G01*
Y10500D02*
G03*
X27870Y10500I-120J0D01*
G01*
Y11250D02*
G03*
X27870Y11250I-120J0D01*
G01*
X30120Y9000D02*
G03*
X30120Y9000I-120J0D01*
G01*
Y9750D02*
G03*
X30120Y9750I-120J0D01*
G01*
Y10500D02*
G03*
X30120Y10500I-120J0D01*
G01*
Y11250D02*
G03*
X30120Y11250I-120J0D01*
G01*
X29790Y11630D02*
G03*
X29790Y11630I-120J0D01*
G01*
X35120Y9000D02*
G03*
X35120Y9000I-120J0D01*
G01*
Y9750D02*
G03*
X35120Y9750I-120J0D01*
G01*
Y10500D02*
G03*
X35120Y10500I-120J0D01*
G01*
Y11250D02*
G03*
X35120Y11250I-120J0D01*
G01*
Y12000D02*
G03*
X35120Y12000I-120J0D01*
G01*
X35370Y12750D02*
G03*
X35370Y12750I-120J0D01*
G01*
X6230Y39660D02*
G03*
X6230Y39660I-120J0D01*
G01*
X6120Y37260D02*
G03*
X6120Y37260I-120J0D01*
G01*
X7640Y38650D02*
G03*
X7640Y38650I-120J0D01*
G01*
X6930Y37560D02*
G03*
X6930Y37560I-120J0D01*
G01*
X6160Y38650D02*
G03*
X6160Y38650I-120J0D01*
G01*
X40070Y4200D02*
G03*
X40070Y4200I-120J0D01*
G01*
X38590Y5060D02*
G03*
X38590Y5060I-120J0D01*
G01*
X38660Y8170D02*
G03*
X38660Y8170I-120J0D01*
G01*
X39060Y8840D02*
G03*
X39060Y8840I-120J0D01*
G01*
Y9380D02*
G03*
X39060Y9380I-120J0D01*
G01*
X39370Y10050D02*
G03*
X39370Y10050I-120J0D01*
G01*
X40040Y8440D02*
G03*
X40040Y8440I-120J0D01*
G01*
X40070Y10860D02*
G03*
X40070Y10860I-120J0D01*
G01*
X5040Y25910D02*
G03*
X5040Y25910I-120J0D01*
G01*
X38968Y35344D02*
G03*
X38968Y35344I-120J0D01*
G01*
X8112Y16841D02*
G03*
X8112Y16841I-120J0D01*
G01*
X7856Y16476D02*
G03*
X7856Y16476I-120J0D01*
G01*
X14292Y4194D02*
G03*
X14292Y4194I-120J0D01*
G01*
X12955Y4030D02*
G03*
X12955Y4030I-120J0D01*
G01*
X8968Y4055D02*
G03*
X8968Y4055I-120J0D01*
G01*
X7323Y4194D02*
G03*
X7323Y4194I-120J0D01*
G01*
X8565Y2943D02*
G03*
X8565Y2943I-120J0D01*
G01*
X6091Y5520D02*
G03*
X6091Y5520I-120J0D01*
G01*
X1970Y4075D02*
G03*
X1970Y4075I-120J0D01*
G01*
X1833Y3711D02*
G03*
X1833Y3711I-120J0D01*
G01*
X2010Y3524D02*
G03*
X2010Y3524I-120J0D01*
G01*
X3528Y9157D02*
G03*
X3528Y9157I-120J0D01*
G01*
Y9590D02*
G03*
X3528Y9590I-120J0D01*
G01*
Y10023D02*
G03*
X3528Y10023I-120J0D01*
G01*
X3961Y9157D02*
G03*
X3961Y9157I-120J0D01*
G01*
Y9590D02*
G03*
X3961Y9590I-120J0D01*
G01*
Y10023D02*
G03*
X3961Y10023I-120J0D01*
G01*
X4394Y9157D02*
G03*
X4394Y9157I-120J0D01*
G01*
Y9590D02*
G03*
X4394Y9590I-120J0D01*
G01*
Y10023D02*
G03*
X4394Y10023I-120J0D01*
G01*
X4827Y9157D02*
G03*
X4827Y9157I-120J0D01*
G01*
Y9590D02*
G03*
X4827Y9590I-120J0D01*
G01*
Y10023D02*
G03*
X4827Y10023I-120J0D01*
G01*
X5261Y9157D02*
G03*
X5261Y9157I-120J0D01*
G01*
Y9590D02*
G03*
X5261Y9590I-120J0D01*
G01*
Y10023D02*
G03*
X5261Y10023I-120J0D01*
G01*
X17588Y9157D02*
G03*
X17588Y9157I-120J0D01*
G01*
Y9590D02*
G03*
X17588Y9590I-120J0D01*
G01*
Y10023D02*
G03*
X17588Y10023I-120J0D01*
G01*
X18021Y9157D02*
G03*
X18021Y9157I-120J0D01*
G01*
Y9590D02*
G03*
X18021Y9590I-120J0D01*
G01*
Y10023D02*
G03*
X18021Y10023I-120J0D01*
G01*
X18454Y9157D02*
G03*
X18454Y9157I-120J0D01*
G01*
Y9590D02*
G03*
X18454Y9590I-120J0D01*
G01*
Y10023D02*
G03*
X18454Y10023I-120J0D01*
G01*
X18887Y9157D02*
G03*
X18887Y9157I-120J0D01*
G01*
Y9590D02*
G03*
X18887Y9590I-120J0D01*
G01*
Y10023D02*
G03*
X18887Y10023I-120J0D01*
G01*
X19320Y9157D02*
G03*
X19320Y9157I-120J0D01*
G01*
Y9590D02*
G03*
X19320Y9590I-120J0D01*
G01*
Y10023D02*
G03*
X19320Y10023I-120J0D01*
G01*
X10497Y9157D02*
G03*
X10497Y9157I-120J0D01*
G01*
Y9590D02*
G03*
X10497Y9590I-120J0D01*
G01*
Y10023D02*
G03*
X10497Y10023I-120J0D01*
G01*
X10930Y9157D02*
G03*
X10930Y9157I-120J0D01*
G01*
Y9590D02*
G03*
X10930Y9590I-120J0D01*
G01*
Y10023D02*
G03*
X10930Y10023I-120J0D01*
G01*
X11363Y9157D02*
G03*
X11363Y9157I-120J0D01*
G01*
Y9590D02*
G03*
X11363Y9590I-120J0D01*
G01*
Y10023D02*
G03*
X11363Y10023I-120J0D01*
G01*
X11796Y9157D02*
G03*
X11796Y9157I-120J0D01*
G01*
Y9590D02*
G03*
X11796Y9590I-120J0D01*
G01*
Y10023D02*
G03*
X11796Y10023I-120J0D01*
G01*
X12229Y9157D02*
G03*
X12229Y9157I-120J0D01*
G01*
Y9590D02*
G03*
X12229Y9590I-120J0D01*
G01*
Y10023D02*
G03*
X12229Y10023I-120J0D01*
G01*
X24674Y9157D02*
G03*
X24674Y9157I-120J0D01*
G01*
Y9590D02*
G03*
X24674Y9590I-120J0D01*
G01*
Y10023D02*
G03*
X24674Y10023I-120J0D01*
G01*
X25107Y9157D02*
G03*
X25107Y9157I-120J0D01*
G01*
Y9590D02*
G03*
X25107Y9590I-120J0D01*
G01*
Y10023D02*
G03*
X25107Y10023I-120J0D01*
G01*
X25540Y9157D02*
G03*
X25540Y9157I-120J0D01*
G01*
Y9590D02*
G03*
X25540Y9590I-120J0D01*
G01*
Y10023D02*
G03*
X25540Y10023I-120J0D01*
G01*
X25973Y9157D02*
G03*
X25973Y9157I-120J0D01*
G01*
Y9590D02*
G03*
X25973Y9590I-120J0D01*
G01*
Y10023D02*
G03*
X25973Y10023I-120J0D01*
G01*
X26406Y9157D02*
G03*
X26406Y9157I-120J0D01*
G01*
Y9590D02*
G03*
X26406Y9590I-120J0D01*
G01*
Y10023D02*
G03*
X26406Y10023I-120J0D01*
G01*
X31763Y9157D02*
G03*
X31763Y9157I-120J0D01*
G01*
Y9590D02*
G03*
X31763Y9590I-120J0D01*
G01*
Y10023D02*
G03*
X31763Y10023I-120J0D01*
G01*
X32196Y9157D02*
G03*
X32196Y9157I-120J0D01*
G01*
Y9590D02*
G03*
X32196Y9590I-120J0D01*
G01*
Y10023D02*
G03*
X32196Y10023I-120J0D01*
G01*
X32629Y9157D02*
G03*
X32629Y9157I-120J0D01*
G01*
Y9590D02*
G03*
X32629Y9590I-120J0D01*
G01*
Y10023D02*
G03*
X32629Y10023I-120J0D01*
G01*
X33062Y9157D02*
G03*
X33062Y9157I-120J0D01*
G01*
Y9590D02*
G03*
X33062Y9590I-120J0D01*
G01*
Y10023D02*
G03*
X33062Y10023I-120J0D01*
G01*
X33495Y9157D02*
G03*
X33495Y9157I-120J0D01*
G01*
Y9590D02*
G03*
X33495Y9590I-120J0D01*
G01*
Y10023D02*
G03*
X33495Y10023I-120J0D01*
G01*
X38024Y33435D02*
G03*
X38024Y33435I-120J0D01*
G01*
D120*
X1280Y11490D02*
Y11890D01*
X1680D01*
Y11490D01*
X1280D01*
X39180Y4350D02*
X38980Y4750D01*
X39380D01*
X39180Y4350D01*
Y5350D02*
X38980Y5750D01*
X39380D01*
X39180Y5350D01*
Y6350D02*
X38980Y6750D01*
X39380D01*
X39180Y6350D01*
Y7350D02*
X38980Y7750D01*
X39380D01*
X39180Y7350D01*
X38950Y23625D02*
X39050Y23725D01*
X39150D01*
X39050Y23825D01*
X39150Y23925D01*
X39050D01*
X38950Y24025D01*
X38850Y23925D01*
X38750D01*
X38850Y23825D01*
X38750Y23725D01*
X38850D01*
X38950Y23625D01*
Y25625D02*
X39050Y25725D01*
X39150D01*
X39050Y25825D01*
X39150Y25925D01*
X39050D01*
X38950Y26025D01*
X38850Y25925D01*
X38750D01*
X38850Y25825D01*
X38750Y25725D01*
X38850D01*
X38950Y25625D01*
Y27625D02*
X39050Y27725D01*
X39150D01*
X39050Y27825D01*
X39150Y27925D01*
X39050D01*
X38950Y28025D01*
X38850Y27925D01*
X38750D01*
X38850Y27825D01*
X38750Y27725D01*
X38850D01*
X38950Y27625D01*
Y33625D02*
X39050Y33725D01*
X39150D01*
X39050Y33825D01*
X39150Y33925D01*
X39050D01*
X38950Y34025D01*
X38850Y33925D01*
X38750D01*
X38850Y33825D01*
X38750Y33725D01*
X38850D01*
X38950Y33625D01*
Y31625D02*
X39050Y31725D01*
X39150D01*
X39050Y31825D01*
X39150Y31925D01*
X39050D01*
X38950Y32025D01*
X38850Y31925D01*
X38750D01*
X38850Y31825D01*
X38750Y31725D01*
X38850D01*
X38950Y31625D01*
Y29625D02*
X39050Y29725D01*
X39150D01*
X39050Y29825D01*
X39150Y29925D01*
X39050D01*
X38950Y30025D01*
X38850Y29925D01*
X38750D01*
X38850Y29825D01*
X38750Y29725D01*
X38850D01*
X38950Y29625D01*
X860Y32040D02*
X660Y32440D01*
X1060D01*
X860Y32040D01*
Y30260D02*
X660Y30660D01*
X1060D01*
X860Y30260D01*
X1640Y32530D02*
X1740Y32730D01*
X1640Y32930D01*
X1840Y32830D01*
X2040Y32930D01*
X1940Y32730D01*
X2040Y32530D01*
X1840Y32630D01*
X1640Y32530D01*
Y29770D02*
X1740Y29970D01*
X1640Y30170D01*
X1840Y30070D01*
X2040Y30170D01*
X1940Y29970D01*
X2040Y29770D01*
X1840Y29870D01*
X1640Y29770D01*
X33450Y1250D02*
X33250Y1650D01*
X33650D01*
X33450Y1250D01*
X34450D02*
X34250Y1650D01*
X34650D01*
X34450Y1250D01*
X35450D02*
X35250Y1650D01*
X35650D01*
X35450Y1250D01*
X36450D02*
X36250Y1650D01*
X36650D01*
X36450Y1250D01*
X27500D02*
X27300Y1650D01*
X27700D01*
X27500Y1250D01*
X28500D02*
X28300Y1650D01*
X28700D01*
X28500Y1250D01*
X29500D02*
X29300Y1650D01*
X29700D01*
X29500Y1250D01*
X30500D02*
X30300Y1650D01*
X30700D01*
X30500Y1250D01*
X10450D02*
X10250Y1650D01*
X10650D01*
X10450Y1250D01*
X11450D02*
X11250Y1650D01*
X11650D01*
X11450Y1250D01*
X12450D02*
X12250Y1650D01*
X12650D01*
X12450Y1250D01*
X13450D02*
X13250Y1650D01*
X13650D01*
X13450Y1250D01*
X4550D02*
X4350Y1650D01*
X4750D01*
X4550Y1250D01*
X5550D02*
X5350Y1650D01*
X5750D01*
X5550Y1250D01*
X6550D02*
X6350Y1650D01*
X6750D01*
X6550Y1250D01*
X7550D02*
X7350Y1650D01*
X7750D01*
X7550Y1250D01*
X36150Y14350D02*
X35950Y14750D01*
X36350D01*
X36150Y14350D01*
X35150D02*
X34950Y14750D01*
X35350D01*
X35150Y14350D01*
X34150D02*
X33950Y14750D01*
X34350D01*
X34150Y14350D01*
X33150D02*
X32950Y14750D01*
X33350D01*
X33150Y14350D01*
X4260Y22400D02*
Y22300D01*
X4460D01*
Y22400D01*
X4560D01*
Y22600D01*
X4460D01*
Y22700D01*
X4260D01*
Y22600D01*
X4160D01*
Y22400D01*
X4260D01*
Y23392D02*
Y23292D01*
X4460D01*
Y23392D01*
X4560D01*
Y23592D01*
X4460D01*
Y23692D01*
X4260D01*
Y23592D01*
X4160D01*
Y23392D01*
X4260D01*
X3470D02*
Y23292D01*
X3670D01*
Y23392D01*
X3770D01*
Y23592D01*
X3670D01*
Y23692D01*
X3470D01*
Y23592D01*
X3370D01*
Y23392D01*
X3470D01*
Y22400D02*
Y22300D01*
X3670D01*
Y22400D01*
X3770D01*
Y22600D01*
X3670D01*
Y22700D01*
X3470D01*
Y22600D01*
X3370D01*
Y22400D01*
X3470D01*
X2300Y25162D02*
X2400D01*
X2500Y25262D01*
X2600Y25162D01*
X2700D01*
Y25262D01*
X2600Y25362D01*
X2700Y25462D01*
Y25562D01*
X2600D01*
X2500Y25462D01*
X2400Y25562D01*
X2300D01*
Y25462D01*
X2400Y25362D01*
X2300Y25262D01*
Y25162D01*
Y20430D02*
X2400D01*
X2500Y20530D01*
X2600Y20430D01*
X2700D01*
Y20530D01*
X2600Y20630D01*
X2700Y20730D01*
Y20830D01*
X2600D01*
X2500Y20730D01*
X2400Y20830D01*
X2300D01*
Y20730D01*
X2400Y20630D01*
X2300Y20530D01*
Y20430D01*
X36580Y18430D02*
X36380Y18830D01*
X36780D01*
X36580Y18430D01*
X35580D02*
X35380Y18830D01*
X35780D01*
X35580Y18430D01*
X33450D02*
X33250Y18830D01*
X33650D01*
X33450Y18430D01*
X32450D02*
X32250Y18830D01*
X32650D01*
X32450Y18430D01*
X30300D02*
X30100Y18830D01*
X30500D01*
X30300Y18430D01*
X29300D02*
X29100Y18830D01*
X29500D01*
X29300Y18430D01*
X27130D02*
X26930Y18830D01*
X27330D01*
X27130Y18430D01*
X26130D02*
X25930Y18830D01*
X26330D01*
X26130Y18430D01*
X19500Y1250D02*
X19300Y1650D01*
X19700D01*
X19500Y1250D01*
X18500D02*
X18300Y1650D01*
X18700D01*
X18500Y1250D01*
X17500D02*
X17300Y1650D01*
X17700D01*
X17500Y1250D01*
X16500D02*
X16300Y1650D01*
X16700D01*
X16500Y1250D01*
X24600D02*
X24400Y1650D01*
X24800D01*
X24600Y1250D01*
X23600D02*
X23400Y1650D01*
X23800D01*
X23600Y1250D01*
X22600D02*
X22400Y1650D01*
X22800D01*
X22600Y1250D01*
X21600D02*
X21400Y1650D01*
X21800D01*
X21600Y1250D01*
X22800Y38420D02*
X22900Y38520D01*
X23000D01*
X22900Y38620D01*
X23000Y38720D01*
X22900D01*
X22800Y38820D01*
X22700Y38720D01*
X22600D01*
X22700Y38620D01*
X22600Y38520D01*
X22700D01*
X22800Y38420D01*
X20800D02*
X20900Y38520D01*
X21000D01*
X20900Y38620D01*
X21000Y38720D01*
X20900D01*
X20800Y38820D01*
X20700Y38720D01*
X20600D01*
X20700Y38620D01*
X20600Y38520D01*
X20700D01*
X20800Y38420D01*
X18800D02*
X18900Y38520D01*
X19000D01*
X18900Y38620D01*
X19000Y38720D01*
X18900D01*
X18800Y38820D01*
X18700Y38720D01*
X18600D01*
X18700Y38620D01*
X18600Y38520D01*
X18700D01*
X18800Y38420D01*
X16800D02*
X16900Y38520D01*
X17000D01*
X16900Y38620D01*
X17000Y38720D01*
X16900D01*
X16800Y38820D01*
X16700Y38720D01*
X16600D01*
X16700Y38620D01*
X16600Y38520D01*
X16700D01*
X16800Y38420D01*
X14800D02*
X14900Y38520D01*
X15000D01*
X14900Y38620D01*
X15000Y38720D01*
X14900D01*
X14800Y38820D01*
X14700Y38720D01*
X14600D01*
X14700Y38620D01*
X14600Y38520D01*
X14700D01*
X14800Y38420D01*
X12800D02*
X12900Y38520D01*
X13000D01*
X12900Y38620D01*
X13000Y38720D01*
X12900D01*
X12800Y38820D01*
X12700Y38720D01*
X12600D01*
X12700Y38620D01*
X12600Y38520D01*
X12700D01*
X12800Y38420D01*
X10800D02*
X10900Y38520D01*
X11000D01*
X10900Y38620D01*
X11000Y38720D01*
X10900D01*
X10800Y38820D01*
X10700Y38720D01*
X10600D01*
X10700Y38620D01*
X10600Y38520D01*
X10700D01*
X10800Y38420D01*
X8800D02*
X8900Y38520D01*
X9000D01*
X8900Y38620D01*
X9000Y38720D01*
X8900D01*
X8800Y38820D01*
X8700Y38720D01*
X8600D01*
X8700Y38620D01*
X8600Y38520D01*
X8700D01*
X8800Y38420D01*
X6800D02*
X6900Y38520D01*
X7000D01*
X6900Y38620D01*
X7000Y38720D01*
X6900D01*
X6800Y38820D01*
X6700Y38720D01*
X6600D01*
X6700Y38620D01*
X6600Y38520D01*
X6700D01*
X6800Y38420D01*
X4800D02*
X4900Y38520D01*
X5000D01*
X4900Y38620D01*
X5000Y38720D01*
X4900D01*
X4800Y38820D01*
X4700Y38720D01*
X4600D01*
X4700Y38620D01*
X4600Y38520D01*
X4700D01*
X4800Y38420D01*
X21350Y14230D02*
Y14630D01*
X21750D01*
Y14230D01*
X21350D01*
X3490Y30850D02*
Y31250D01*
X3890D01*
Y30850D01*
X3490D01*
X39643Y14988D02*
X39843Y15188D01*
X40043Y14988D01*
X39843Y14788D01*
X39643Y14988D01*
X38303D02*
X38503Y15188D01*
X38703Y14988D01*
X38503Y14788D01*
X38303Y14988D01*
Y20288D02*
X38503Y20488D01*
X38703Y20288D01*
X38503Y20088D01*
X38303Y20288D01*
X39643D02*
X39843Y20488D01*
X40043Y20288D01*
X39843Y20088D01*
X39643Y20288D01*
X35860Y29030D02*
X36060Y29230D01*
X36260Y29030D01*
X36060Y28830D01*
X35860Y29030D01*
Y30370D02*
X36060Y30570D01*
X36260Y30370D01*
X36060Y30170D01*
X35860Y30370D01*
X30560D02*
X30760Y30570D01*
X30960Y30370D01*
X30760Y30170D01*
X30560Y30370D01*
Y29030D02*
X30760Y29230D01*
X30960Y29030D01*
X30760Y28830D01*
X30560Y29030D01*
X35860Y32930D02*
X36060Y33130D01*
X36260Y32930D01*
X36060Y32730D01*
X35860Y32930D01*
Y34270D02*
X36060Y34470D01*
X36260Y34270D01*
X36060Y34070D01*
X35860Y34270D01*
X30560D02*
X30760Y34470D01*
X30960Y34270D01*
X30760Y34070D01*
X30560Y34270D01*
Y32930D02*
X30760Y33130D01*
X30960Y32930D01*
X30760Y32730D01*
X30560Y32930D01*
X25950Y22890D02*
X25750Y23290D01*
X26150D01*
X25950Y22890D01*
X26950D02*
X26750Y23290D01*
X27150D01*
X26950Y22890D01*
X27950D02*
X27750Y23290D01*
X28150D01*
X27950Y22890D01*
X32085D02*
X31885Y23290D01*
X32285D01*
X32085Y22890D01*
X31085D02*
X30885Y23290D01*
X31285D01*
X31085Y22890D01*
X30085D02*
X29885Y23290D01*
X30285D01*
X30085Y22890D01*
X34220D02*
X34020Y23290D01*
X34420D01*
X34220Y22890D01*
X35220D02*
X35020Y23290D01*
X35420D01*
X35220Y22890D01*
X36220D02*
X36020Y23290D01*
X36420D01*
X36220Y22890D01*
X25950Y25290D02*
X25750Y25690D01*
X26150D01*
X25950Y25290D01*
X26950D02*
X26750Y25690D01*
X27150D01*
X26950Y25290D01*
X27950D02*
X27750Y25690D01*
X28150D01*
X27950Y25290D01*
X36220D02*
X36020Y25690D01*
X36420D01*
X36220Y25290D01*
X35220D02*
X35020Y25690D01*
X35420D01*
X35220Y25290D01*
X34220D02*
X34020Y25690D01*
X34420D01*
X34220Y25290D01*
X30085D02*
X29885Y25690D01*
X30285D01*
X30085Y25290D01*
X31085D02*
X30885Y25690D01*
X31285D01*
X31085Y25290D01*
X32085D02*
X31885Y25690D01*
X32285D01*
X32085Y25290D01*
X39300Y1300D02*
Y1700D01*
X39700D01*
Y1300D01*
X39300D01*
X39380Y1380D02*
Y1620D01*
X39620D01*
Y1380D01*
X39380D01*
X2200Y35150D02*
X2000Y35550D01*
X2400D01*
X2200Y35150D01*
X1200D02*
X1000Y35550D01*
X1400D01*
X1200Y35150D01*
X39300Y38800D02*
Y39200D01*
X39700D01*
Y38800D01*
X39300D01*
X39380Y38880D02*
Y39120D01*
X39620D01*
Y38880D01*
X39380D01*
X1300Y38800D02*
Y39200D01*
X1700D01*
Y38800D01*
X1300D01*
X1380Y38880D02*
Y39120D01*
X1620D01*
Y38880D01*
X1380D01*
X1300Y1300D02*
Y1700D01*
X1700D01*
Y1300D01*
X1300D01*
X1380Y1380D02*
Y1620D01*
X1620D01*
Y1380D01*
X1380D01*
X38550Y22960D02*
X38350Y23360D01*
X38750D01*
X38550Y22960D01*
Y23040D02*
X38430Y23280D01*
X38670D01*
X38550Y23040D01*
X39350Y22960D02*
X39150Y23360D01*
X39550D01*
X39350Y22960D01*
Y23040D02*
X39230Y23280D01*
X39470D01*
X39350Y23040D01*
X38550Y24320D02*
X38350Y24720D01*
X38750D01*
X38550Y24320D01*
Y24400D02*
X38430Y24640D01*
X38670D01*
X38550Y24400D01*
X39330Y24320D02*
X39130Y24720D01*
X39530D01*
X39330Y24320D01*
Y24400D02*
X39210Y24640D01*
X39450D01*
X39330Y24400D01*
X38950Y22960D02*
X38750Y23360D01*
X39150D01*
X38950Y22960D01*
Y23040D02*
X38830Y23280D01*
X39070D01*
X38950Y23040D01*
Y24320D02*
X38750Y24720D01*
X39150D01*
X38950Y24320D01*
Y24400D02*
X38830Y24640D01*
X39070D01*
X38950Y24400D01*
X33470Y35760D02*
X33570Y35860D01*
X33670D01*
X33570Y35960D01*
X33670Y36060D01*
X33570D01*
X33470Y36160D01*
X33370Y36060D01*
X33270D01*
X33370Y35960D01*
X33270Y35860D01*
X33370D01*
X33470Y35760D01*
Y35840D02*
X33530Y35900D01*
X33590D01*
X33530Y35960D01*
X33590Y36020D01*
X33530D01*
X33470Y36080D01*
X33410Y36020D01*
X33350D01*
X33410Y35960D01*
X33350Y35900D01*
X33410D01*
X33470Y35840D01*
X30010Y39013D02*
X30110Y39213D01*
X30010Y39413D01*
X30210Y39313D01*
X30410Y39413D01*
X30310Y39213D01*
X30410Y39013D01*
X30210Y39113D01*
X30010Y39013D01*
X30090Y39093D02*
X30150Y39213D01*
X30090Y39333D01*
X30210Y39273D01*
X30330Y39333D01*
X30270Y39213D01*
X30330Y39093D01*
X30210Y39153D01*
X30090Y39093D01*
X36470Y38550D02*
X36270Y38950D01*
X36670D01*
X36470Y38550D01*
Y38630D02*
X36350Y38870D01*
X36590D01*
X36470Y38630D01*
X32459Y35953D02*
Y35853D01*
X32659D01*
Y35953D01*
X32759D01*
Y36153D01*
X32659D01*
Y36253D01*
X32459D01*
Y36153D01*
X32359D01*
Y35953D01*
X32459D01*
X32499Y35993D02*
Y35933D01*
X32619D01*
Y35993D01*
X32679D01*
Y36113D01*
X32619D01*
Y36173D01*
X32499D01*
Y36113D01*
X32439D01*
Y35993D01*
X32499D01*
X32479Y36750D02*
Y36650D01*
X32679D01*
Y36750D01*
X32779D01*
Y36950D01*
X32679D01*
Y37050D01*
X32479D01*
Y36950D01*
X32379D01*
Y36750D01*
X32479D01*
X32519Y36790D02*
Y36730D01*
X32639D01*
Y36790D01*
X32699D01*
Y36910D01*
X32639D01*
Y36970D01*
X32519D01*
Y36910D01*
X32459D01*
Y36790D01*
X32519D01*
X6580Y16920D02*
X6680Y17020D01*
X6780D01*
X6680Y17120D01*
X6780Y17220D01*
X6680D01*
X6580Y17320D01*
X6480Y17220D01*
X6380D01*
X6480Y17120D01*
X6380Y17020D01*
X6480D01*
X6580Y16920D01*
Y17000D02*
X6640Y17060D01*
X6700D01*
X6640Y17120D01*
X6700Y17180D01*
X6640D01*
X6580Y17240D01*
X6520Y17180D01*
X6460D01*
X6520Y17120D01*
X6460Y17060D01*
X6520D01*
X6580Y17000D01*
D283*
X12210Y22150D02*
G03*
X12210Y22150I-200J0D01*
G01*
Y21150D02*
G03*
X12210Y21150I-200J0D01*
G01*
X11210Y22150D02*
G03*
X11210Y22150I-200J0D01*
G01*
Y21150D02*
G03*
X11210Y21150I-200J0D01*
G01*
X10210Y22150D02*
G03*
X10210Y22150I-200J0D01*
G01*
Y21150D02*
G03*
X10210Y21150I-200J0D01*
G01*
X9210Y22150D02*
G03*
X9210Y22150I-200J0D01*
G01*
Y21150D02*
G03*
X9210Y21150I-200J0D01*
G01*
X8210Y22150D02*
G03*
X8210Y22150I-200J0D01*
G01*
Y21150D02*
G03*
X8210Y21150I-200J0D01*
G01*
X12210Y19300D02*
G03*
X12210Y19300I-200J0D01*
G01*
Y18300D02*
G03*
X12210Y18300I-200J0D01*
G01*
X11210Y19300D02*
G03*
X11210Y19300I-200J0D01*
G01*
Y18300D02*
G03*
X11210Y18300I-200J0D01*
G01*
X10210Y19300D02*
G03*
X10210Y19300I-200J0D01*
G01*
Y18300D02*
G03*
X10210Y18300I-200J0D01*
G01*
X9210Y19300D02*
G03*
X9210Y19300I-200J0D01*
G01*
Y18300D02*
G03*
X9210Y18300I-200J0D01*
G01*
X8210Y19300D02*
G03*
X8210Y19300I-200J0D01*
G01*
Y18300D02*
G03*
X8210Y18300I-200J0D01*
G01*
X39700Y500D02*
G03*
X39700Y500I-200J0D01*
G01*
Y2500D02*
G03*
X39700Y2500I-200J0D01*
G01*
X40700Y1500D02*
G03*
X40700Y1500I-200J0D01*
G01*
X38700D02*
G03*
X38700Y1500I-200J0D01*
G01*
X39000Y2200D02*
G03*
X39000Y2200I-200J0D01*
G01*
X40400D02*
G03*
X40400Y2200I-200J0D01*
G01*
Y800D02*
G03*
X40400Y800I-200J0D01*
G01*
X39000D02*
G03*
X39000Y800I-200J0D01*
G01*
X39700Y38000D02*
G03*
X39700Y38000I-200J0D01*
G01*
Y40000D02*
G03*
X39700Y40000I-200J0D01*
G01*
X40700Y39000D02*
G03*
X40700Y39000I-200J0D01*
G01*
X38700D02*
G03*
X38700Y39000I-200J0D01*
G01*
X39000Y39700D02*
G03*
X39000Y39700I-200J0D01*
G01*
X40400D02*
G03*
X40400Y39700I-200J0D01*
G01*
Y38300D02*
G03*
X40400Y38300I-200J0D01*
G01*
X39000D02*
G03*
X39000Y38300I-200J0D01*
G01*
X1700Y38000D02*
G03*
X1700Y38000I-200J0D01*
G01*
Y40000D02*
G03*
X1700Y40000I-200J0D01*
G01*
X2700Y39000D02*
G03*
X2700Y39000I-200J0D01*
G01*
X700D02*
G03*
X700Y39000I-200J0D01*
G01*
X1000Y39700D02*
G03*
X1000Y39700I-200J0D01*
G01*
X2400D02*
G03*
X2400Y39700I-200J0D01*
G01*
Y38300D02*
G03*
X2400Y38300I-200J0D01*
G01*
X1000D02*
G03*
X1000Y38300I-200J0D01*
G01*
X1700Y500D02*
G03*
X1700Y500I-200J0D01*
G01*
Y2500D02*
G03*
X1700Y2500I-200J0D01*
G01*
X2700Y1500D02*
G03*
X2700Y1500I-200J0D01*
G01*
X700D02*
G03*
X700Y1500I-200J0D01*
G01*
X1000Y2200D02*
G03*
X1000Y2200I-200J0D01*
G01*
X2400D02*
G03*
X2400Y2200I-200J0D01*
G01*
Y800D02*
G03*
X2400Y800I-200J0D01*
G01*
X1000D02*
G03*
X1000Y800I-200J0D01*
G01*
X8210Y14060D02*
G03*
X8210Y14060I-200J0D01*
G01*
Y15060D02*
G03*
X8210Y15060I-200J0D01*
G01*
X9210Y14060D02*
G03*
X9210Y14060I-200J0D01*
G01*
Y15060D02*
G03*
X9210Y15060I-200J0D01*
G01*
X10210Y14060D02*
G03*
X10210Y14060I-200J0D01*
G01*
Y15060D02*
G03*
X10210Y15060I-200J0D01*
G01*
X11210Y14060D02*
G03*
X11210Y14060I-200J0D01*
G01*
Y15060D02*
G03*
X11210Y15060I-200J0D01*
G01*
X12210Y14060D02*
G03*
X12210Y14060I-200J0D01*
G01*
Y15060D02*
G03*
X12210Y15060I-200J0D01*
G01*
X13210Y14060D02*
G03*
X13210Y14060I-200J0D01*
G01*
Y15060D02*
G03*
X13210Y15060I-200J0D01*
G01*
X14210Y14060D02*
G03*
X14210Y14060I-200J0D01*
G01*
Y15060D02*
G03*
X14210Y15060I-200J0D01*
G01*
X15210Y14060D02*
G03*
X15210Y14060I-200J0D01*
G01*
Y15060D02*
G03*
X15210Y15060I-200J0D01*
G01*
X16210Y14060D02*
G03*
X16210Y14060I-200J0D01*
G01*
Y15060D02*
G03*
X16210Y15060I-200J0D01*
G01*
X17210Y14060D02*
G03*
X17210Y14060I-200J0D01*
G01*
Y15060D02*
G03*
X17210Y15060I-200J0D01*
G01*
X18210Y14060D02*
G03*
X18210Y14060I-200J0D01*
G01*
Y15060D02*
G03*
X18210Y15060I-200J0D01*
G01*
X19210Y14060D02*
G03*
X19210Y14060I-200J0D01*
G01*
Y15060D02*
G03*
X19210Y15060I-200J0D01*
G01*
X774Y11690D02*
G03*
X774Y11690I-200J0D01*
G01*
X2586D02*
G03*
X2586Y11690I-200J0D01*
G01*
X1680Y12596D02*
G03*
X1680Y12596I-200J0D01*
G01*
Y10784D02*
G03*
X1680Y10784I-200J0D01*
G01*
X32907Y38638D02*
G03*
X32907Y38638I-200J0D01*
G01*
X32513D02*
G03*
X32513Y38638I-200J0D01*
G01*
X32119D02*
G03*
X32119Y38638I-200J0D01*
G01*
Y38244D02*
G03*
X32119Y38244I-200J0D01*
G01*
Y37851D02*
G03*
X32119Y37851I-200J0D01*
G01*
X32513D02*
G03*
X32513Y37851I-200J0D01*
G01*
X32907D02*
G03*
X32907Y37851I-200J0D01*
G01*
Y38244D02*
G03*
X32907Y38244I-200J0D01*
G01*
X32513D02*
G03*
X32513Y38244I-200J0D01*
G01*
X22465Y33820D02*
G03*
X22465Y33820I-200J0D01*
G01*
Y34220D02*
G03*
X22465Y34220I-200J0D01*
G01*
Y33420D02*
G03*
X22465Y33420I-200J0D01*
G01*
Y33020D02*
G03*
X22465Y33020I-200J0D01*
G01*
X22065D02*
G03*
X22065Y33020I-200J0D01*
G01*
X21665D02*
G03*
X21665Y33020I-200J0D01*
G01*
Y33420D02*
G03*
X21665Y33420I-200J0D01*
G01*
X22065D02*
G03*
X22065Y33420I-200J0D01*
G01*
Y33820D02*
G03*
X22065Y33820I-200J0D01*
G01*
X21665D02*
G03*
X21665Y33820I-200J0D01*
G01*
Y34220D02*
G03*
X21665Y34220I-200J0D01*
G01*
X22065D02*
G03*
X22065Y34220I-200J0D01*
G01*
X22865D02*
G03*
X22865Y34220I-200J0D01*
G01*
X23265D02*
G03*
X23265Y34220I-200J0D01*
G01*
Y33820D02*
G03*
X23265Y33820I-200J0D01*
G01*
X22865D02*
G03*
X22865Y33820I-200J0D01*
G01*
Y33420D02*
G03*
X22865Y33420I-200J0D01*
G01*
X23265D02*
G03*
X23265Y33420I-200J0D01*
G01*
Y33020D02*
G03*
X23265Y33020I-200J0D01*
G01*
X22865D02*
G03*
X22865Y33020I-200J0D01*
G01*
X17910Y34620D02*
G03*
X17910Y34620I-200J0D01*
G01*
Y35020D02*
G03*
X17910Y35020I-200J0D01*
G01*
Y34220D02*
G03*
X17910Y34220I-200J0D01*
G01*
Y33820D02*
G03*
X17910Y33820I-200J0D01*
G01*
X17510D02*
G03*
X17510Y33820I-200J0D01*
G01*
X17110D02*
G03*
X17110Y33820I-200J0D01*
G01*
Y34220D02*
G03*
X17110Y34220I-200J0D01*
G01*
X17510D02*
G03*
X17510Y34220I-200J0D01*
G01*
Y34620D02*
G03*
X17510Y34620I-200J0D01*
G01*
X17110D02*
G03*
X17110Y34620I-200J0D01*
G01*
Y35020D02*
G03*
X17110Y35020I-200J0D01*
G01*
X17510D02*
G03*
X17510Y35020I-200J0D01*
G01*
X18310D02*
G03*
X18310Y35020I-200J0D01*
G01*
X18710D02*
G03*
X18710Y35020I-200J0D01*
G01*
Y34620D02*
G03*
X18710Y34620I-200J0D01*
G01*
X18310D02*
G03*
X18310Y34620I-200J0D01*
G01*
Y34220D02*
G03*
X18310Y34220I-200J0D01*
G01*
X18710D02*
G03*
X18710Y34220I-200J0D01*
G01*
Y33820D02*
G03*
X18710Y33820I-200J0D01*
G01*
X18310D02*
G03*
X18310Y33820I-200J0D01*
G01*
X13900Y34620D02*
G03*
X13900Y34620I-200J0D01*
G01*
Y35020D02*
G03*
X13900Y35020I-200J0D01*
G01*
Y34220D02*
G03*
X13900Y34220I-200J0D01*
G01*
Y33820D02*
G03*
X13900Y33820I-200J0D01*
G01*
X13500D02*
G03*
X13500Y33820I-200J0D01*
G01*
X13100D02*
G03*
X13100Y33820I-200J0D01*
G01*
Y34220D02*
G03*
X13100Y34220I-200J0D01*
G01*
X13500D02*
G03*
X13500Y34220I-200J0D01*
G01*
Y34620D02*
G03*
X13500Y34620I-200J0D01*
G01*
X13100D02*
G03*
X13100Y34620I-200J0D01*
G01*
Y35020D02*
G03*
X13100Y35020I-200J0D01*
G01*
X13500D02*
G03*
X13500Y35020I-200J0D01*
G01*
X14300D02*
G03*
X14300Y35020I-200J0D01*
G01*
X14700D02*
G03*
X14700Y35020I-200J0D01*
G01*
Y34620D02*
G03*
X14700Y34620I-200J0D01*
G01*
X14300D02*
G03*
X14300Y34620I-200J0D01*
G01*
Y34220D02*
G03*
X14300Y34220I-200J0D01*
G01*
X14700D02*
G03*
X14700Y34220I-200J0D01*
G01*
Y33820D02*
G03*
X14700Y33820I-200J0D01*
G01*
X14300D02*
G03*
X14300Y33820I-200J0D01*
G01*
X9915Y34620D02*
G03*
X9915Y34620I-200J0D01*
G01*
Y35020D02*
G03*
X9915Y35020I-200J0D01*
G01*
Y34220D02*
G03*
X9915Y34220I-200J0D01*
G01*
Y33820D02*
G03*
X9915Y33820I-200J0D01*
G01*
X9515D02*
G03*
X9515Y33820I-200J0D01*
G01*
X9115D02*
G03*
X9115Y33820I-200J0D01*
G01*
Y34220D02*
G03*
X9115Y34220I-200J0D01*
G01*
X9515D02*
G03*
X9515Y34220I-200J0D01*
G01*
Y34620D02*
G03*
X9515Y34620I-200J0D01*
G01*
X9115D02*
G03*
X9115Y34620I-200J0D01*
G01*
Y35020D02*
G03*
X9115Y35020I-200J0D01*
G01*
X9515D02*
G03*
X9515Y35020I-200J0D01*
G01*
X10315D02*
G03*
X10315Y35020I-200J0D01*
G01*
X10715D02*
G03*
X10715Y35020I-200J0D01*
G01*
Y34620D02*
G03*
X10715Y34620I-200J0D01*
G01*
X10315D02*
G03*
X10315Y34620I-200J0D01*
G01*
Y34220D02*
G03*
X10315Y34220I-200J0D01*
G01*
X10715D02*
G03*
X10715Y34220I-200J0D01*
G01*
Y33820D02*
G03*
X10715Y33820I-200J0D01*
G01*
X10315D02*
G03*
X10315Y33820I-200J0D01*
G01*
X20844Y14430D02*
G03*
X20844Y14430I-200J0D01*
G01*
X22656D02*
G03*
X22656Y14430I-200J0D01*
G01*
X21750Y15336D02*
G03*
X21750Y15336I-200J0D01*
G01*
Y13524D02*
G03*
X21750Y13524I-200J0D01*
G01*
X3890Y30144D02*
G03*
X3890Y30144I-200J0D01*
G01*
Y31956D02*
G03*
X3890Y31956I-200J0D01*
G01*
X4796Y31050D02*
G03*
X4796Y31050I-200J0D01*
G01*
X2984D02*
G03*
X2984Y31050I-200J0D01*
G01*
X9680Y7180D02*
G03*
X9680Y7180I-200J0D01*
G01*
X2710Y7170D02*
G03*
X2710Y7170I-200J0D01*
G01*
X16770D02*
G03*
X16770Y7170I-200J0D01*
G01*
X23860D02*
G03*
X23860Y7170I-200J0D01*
G01*
X30950Y7180D02*
G03*
X30950Y7180I-200J0D01*
G01*
X32900Y7600D02*
G03*
X32900Y7600I-200J0D01*
G01*
X3560Y1480D02*
G03*
X3560Y1480I-200J0D01*
G01*
X2540Y36460D02*
G03*
X2540Y36460I-200J0D01*
G01*
X2090Y26500D02*
G03*
X2090Y26500I-200J0D01*
G01*
X37920Y9360D02*
G03*
X37920Y9360I-200J0D01*
G01*
Y8820D02*
G03*
X37920Y8820I-200J0D01*
G01*
X37530Y10020D02*
G03*
X37530Y10020I-200J0D01*
G01*
X39366Y37006D02*
G03*
X39366Y37006I-200J0D01*
G01*
X32850Y34830D02*
G03*
X32850Y34830I-200J0D01*
G01*
Y34280D02*
G03*
X32850Y34280I-200J0D01*
G01*
Y33680D02*
G03*
X32850Y33680I-200J0D01*
G01*
Y33130D02*
G03*
X32850Y33130I-200J0D01*
G01*
Y32580D02*
G03*
X32850Y32580I-200J0D01*
G01*
Y32120D02*
G03*
X32850Y32120I-200J0D01*
G01*
X35360Y34960D02*
G03*
X35360Y34960I-200J0D01*
G01*
X34850D02*
G03*
X34850Y34960I-200J0D01*
G01*
Y28340D02*
G03*
X34850Y28340I-200J0D01*
G01*
X34840Y31370D02*
G03*
X34840Y31370I-200J0D01*
G01*
X39555Y35467D02*
G03*
X39555Y35467I-200J0D01*
G01*
Y35867D02*
G03*
X39555Y35867I-200J0D01*
G01*
X39075Y36457D02*
G03*
X39075Y36457I-200J0D01*
G01*
X40200Y21760D02*
G03*
X40200Y21760I-200J0D01*
G01*
X40600Y36460D02*
G03*
X40600Y36460I-200J0D01*
G01*
Y35870D02*
G03*
X40600Y35870I-200J0D01*
G01*
Y35470D02*
G03*
X40600Y35470I-200J0D01*
G01*
X3120Y29550D02*
G03*
X3120Y29550I-200J0D01*
G01*
X1000Y12920D02*
G03*
X1000Y12920I-200J0D01*
G01*
X6420Y35130D02*
G03*
X6420Y35130I-200J0D01*
G01*
X5410D02*
G03*
X5410Y35130I-200J0D01*
G01*
X4920Y33970D02*
G03*
X4920Y33970I-200J0D01*
G01*
X5750Y33960D02*
G03*
X5750Y33960I-200J0D01*
G01*
X6920Y33970D02*
G03*
X6920Y33970I-200J0D01*
G01*
X6970Y35420D02*
G03*
X6970Y35420I-200J0D01*
G01*
X4860Y35550D02*
G03*
X4860Y35550I-200J0D01*
G01*
X6130Y33970D02*
G03*
X6130Y33970I-200J0D01*
G01*
X6430Y35840D02*
G03*
X6430Y35840I-200J0D01*
G01*
X5440Y35820D02*
G03*
X5440Y35820I-200J0D01*
G01*
X21700Y36000D02*
G03*
X21700Y36000I-200J0D01*
G01*
X25700Y34000D02*
G03*
X25700Y34000I-200J0D01*
G01*
X23700D02*
G03*
X23700Y34000I-200J0D01*
G01*
Y33000D02*
G03*
X23700Y33000I-200J0D01*
G01*
X24700D02*
G03*
X24700Y33000I-200J0D01*
G01*
Y34000D02*
G03*
X24700Y34000I-200J0D01*
G01*
X25660Y35010D02*
G03*
X25660Y35010I-200J0D01*
G01*
X24700Y35000D02*
G03*
X24700Y35000I-200J0D01*
G01*
X23700D02*
G03*
X23700Y35000I-200J0D01*
G01*
X22700D02*
G03*
X22700Y35000I-200J0D01*
G01*
X21700D02*
G03*
X21700Y35000I-200J0D01*
G01*
X20580D02*
G03*
X20580Y35000I-200J0D01*
G01*
Y34000D02*
G03*
X20580Y34000I-200J0D01*
G01*
X21200D02*
G03*
X21200Y34000I-200J0D01*
G01*
Y33000D02*
G03*
X21200Y33000I-200J0D01*
G01*
X22680Y36020D02*
G03*
X22680Y36020I-200J0D01*
G01*
X24190Y32790D02*
G03*
X24190Y32790I-200J0D01*
G01*
X25560Y32830D02*
G03*
X25560Y32830I-200J0D01*
G01*
X25040Y35950D02*
G03*
X25040Y35950I-200J0D01*
G01*
X16580Y36240D02*
G03*
X16580Y36240I-200J0D01*
G01*
X12590Y36220D02*
G03*
X12590Y36220I-200J0D01*
G01*
X20580Y36020D02*
G03*
X20580Y36020I-200J0D01*
G01*
Y33030D02*
G03*
X20580Y33030I-200J0D01*
G01*
X20105Y33550D02*
G03*
X20105Y33550I-200J0D01*
G01*
Y35590D02*
G03*
X20105Y35590I-200J0D01*
G01*
X16570Y35370D02*
G03*
X16570Y35370I-200J0D01*
G01*
Y33530D02*
G03*
X16570Y33530I-200J0D01*
G01*
Y34460D02*
G03*
X16570Y34460I-200J0D01*
G01*
X20110Y34220D02*
G03*
X20110Y34220I-200J0D01*
G01*
X16100D02*
G03*
X16100Y34220I-200J0D01*
G01*
X12560Y34460D02*
G03*
X12560Y34460I-200J0D01*
G01*
Y33530D02*
G03*
X12560Y33530I-200J0D01*
G01*
Y35370D02*
G03*
X12560Y35370I-200J0D01*
G01*
X16095Y35590D02*
G03*
X16095Y35590I-200J0D01*
G01*
Y33550D02*
G03*
X16095Y33550I-200J0D01*
G01*
X12110Y34310D02*
G03*
X12110Y34310I-200J0D01*
G01*
X8410Y34440D02*
G03*
X8410Y34440I-200J0D01*
G01*
Y35350D02*
G03*
X8410Y35350I-200J0D01*
G01*
Y33530D02*
G03*
X8410Y33530I-200J0D01*
G01*
X12110Y33550D02*
G03*
X12110Y33550I-200J0D01*
G01*
X8640Y36190D02*
G03*
X8640Y36190I-200J0D01*
G01*
X27310Y39610D02*
G03*
X27310Y39610I-200J0D01*
G01*
X11660Y38610D02*
G03*
X11660Y38610I-200J0D01*
G01*
X10340D02*
G03*
X10340Y38610I-200J0D01*
G01*
X11670Y38220D02*
G03*
X11670Y38220I-200J0D01*
G01*
X11680Y39020D02*
G03*
X11680Y39020I-200J0D01*
G01*
X10340Y39000D02*
G03*
X10340Y39000I-200J0D01*
G01*
Y38230D02*
G03*
X10340Y38230I-200J0D01*
G01*
X10380Y37090D02*
G03*
X10380Y37090I-200J0D01*
G01*
X11680Y37070D02*
G03*
X11680Y37070I-200J0D01*
G01*
X15660Y38610D02*
G03*
X15660Y38610I-200J0D01*
G01*
X14340D02*
G03*
X14340Y38610I-200J0D01*
G01*
X15670Y38220D02*
G03*
X15670Y38220I-200J0D01*
G01*
X15680Y39020D02*
G03*
X15680Y39020I-200J0D01*
G01*
X14340Y39000D02*
G03*
X14340Y39000I-200J0D01*
G01*
Y38230D02*
G03*
X14340Y38230I-200J0D01*
G01*
X14380Y37090D02*
G03*
X14380Y37090I-200J0D01*
G01*
X15680Y37070D02*
G03*
X15680Y37070I-200J0D01*
G01*
X19680D02*
G03*
X19680Y37070I-200J0D01*
G01*
X18380Y37090D02*
G03*
X18380Y37090I-200J0D01*
G01*
X8770Y36800D02*
G03*
X8770Y36800I-200J0D01*
G01*
X12720Y36890D02*
G03*
X12720Y36890I-200J0D01*
G01*
X18340Y38230D02*
G03*
X18340Y38230I-200J0D01*
G01*
Y39000D02*
G03*
X18340Y39000I-200J0D01*
G01*
X19680Y39020D02*
G03*
X19680Y39020I-200J0D01*
G01*
X19670Y38220D02*
G03*
X19670Y38220I-200J0D01*
G01*
X16670Y36870D02*
G03*
X16670Y36870I-200J0D01*
G01*
X18340Y38610D02*
G03*
X18340Y38610I-200J0D01*
G01*
X19660D02*
G03*
X19660Y38610I-200J0D01*
G01*
X27310Y39250D02*
G03*
X27310Y39250I-200J0D01*
G01*
Y38880D02*
G03*
X27310Y38880I-200J0D01*
G01*
X20620Y36750D02*
G03*
X20620Y36750I-200J0D01*
G01*
X12110Y35590D02*
G03*
X12110Y35590I-200J0D01*
G01*
X25990Y34290D02*
G03*
X25990Y34290I-200J0D01*
G01*
Y34830D02*
G03*
X25990Y34830I-200J0D01*
G01*
X26980Y31412D02*
G03*
X26980Y31412I-200J0D01*
G01*
Y31825D02*
G03*
X26980Y31825I-200J0D01*
G01*
Y32238D02*
G03*
X26980Y32238I-200J0D01*
G01*
X25970Y31423D02*
G03*
X25970Y31423I-200J0D01*
G01*
X26980Y31000D02*
G03*
X26980Y31000I-200J0D01*
G01*
X26260D02*
G03*
X26260Y31000I-200J0D01*
G01*
X25970Y31010D02*
G03*
X25970Y31010I-200J0D01*
G01*
X26980Y32650D02*
G03*
X26980Y32650I-200J0D01*
G01*
X26260Y32660D02*
G03*
X26260Y32660I-200J0D01*
G01*
X25970D02*
G03*
X25970Y32660I-200J0D01*
G01*
X26410Y27270D02*
G03*
X26410Y27270I-200J0D01*
G01*
X26430Y27640D02*
G03*
X26430Y27640I-200J0D01*
G01*
X26400Y28030D02*
G03*
X26400Y28030I-200J0D01*
G01*
X27560Y28220D02*
G03*
X27560Y28220I-200J0D01*
G01*
X28680Y27410D02*
G03*
X28680Y27410I-200J0D01*
G01*
Y27830D02*
G03*
X28680Y27830I-200J0D01*
G01*
X27560Y27820D02*
G03*
X27560Y27820I-200J0D01*
G01*
Y27340D02*
G03*
X27560Y27340I-200J0D01*
G01*
X31940Y31040D02*
G03*
X31940Y31040I-200J0D01*
G01*
X30030Y29010D02*
G03*
X30030Y29010I-200J0D01*
G01*
X30020Y28410D02*
G03*
X30020Y28410I-200J0D01*
G01*
X26940Y33610D02*
G03*
X26940Y33610I-200J0D01*
G01*
X31970Y27680D02*
G03*
X31970Y27680I-200J0D01*
G01*
X30250Y27370D02*
G03*
X30250Y27370I-200J0D01*
G01*
X31090Y27360D02*
G03*
X31090Y27360I-200J0D01*
G01*
X27660Y39680D02*
G03*
X27660Y39680I-200J0D01*
G01*
X27680Y38880D02*
G03*
X27680Y38880I-200J0D01*
G01*
X29830Y38870D02*
G03*
X29830Y38870I-200J0D01*
G01*
Y39700D02*
G03*
X29830Y39700I-200J0D01*
G01*
X29480Y38860D02*
G03*
X29480Y38860I-200J0D01*
G01*
Y39280D02*
G03*
X29480Y39280I-200J0D01*
G01*
X29470Y39710D02*
G03*
X29470Y39710I-200J0D01*
G01*
X28530Y39260D02*
G03*
X28530Y39260I-200J0D01*
G01*
Y39680D02*
G03*
X28530Y39680I-200J0D01*
G01*
Y38870D02*
G03*
X28530Y38870I-200J0D01*
G01*
X26980Y39610D02*
G03*
X26980Y39610I-200J0D01*
G01*
X26970Y39240D02*
G03*
X26970Y39240I-200J0D01*
G01*
X26980Y38880D02*
G03*
X26980Y38880I-200J0D01*
G01*
X25250Y39640D02*
G03*
X25250Y39640I-200J0D01*
G01*
X33100Y28090D02*
G03*
X33100Y28090I-200J0D01*
G01*
X39820Y21760D02*
G03*
X39820Y21760I-200J0D01*
G01*
X38640Y25120D02*
G03*
X38640Y25120I-200J0D01*
G01*
X39560Y25130D02*
G03*
X39560Y25130I-200J0D01*
G01*
X39110Y25120D02*
G03*
X39110Y25120I-200J0D01*
G01*
X38180Y25260D02*
G03*
X38180Y25260I-200J0D01*
G01*
X38140Y26440D02*
G03*
X38140Y26440I-200J0D01*
G01*
X38600Y26520D02*
G03*
X38600Y26520I-200J0D01*
G01*
X40120Y26320D02*
G03*
X40120Y26320I-200J0D01*
G01*
Y25230D02*
G03*
X40120Y25230I-200J0D01*
G01*
X40130Y25850D02*
G03*
X40130Y25850I-200J0D01*
G01*
X39640Y26520D02*
G03*
X39640Y26520I-200J0D01*
G01*
X39160Y26500D02*
G03*
X39160Y26500I-200J0D01*
G01*
X38080Y27780D02*
G03*
X38080Y27780I-200J0D01*
G01*
X39170Y28550D02*
G03*
X39170Y28550I-200J0D01*
G01*
X39190Y27090D02*
G03*
X39190Y27090I-200J0D01*
G01*
X40200Y27830D02*
G03*
X40200Y27830I-200J0D01*
G01*
Y27410D02*
G03*
X40200Y27410I-200J0D01*
G01*
X40190Y28280D02*
G03*
X40190Y28280I-200J0D01*
G01*
X39640Y28530D02*
G03*
X39640Y28530I-200J0D01*
G01*
X38750D02*
G03*
X38750Y28530I-200J0D01*
G01*
X38150Y28150D02*
G03*
X38150Y28150I-200J0D01*
G01*
X38210Y27390D02*
G03*
X38210Y27390I-200J0D01*
G01*
X38770Y27120D02*
G03*
X38770Y27120I-200J0D01*
G01*
X39590Y27130D02*
G03*
X39590Y27130I-200J0D01*
G01*
X39140Y29090D02*
G03*
X39140Y29090I-200J0D01*
G01*
X40200Y29830D02*
G03*
X40200Y29830I-200J0D01*
G01*
X39180Y30580D02*
G03*
X39180Y30580I-200J0D01*
G01*
X38070Y29390D02*
G03*
X38070Y29390I-200J0D01*
G01*
X38080Y30330D02*
G03*
X38080Y30330I-200J0D01*
G01*
X40200Y30320D02*
G03*
X40200Y30320I-200J0D01*
G01*
X40190Y29310D02*
G03*
X40190Y29310I-200J0D01*
G01*
X39590Y31130D02*
G03*
X39590Y31130I-200J0D01*
G01*
X38770Y31120D02*
G03*
X38770Y31120I-200J0D01*
G01*
X38210Y31390D02*
G03*
X38210Y31390I-200J0D01*
G01*
X38150Y32150D02*
G03*
X38150Y32150I-200J0D01*
G01*
X38750Y32530D02*
G03*
X38750Y32530I-200J0D01*
G01*
X39640D02*
G03*
X39640Y32530I-200J0D01*
G01*
X40190Y32280D02*
G03*
X40190Y32280I-200J0D01*
G01*
X40200Y31410D02*
G03*
X40200Y31410I-200J0D01*
G01*
Y31830D02*
G03*
X40200Y31830I-200J0D01*
G01*
X39190Y31090D02*
G03*
X39190Y31090I-200J0D01*
G01*
X39170Y32550D02*
G03*
X39170Y32550I-200J0D01*
G01*
X38080Y31780D02*
G03*
X38080Y31780I-200J0D01*
G01*
X40150Y33290D02*
G03*
X40150Y33290I-200J0D01*
G01*
X40160Y34400D02*
G03*
X40160Y34400I-200J0D01*
G01*
X38080Y34330D02*
G03*
X38080Y34330I-200J0D01*
G01*
X38281Y32982D02*
G03*
X38281Y32982I-200J0D01*
G01*
X39170Y34710D02*
G03*
X39170Y34710I-200J0D01*
G01*
X40200Y33830D02*
G03*
X40200Y33830I-200J0D01*
G01*
X39140Y33090D02*
G03*
X39140Y33090I-200J0D01*
G01*
X6960Y31000D02*
G03*
X6960Y31000I-200J0D01*
G01*
X18240Y24820D02*
G03*
X18240Y24820I-200J0D01*
G01*
X17880Y24860D02*
G03*
X17880Y24860I-200J0D01*
G01*
X23510Y14720D02*
G03*
X23510Y14720I-200J0D01*
G01*
X23540Y15810D02*
G03*
X23540Y15810I-200J0D01*
G01*
X23180Y15820D02*
G03*
X23180Y15820I-200J0D01*
G01*
X23160Y16940D02*
G03*
X23160Y16940I-200J0D01*
G01*
X25900Y17700D02*
G03*
X25900Y17700I-200J0D01*
G01*
X25940Y19270D02*
G03*
X25940Y19270I-200J0D01*
G01*
X26560Y17550D02*
G03*
X26560Y17550I-200J0D01*
G01*
X26490Y16950D02*
G03*
X26490Y16950I-200J0D01*
G01*
X18460Y15915D02*
G03*
X18460Y15915I-200J0D01*
G01*
X18720Y16200D02*
G03*
X18720Y16200I-200J0D01*
G01*
X18860Y16710D02*
G03*
X18860Y16710I-200J0D01*
G01*
X19060Y16370D02*
G03*
X19060Y16370I-200J0D01*
G01*
X20930Y15630D02*
G03*
X20930Y15630I-200J0D01*
G01*
X20970Y16020D02*
G03*
X20970Y16020I-200J0D01*
G01*
X21220Y16280D02*
G03*
X21220Y16280I-200J0D01*
G01*
X21450Y16000D02*
G03*
X21450Y16000I-200J0D01*
G01*
X6330Y27660D02*
G03*
X6330Y27660I-200J0D01*
G01*
X6680Y28270D02*
G03*
X6680Y28270I-200J0D01*
G01*
X12390Y28170D02*
G03*
X12390Y28170I-200J0D01*
G01*
X12650Y16740D02*
G03*
X12650Y16740I-200J0D01*
G01*
X14580Y16760D02*
G03*
X14580Y16760I-200J0D01*
G01*
X15950Y20240D02*
G03*
X15950Y20240I-200J0D01*
G01*
X14330Y20510D02*
G03*
X14330Y20510I-200J0D01*
G01*
X22200Y26510D02*
G03*
X22200Y26510I-200J0D01*
G01*
X38760Y3620D02*
G03*
X38760Y3620I-200J0D01*
G01*
X40730Y18220D02*
G03*
X40730Y18220I-200J0D01*
G01*
Y18820D02*
G03*
X40730Y18820I-200J0D01*
G01*
Y18520D02*
G03*
X40730Y18520I-200J0D01*
G01*
X34930Y22280D02*
G03*
X34930Y22280I-200J0D01*
G01*
X33380D02*
G03*
X33380Y22280I-200J0D01*
G01*
X30810D02*
G03*
X30810Y22280I-200J0D01*
G01*
X29440D02*
G03*
X29440Y22280I-200J0D01*
G01*
X27640D02*
G03*
X27640Y22280I-200J0D01*
G01*
X28330Y14690D02*
G03*
X28330Y14690I-200J0D01*
G01*
X25920Y13910D02*
G03*
X25920Y13910I-200J0D01*
G01*
X26820Y21280D02*
G03*
X26820Y21280I-200J0D01*
G01*
X26420Y21300D02*
G03*
X26420Y21300I-200J0D01*
G01*
X26470Y20230D02*
G03*
X26470Y20230I-200J0D01*
G01*
X26110D02*
G03*
X26110Y20230I-200J0D01*
G01*
X28790Y21540D02*
G03*
X28790Y21540I-200J0D01*
G01*
X32250Y21610D02*
G03*
X32250Y21610I-200J0D01*
G01*
X33750Y20250D02*
G03*
X33750Y20250I-200J0D01*
G01*
X31460Y20240D02*
G03*
X31460Y20240I-200J0D01*
G01*
X28437Y21290D02*
G03*
X28437Y21290I-200J0D01*
G01*
X30247D02*
G03*
X30247Y21290I-200J0D01*
G01*
X34207D02*
G03*
X34207Y21290I-200J0D01*
G01*
X31897D02*
G03*
X31897Y21290I-200J0D01*
G01*
X35867Y21280D02*
G03*
X35867Y21280I-200J0D01*
G01*
X35430Y21270D02*
G03*
X35430Y21270I-200J0D01*
G01*
X33750D02*
G03*
X33750Y21270I-200J0D01*
G01*
X31460D02*
G03*
X31460Y21270I-200J0D01*
G01*
X29810Y21280D02*
G03*
X29810Y21280I-200J0D01*
G01*
X28010D02*
G03*
X28010Y21280I-200J0D01*
G01*
X35430Y20230D02*
G03*
X35430Y20230I-200J0D01*
G01*
X29810Y20240D02*
G03*
X29810Y20240I-200J0D01*
G01*
X28010D02*
G03*
X28010Y20240I-200J0D01*
G01*
X6655Y19985D02*
G03*
X6655Y19985I-200J0D01*
G01*
X5300Y19710D02*
G03*
X5300Y19710I-200J0D01*
G01*
X2470Y16630D02*
G03*
X2470Y16630I-200J0D01*
G01*
X760Y14520D02*
G03*
X760Y14520I-200J0D01*
G01*
Y17480D02*
G03*
X760Y17480I-200J0D01*
G01*
Y17920D02*
G03*
X760Y17920I-200J0D01*
G01*
Y14090D02*
G03*
X760Y14090I-200J0D01*
G01*
X8750Y16880D02*
G03*
X8750Y16880I-200J0D01*
G01*
X6590Y16310D02*
G03*
X6590Y16310I-200J0D01*
G01*
X22010Y21570D02*
G03*
X22010Y21570I-200J0D01*
G01*
X22350Y21210D02*
G03*
X22350Y21210I-200J0D01*
G01*
X3180Y33990D02*
G03*
X3180Y33990I-200J0D01*
G01*
X3560Y34730D02*
G03*
X3560Y34730I-200J0D01*
G01*
X3270D02*
G03*
X3270Y34730I-200J0D01*
G01*
X3180Y33340D02*
G03*
X3180Y33340I-200J0D01*
G01*
X25710Y29970D02*
G03*
X25710Y29970I-200J0D01*
G01*
X24270Y29840D02*
G03*
X24270Y29840I-200J0D01*
G01*
X24320Y29220D02*
G03*
X24320Y29220I-200J0D01*
G01*
X23320Y31120D02*
G03*
X23320Y31120I-200J0D01*
G01*
X24170Y28260D02*
G03*
X24170Y28260I-200J0D01*
G01*
X24490Y27920D02*
G03*
X24490Y27920I-200J0D01*
G01*
X21160Y31150D02*
G03*
X21160Y31150I-200J0D01*
G01*
X25430Y27310D02*
G03*
X25430Y27310I-200J0D01*
G01*
X20510Y32640D02*
G03*
X20510Y32640I-200J0D01*
G01*
X18210Y31990D02*
G03*
X18210Y31990I-200J0D01*
G01*
X16560Y31680D02*
G03*
X16560Y31680I-200J0D01*
G01*
X13120Y32010D02*
G03*
X13120Y32010I-200J0D01*
G01*
X8620Y31690D02*
G03*
X8620Y31690I-200J0D01*
G01*
X9220Y32010D02*
G03*
X9220Y32010I-200J0D01*
G01*
X10040Y31690D02*
G03*
X10040Y31690I-200J0D01*
G01*
X12500D02*
G03*
X12500Y31690I-200J0D01*
G01*
X13910D02*
G03*
X13910Y31690I-200J0D01*
G01*
X17160Y32010D02*
G03*
X17160Y32010I-200J0D01*
G01*
X16450Y33090D02*
G03*
X16450Y33090I-200J0D01*
G01*
X12480Y33100D02*
G03*
X12480Y33100I-200J0D01*
G01*
X8500D02*
G03*
X8500Y33100I-200J0D01*
G01*
X4930Y36730D02*
G03*
X4930Y36730I-200J0D01*
G01*
X5180Y32950D02*
G03*
X5180Y32950I-200J0D01*
G01*
X6330Y32920D02*
G03*
X6330Y32920I-200J0D01*
G01*
X5520Y30790D02*
G03*
X5520Y30790I-200J0D01*
G01*
X3050Y18910D02*
G03*
X3050Y18910I-200J0D01*
G01*
X1360D02*
G03*
X1360Y18910I-200J0D01*
G01*
X710Y20090D02*
G03*
X710Y20090I-200J0D01*
G01*
X2490Y17070D02*
G03*
X2490Y17070I-200J0D01*
G01*
X7440Y11264D02*
G03*
X7440Y11264I-200J0D01*
G01*
Y10827D02*
G03*
X7440Y10827I-200J0D01*
G01*
Y11707D02*
G03*
X7440Y11707I-200J0D01*
G01*
X14540Y11264D02*
G03*
X14540Y11264I-200J0D01*
G01*
Y10827D02*
G03*
X14540Y10827I-200J0D01*
G01*
Y11707D02*
G03*
X14540Y11707I-200J0D01*
G01*
X21600Y11264D02*
G03*
X21600Y11264I-200J0D01*
G01*
Y10827D02*
G03*
X21600Y10827I-200J0D01*
G01*
Y11707D02*
G03*
X21600Y11707I-200J0D01*
G01*
X28670Y11264D02*
G03*
X28670Y11264I-200J0D01*
G01*
Y10827D02*
G03*
X28670Y10827I-200J0D01*
G01*
Y11707D02*
G03*
X28670Y11707I-200J0D01*
G01*
X35800D02*
G03*
X35800Y11707I-200J0D01*
G01*
Y10827D02*
G03*
X35800Y10827I-200J0D01*
G01*
Y11264D02*
G03*
X35800Y11264I-200J0D01*
G01*
X7400Y9674D02*
G03*
X7400Y9674I-200J0D01*
G01*
X7420Y8794D02*
G03*
X7420Y8794I-200J0D01*
G01*
X7400Y9230D02*
G03*
X7400Y9230I-200J0D01*
G01*
X14500Y9674D02*
G03*
X14500Y9674I-200J0D01*
G01*
Y8794D02*
G03*
X14500Y8794I-200J0D01*
G01*
Y9230D02*
G03*
X14500Y9230I-200J0D01*
G01*
X21560Y9674D02*
G03*
X21560Y9674I-200J0D01*
G01*
Y8794D02*
G03*
X21560Y8794I-200J0D01*
G01*
Y9230D02*
G03*
X21560Y9230I-200J0D01*
G01*
X28630Y9674D02*
G03*
X28630Y9674I-200J0D01*
G01*
Y8794D02*
G03*
X28630Y8794I-200J0D01*
G01*
Y9230D02*
G03*
X28630Y9230I-200J0D01*
G01*
X35760D02*
G03*
X35760Y9230I-200J0D01*
G01*
Y8794D02*
G03*
X35760Y8794I-200J0D01*
G01*
Y9674D02*
G03*
X35760Y9674I-200J0D01*
G01*
X37520Y13410D02*
G03*
X37520Y13410I-200J0D01*
G01*
X33240Y13450D02*
G03*
X33240Y13450I-200J0D01*
G01*
X30650Y11090D02*
G03*
X30650Y11090I-200J0D01*
G01*
X23750Y11270D02*
G03*
X23750Y11270I-200J0D01*
G01*
X3060Y11280D02*
G03*
X3060Y11280I-200J0D01*
G01*
X13700Y12335D02*
G03*
X13700Y12335I-200J0D01*
G01*
X36330Y7160D02*
G03*
X36330Y7160I-200J0D01*
G01*
X35630Y7650D02*
G03*
X35630Y7650I-200J0D01*
G01*
X28570Y7590D02*
G03*
X28570Y7590I-200J0D01*
G01*
X29210Y7150D02*
G03*
X29210Y7150I-200J0D01*
G01*
X20205Y9010D02*
G03*
X20205Y9010I-200J0D01*
G01*
X21440Y7660D02*
G03*
X21440Y7660I-200J0D01*
G01*
X22150Y7170D02*
G03*
X22150Y7170I-200J0D01*
G01*
X690Y12690D02*
G03*
X690Y12690I-200J0D01*
G01*
X20740Y13430D02*
G03*
X20740Y13430I-200J0D01*
G01*
X650Y31390D02*
G03*
X650Y31390I-200J0D01*
G01*
X700Y10580D02*
G03*
X700Y10580I-200J0D01*
G01*
X2200Y19900D02*
G03*
X2200Y19900I-200J0D01*
G01*
X4080Y19030D02*
G03*
X4080Y19030I-200J0D01*
G01*
X5610Y19050D02*
G03*
X5610Y19050I-200J0D01*
G01*
X6030D02*
G03*
X6030Y19050I-200J0D01*
G01*
X6655Y19055D02*
G03*
X6655Y19055I-200J0D01*
G01*
X3660Y19050D02*
G03*
X3660Y19050I-200J0D01*
G01*
X8490Y16620D02*
G03*
X8490Y16620I-200J0D01*
G01*
X7810Y16870D02*
G03*
X7810Y16870I-200J0D01*
G01*
X13830Y16290D02*
G03*
X13830Y16290I-200J0D01*
G01*
X14880Y17450D02*
G03*
X14880Y17450I-200J0D01*
G01*
X14540Y17270D02*
G03*
X14540Y17270I-200J0D01*
G01*
X15080Y16940D02*
G03*
X15080Y16940I-200J0D01*
G01*
X15430Y16810D02*
G03*
X15430Y16810I-200J0D01*
G01*
X16393Y16663D02*
G03*
X16393Y16663I-200J0D01*
G01*
X19630Y17905D02*
G03*
X19630Y17905I-200J0D01*
G01*
X19330Y12050D02*
G03*
X19330Y12050I-200J0D01*
G01*
X23580Y13320D02*
G03*
X23580Y13320I-200J0D01*
G01*
X20100Y13330D02*
G03*
X20100Y13330I-200J0D01*
G01*
X15840Y18240D02*
G03*
X15840Y18240I-200J0D01*
G01*
X15480Y18330D02*
G03*
X15480Y18330I-200J0D01*
G01*
X21870Y20140D02*
G03*
X21870Y20140I-200J0D01*
G01*
X22170Y20580D02*
G03*
X22170Y20580I-200J0D01*
G01*
X22120Y19820D02*
G03*
X22120Y19820I-200J0D01*
G01*
X17380Y25130D02*
G03*
X17380Y25130I-200J0D01*
G01*
X24130Y21390D02*
G03*
X24130Y21390I-200J0D01*
G01*
X26470Y15990D02*
G03*
X26470Y15990I-200J0D01*
G01*
X24330Y21920D02*
G03*
X24330Y21920I-200J0D01*
G01*
X33720Y15470D02*
G03*
X33720Y15470I-200J0D01*
G01*
X23860Y24960D02*
G03*
X23860Y24960I-200J0D01*
G01*
X21964Y23640D02*
G03*
X21964Y23640I-200J0D01*
G01*
X29410Y13550D02*
G03*
X29410Y13550I-200J0D01*
G01*
X24100Y22970D02*
G03*
X24100Y22970I-200J0D01*
G01*
X24400Y23180D02*
G03*
X24400Y23180I-200J0D01*
G01*
X24390Y22480D02*
G03*
X24390Y22480I-200J0D01*
G01*
X24200Y23550D02*
G03*
X24200Y23550I-200J0D01*
G01*
X23820Y22740D02*
G03*
X23820Y22740I-200J0D01*
G01*
X21020Y27570D02*
G03*
X21020Y27570I-200J0D01*
G01*
X20540Y24690D02*
G03*
X20540Y24690I-200J0D01*
G01*
X20090Y26710D02*
G03*
X20090Y26710I-200J0D01*
G01*
X19730Y26120D02*
G03*
X19730Y26120I-200J0D01*
G01*
X20450Y26610D02*
G03*
X20450Y26610I-200J0D01*
G01*
X20490Y25050D02*
G03*
X20490Y25050I-200J0D01*
G01*
X22210Y27860D02*
G03*
X22210Y27860I-200J0D01*
G01*
X20850Y26970D02*
G03*
X20850Y26970I-200J0D01*
G01*
X22440Y20860D02*
G03*
X22440Y20860I-200J0D01*
G01*
X33980Y15990D02*
G03*
X33980Y15990I-200J0D01*
G01*
X19540Y24830D02*
G03*
X19540Y24830I-200J0D01*
G01*
X19860Y25050D02*
G03*
X19860Y25050I-200J0D01*
G01*
X14350Y7680D02*
G03*
X14350Y7680I-200J0D01*
G01*
X15060Y7160D02*
G03*
X15060Y7160I-200J0D01*
G01*
X6146Y9010D02*
G03*
X6146Y9010I-200J0D01*
G01*
X7950Y7170D02*
G03*
X7950Y7170I-200J0D01*
G01*
X30410Y13910D02*
G03*
X30410Y13910I-200J0D01*
G01*
X23930Y20740D02*
G03*
X23930Y20740I-200J0D01*
G01*
X22480Y19770D02*
G03*
X22480Y19770I-200J0D01*
G01*
X22260Y19480D02*
G03*
X22260Y19480I-200J0D01*
G01*
X24720Y13910D02*
G03*
X24720Y13910I-200J0D01*
G01*
X23840Y23640D02*
G03*
X23840Y23640I-200J0D01*
G01*
X23860Y19750D02*
G03*
X23860Y19750I-200J0D01*
G01*
X15780Y18620D02*
G03*
X15780Y18620I-200J0D01*
G01*
X15490Y18950D02*
G03*
X15490Y18950I-200J0D01*
G01*
X22360Y16060D02*
G03*
X22360Y16060I-200J0D01*
G01*
X22630Y19190D02*
G03*
X22630Y19190I-200J0D01*
G01*
X22420Y18880D02*
G03*
X22420Y18880I-200J0D01*
G01*
X22630Y18580D02*
G03*
X22630Y18580I-200J0D01*
G01*
X29410Y14540D02*
G03*
X29410Y14540I-200J0D01*
G01*
X31520Y15970D02*
G03*
X31520Y15970I-200J0D01*
G01*
X28770Y15980D02*
G03*
X28770Y15980I-200J0D01*
G01*
X26960Y17430D02*
G03*
X26960Y17430I-200J0D01*
G01*
X35980Y17160D02*
G03*
X35980Y17160I-200J0D01*
G01*
X9620Y12210D02*
G03*
X9620Y12210I-200J0D01*
G01*
X13490Y24930D02*
G03*
X13490Y24930I-200J0D01*
G01*
X28690Y16680D02*
G03*
X28690Y16680I-200J0D01*
G01*
X33990Y16970D02*
G03*
X33990Y16970I-200J0D01*
G01*
X31980Y17450D02*
G03*
X31980Y17450I-200J0D01*
G01*
X31460Y16970D02*
G03*
X31460Y16970I-200J0D01*
G01*
X34480Y17430D02*
G03*
X34480Y17430I-200J0D01*
G01*
X32960Y17120D02*
G03*
X32960Y17120I-200J0D01*
G01*
X29480Y17450D02*
G03*
X29480Y17450I-200J0D01*
G01*
X30500Y17180D02*
G03*
X30500Y17180I-200J0D01*
G01*
X28000D02*
G03*
X28000Y17180I-200J0D01*
G01*
X29380Y15060D02*
G03*
X29380Y15060I-200J0D01*
G01*
X30550Y14510D02*
G03*
X30550Y14510I-200J0D01*
G01*
X14090Y23880D02*
G03*
X14090Y23880I-200J0D01*
G01*
X25800Y29160D02*
G03*
X25800Y29160I-200J0D01*
G01*
X27301Y12080D02*
G03*
X27301Y12080I-200J0D01*
G01*
X26831D02*
G03*
X26831Y12080I-200J0D01*
G01*
X26411D02*
G03*
X26411Y12080I-200J0D01*
G01*
X33920D02*
G03*
X33920Y12080I-200J0D01*
G01*
X34390D02*
G03*
X34390Y12080I-200J0D01*
G01*
X30318Y35817D02*
G03*
X30318Y35817I-200J0D01*
G01*
X38340Y14006D02*
G03*
X38340Y14006I-200J0D01*
G01*
X39058Y16142D02*
G03*
X39058Y16142I-200J0D01*
G01*
X39383Y14990D02*
G03*
X39383Y14990I-200J0D01*
G01*
X13490Y24550D02*
G03*
X13490Y24550I-200J0D01*
G01*
X15500Y24522D02*
G03*
X15500Y24522I-200J0D01*
G01*
X38369Y21260D02*
G03*
X38369Y21260I-200J0D01*
G01*
X39806D02*
G03*
X39806Y21260I-200J0D01*
G01*
X4200Y18400D02*
G03*
X4200Y18400I-200J0D01*
G01*
X38556Y16339D02*
G03*
X38556Y16339I-200J0D01*
G01*
X40200Y16350D02*
G03*
X40200Y16350I-200J0D01*
G01*
X39550D02*
G03*
X39550Y16350I-200J0D01*
G01*
Y15950D02*
G03*
X39550Y15950I-200J0D01*
G01*
X40298Y14016D02*
G03*
X40298Y14016I-200J0D01*
G01*
X39659D02*
G03*
X39659Y14016I-200J0D01*
G01*
X39029D02*
G03*
X39029Y14016I-200J0D01*
G01*
X40200Y15950D02*
G03*
X40200Y15950I-200J0D01*
G01*
X38556Y15965D02*
G03*
X38556Y15965I-200J0D01*
G01*
X30050Y31050D02*
G03*
X30050Y31050I-200J0D01*
G01*
X31050D02*
G03*
X31050Y31050I-200J0D01*
G01*
X31950Y28400D02*
G03*
X31950Y28400I-200J0D01*
G01*
X31000D02*
G03*
X31000Y28400I-200J0D01*
G01*
X30050Y30350D02*
G03*
X30050Y30350I-200J0D01*
G01*
Y29700D02*
G03*
X30050Y29700I-200J0D01*
G01*
X31950Y29000D02*
G03*
X31950Y29000I-200J0D01*
G01*
Y29700D02*
G03*
X31950Y29700I-200J0D01*
G01*
Y30350D02*
G03*
X31950Y30350I-200J0D01*
G01*
X31000Y29700D02*
G03*
X31000Y29700I-200J0D01*
G01*
X34850Y29050D02*
G03*
X34850Y29050I-200J0D01*
G01*
Y29750D02*
G03*
X34850Y29750I-200J0D01*
G01*
Y30400D02*
G03*
X34850Y30400I-200J0D01*
G01*
X35400Y28350D02*
G03*
X35400Y28350I-200J0D01*
G01*
Y31050D02*
G03*
X35400Y31050I-200J0D01*
G01*
Y29750D02*
G03*
X35400Y29750I-200J0D01*
G01*
X37200Y29700D02*
G03*
X37200Y29700I-200J0D01*
G01*
X36300Y31050D02*
G03*
X36300Y31050I-200J0D01*
G01*
X37200Y30350D02*
G03*
X37200Y30350I-200J0D01*
G01*
Y29000D02*
G03*
X37200Y29000I-200J0D01*
G01*
X36300Y28350D02*
G03*
X36300Y28350I-200J0D01*
G01*
X35400Y29050D02*
G03*
X35400Y29050I-200J0D01*
G01*
Y30400D02*
G03*
X35400Y30400I-200J0D01*
G01*
X36300Y29700D02*
G03*
X36300Y29700I-200J0D01*
G01*
X39150Y21750D02*
G03*
X39150Y21750I-200J0D01*
G01*
X38300D02*
G03*
X38300Y21750I-200J0D01*
G01*
X37550Y26250D02*
G03*
X37550Y26250I-200J0D01*
G01*
Y23650D02*
G03*
X37550Y23650I-200J0D01*
G01*
Y24250D02*
G03*
X37550Y24250I-200J0D01*
G01*
Y24900D02*
G03*
X37550Y24900I-200J0D01*
G01*
Y25450D02*
G03*
X37550Y25450I-200J0D01*
G01*
X40200Y19370D02*
G03*
X40200Y19370I-200J0D01*
G01*
X38250Y19400D02*
G03*
X38250Y19400I-200J0D01*
G01*
X39098Y21250D02*
G03*
X39098Y21250I-200J0D01*
G01*
X39403Y19380D02*
G03*
X39403Y19380I-200J0D01*
G01*
X37600Y31760D02*
G03*
X37600Y31760I-200J0D01*
G01*
X34150Y31500D02*
G03*
X34150Y31500I-200J0D01*
G01*
X36900Y31760D02*
G03*
X36900Y31760I-200J0D01*
G01*
X36200D02*
G03*
X36200Y31760I-200J0D01*
G01*
X35500D02*
G03*
X35500Y31760I-200J0D01*
G01*
X34800D02*
G03*
X34800Y31760I-200J0D01*
G01*
X34150Y30800D02*
G03*
X34150Y30800I-200J0D01*
G01*
X34100Y30250D02*
G03*
X34100Y30250I-200J0D01*
G01*
Y29650D02*
G03*
X34100Y29650I-200J0D01*
G01*
Y29050D02*
G03*
X34100Y29050I-200J0D01*
G01*
Y28550D02*
G03*
X34100Y28550I-200J0D01*
G01*
Y34900D02*
G03*
X34100Y34900I-200J0D01*
G01*
X34150Y32250D02*
G03*
X34150Y32250I-200J0D01*
G01*
Y32950D02*
G03*
X34150Y32950I-200J0D01*
G01*
X34100Y33600D02*
G03*
X34100Y33600I-200J0D01*
G01*
Y34300D02*
G03*
X34100Y34300I-200J0D01*
G01*
X31980Y32240D02*
G03*
X31980Y32240I-200J0D01*
G01*
X32020Y34850D02*
G03*
X32020Y34850I-200J0D01*
G01*
X30000Y33650D02*
G03*
X30000Y33650I-200J0D01*
G01*
X32000Y33550D02*
G03*
X32000Y33550I-200J0D01*
G01*
X35400Y27950D02*
G03*
X35400Y27950I-200J0D01*
G01*
X33100Y28550D02*
G03*
X33100Y28550I-200J0D01*
G01*
Y29100D02*
G03*
X33100Y29100I-200J0D01*
G01*
Y29650D02*
G03*
X33100Y29650I-200J0D01*
G01*
Y30250D02*
G03*
X33100Y30250I-200J0D01*
G01*
Y30800D02*
G03*
X33100Y30800I-200J0D01*
G01*
X30000Y32250D02*
G03*
X30000Y32250I-200J0D01*
G01*
X31000D02*
G03*
X31000Y32250I-200J0D01*
G01*
Y33600D02*
G03*
X31000Y33600I-200J0D01*
G01*
X32000Y32950D02*
G03*
X32000Y32950I-200J0D01*
G01*
Y34300D02*
G03*
X32000Y34300I-200J0D01*
G01*
X34850Y32250D02*
G03*
X34850Y32250I-200J0D01*
G01*
Y32950D02*
G03*
X34850Y32950I-200J0D01*
G01*
Y33600D02*
G03*
X34850Y33600I-200J0D01*
G01*
Y34250D02*
G03*
X34850Y34250I-200J0D01*
G01*
X37250Y32250D02*
G03*
X37250Y32250I-200J0D01*
G01*
X35350D02*
G03*
X35350Y32250I-200J0D01*
G01*
X37250Y33600D02*
G03*
X37250Y33600I-200J0D01*
G01*
X35350D02*
G03*
X35350Y33600I-200J0D01*
G01*
X37250Y34300D02*
G03*
X37250Y34300I-200J0D01*
G01*
Y32950D02*
G03*
X37250Y32950I-200J0D01*
G01*
X36300Y32250D02*
G03*
X36300Y32250I-200J0D01*
G01*
X35350Y32950D02*
G03*
X35350Y32950I-200J0D01*
G01*
Y34250D02*
G03*
X35350Y34250I-200J0D01*
G01*
X22470Y32160D02*
G03*
X22470Y32160I-200J0D01*
G01*
X17020Y32520D02*
G03*
X17020Y32520I-200J0D01*
G01*
X12870Y32960D02*
G03*
X12870Y32960I-200J0D01*
G01*
X9020Y32520D02*
G03*
X9020Y32520I-200J0D01*
G01*
X17920Y32960D02*
G03*
X17920Y32960I-200J0D01*
G01*
X13890Y32980D02*
G03*
X13890Y32980I-200J0D01*
G01*
X9910Y32970D02*
G03*
X9910Y32970I-200J0D01*
G01*
X10220Y32520D02*
G03*
X10220Y32520I-200J0D01*
G01*
X8900Y32970D02*
G03*
X8900Y32970I-200J0D01*
G01*
X9420D02*
G03*
X9420Y32970I-200J0D01*
G01*
X9820Y32520D02*
G03*
X9820Y32520I-200J0D01*
G01*
X9420D02*
G03*
X9420Y32520I-200J0D01*
G01*
X21390Y31710D02*
G03*
X21390Y31710I-200J0D01*
G01*
X22606D02*
G03*
X22606Y31710I-200J0D01*
G01*
X13830Y32520D02*
G03*
X13830Y32520I-200J0D01*
G01*
X14230D02*
G03*
X14230Y32520I-200J0D01*
G01*
X13400Y32970D02*
G03*
X13400Y32970I-200J0D01*
G01*
X13430Y32520D02*
G03*
X13430Y32520I-200J0D01*
G01*
X13030D02*
G03*
X13030Y32520I-200J0D01*
G01*
X17420D02*
G03*
X17420Y32520I-200J0D01*
G01*
X17820D02*
G03*
X17820Y32520I-200J0D01*
G01*
X17390Y32970D02*
G03*
X17390Y32970I-200J0D01*
G01*
X16870Y32960D02*
G03*
X16870Y32960I-200J0D01*
G01*
X18220Y32520D02*
G03*
X18220Y32520I-200J0D01*
G01*
X33674Y37352D02*
G03*
X33674Y37352I-200J0D01*
G01*
X31633Y37564D02*
G03*
X31633Y37564I-200J0D01*
G01*
X35620Y38750D02*
G03*
X35620Y38750I-200J0D01*
G01*
X720Y32890D02*
G03*
X720Y32890I-200J0D01*
G01*
X12430Y28560D02*
G03*
X12430Y28560I-200J0D01*
G01*
X31660Y14350D02*
G03*
X31660Y14350I-200J0D01*
G01*
X37120Y38800D02*
G03*
X37120Y38800I-200J0D01*
G01*
X21694Y31710D02*
G03*
X21694Y31710I-200J0D01*
G01*
X21390Y32000D02*
G03*
X21390Y32000I-200J0D01*
G01*
X7000Y25160D02*
G03*
X7000Y25160I-200J0D01*
G01*
X22910Y31710D02*
G03*
X22910Y31710I-200J0D01*
G01*
X21950Y32160D02*
G03*
X21950Y32160I-200J0D01*
G01*
X21998Y31710D02*
G03*
X21998Y31710I-200J0D01*
G01*
X30000Y32950D02*
G03*
X30000Y32950I-200J0D01*
G01*
Y34300D02*
G03*
X30000Y34300I-200J0D01*
G01*
X31000Y34950D02*
G03*
X31000Y34950I-200J0D01*
G01*
X30400Y35300D02*
G03*
X30400Y35300I-200J0D01*
G01*
X38900Y12650D02*
G03*
X38900Y12650I-200J0D01*
G01*
Y12050D02*
G03*
X38900Y12050I-200J0D01*
G01*
Y11300D02*
G03*
X38900Y11300I-200J0D01*
G01*
Y10700D02*
G03*
X38900Y10700I-200J0D01*
G01*
X38400Y10650D02*
G03*
X38400Y10650I-200J0D01*
G01*
Y11300D02*
G03*
X38400Y11300I-200J0D01*
G01*
Y12050D02*
G03*
X38400Y12050I-200J0D01*
G01*
Y12650D02*
G03*
X38400Y12650I-200J0D01*
G01*
X25970Y32248D02*
G03*
X25970Y32248I-200J0D01*
G01*
Y31835D02*
G03*
X25970Y31835I-200J0D01*
G01*
X35120Y38750D02*
G03*
X35120Y38750I-200J0D01*
G01*
X1830Y20090D02*
G03*
X1830Y20090I-200J0D01*
G01*
X40190Y18100D02*
G03*
X40190Y18100I-200J0D01*
G01*
X40180Y16801D02*
G03*
X40180Y16801I-200J0D01*
G01*
X38420Y18080D02*
G03*
X38420Y18080I-200J0D01*
G01*
X38458Y16791D02*
G03*
X38458Y16791I-200J0D01*
G01*
X20140Y24800D02*
G03*
X20140Y24800I-200J0D01*
G01*
X13600Y24160D02*
G03*
X13600Y24160I-200J0D01*
G01*
X3330Y29010D02*
G03*
X3330Y29010I-200J0D01*
G01*
X30840Y36320D02*
G03*
X30840Y36320I-200J0D01*
G01*
X31510Y35770D02*
G03*
X31510Y35770I-200J0D01*
G01*
X32242Y39424D02*
G03*
X32242Y39424I-200J0D01*
G01*
X39344Y20305D02*
G03*
X39344Y20305I-200J0D01*
G01*
X40200Y21270D02*
G03*
X40200Y21270I-200J0D01*
G01*
X33520Y12080D02*
G03*
X33520Y12080I-200J0D01*
G01*
X20220D02*
G03*
X20220Y12080I-200J0D01*
G01*
X19750D02*
G03*
X19750Y12080I-200J0D01*
G01*
X16720Y11290D02*
G03*
X16720Y11290I-200J0D01*
G01*
X11624Y7860D02*
G03*
X11624Y7860I-200J0D01*
G01*
X11264D02*
G03*
X11264Y7860I-200J0D01*
G01*
X13540Y7680D02*
G03*
X13540Y7680I-200J0D01*
G01*
X13124Y12080D02*
G03*
X13124Y12080I-200J0D01*
G01*
X12654D02*
G03*
X12654Y12080I-200J0D01*
G01*
X12234D02*
G03*
X12234Y12080I-200J0D01*
G01*
X11264Y7600D02*
G03*
X11264Y7600I-200J0D01*
G01*
X11624D02*
G03*
X11624Y7600I-200J0D01*
G01*
X10425Y4030D02*
G03*
X10425Y4030I-200J0D01*
G01*
X9670Y11310D02*
G03*
X9670Y11310I-200J0D01*
G01*
X6140Y12050D02*
G03*
X6140Y12050I-200J0D01*
G01*
X5670D02*
G03*
X5670Y12050I-200J0D01*
G01*
X2811Y10200D02*
G03*
X2811Y10200I-200J0D01*
G01*
X10685Y4030D02*
G03*
X10685Y4030I-200J0D01*
G01*
X12280Y7790D02*
G03*
X12280Y7790I-200J0D01*
G01*
Y7510D02*
G03*
X12280Y7510I-200J0D01*
G01*
X8630Y7540D02*
G03*
X8630Y7540I-200J0D01*
G01*
X10660Y7800D02*
G03*
X10660Y7800I-200J0D01*
G01*
Y7530D02*
G03*
X10660Y7530I-200J0D01*
G01*
X13310Y7250D02*
G03*
X13310Y7250I-200J0D01*
G01*
X9790Y7410D02*
G03*
X9790Y7410I-200J0D01*
G01*
X10060D02*
G03*
X10060Y7410I-200J0D01*
G01*
X13600Y5870D02*
G03*
X13600Y5870I-200J0D01*
G01*
X13410Y6050D02*
G03*
X13410Y6050I-200J0D01*
G01*
X13310Y5330D02*
G03*
X13310Y5330I-200J0D01*
G01*
X13140Y5520D02*
G03*
X13140Y5520I-200J0D01*
G01*
X14180Y6220D02*
G03*
X14180Y6220I-200J0D01*
G01*
X12765Y4030D02*
G03*
X12765Y4030I-200J0D01*
G01*
X9746Y5520D02*
G03*
X9746Y5520I-200J0D01*
G01*
X9576Y5330D02*
G03*
X9576Y5330I-200J0D01*
G01*
X9476Y6050D02*
G03*
X9476Y6050I-200J0D01*
G01*
X9286Y5870D02*
G03*
X9286Y5870I-200J0D01*
G01*
X10190Y4890D02*
G03*
X10190Y4890I-200J0D01*
G01*
X10517D02*
G03*
X10517Y4890I-200J0D01*
G01*
X10843D02*
G03*
X10843Y4890I-200J0D01*
G01*
X11170D02*
G03*
X11170Y4890I-200J0D01*
G01*
X11670D02*
G03*
X11670Y4890I-200J0D01*
G01*
X12007D02*
G03*
X12007Y4890I-200J0D01*
G01*
X12343D02*
G03*
X12343Y4890I-200J0D01*
G01*
X12680D02*
G03*
X12680Y4890I-200J0D01*
G01*
X11130Y6150D02*
G03*
X11130Y6150I-200J0D01*
G01*
X11810D02*
G03*
X11810Y6150I-200J0D01*
G01*
X8590Y6200D02*
G03*
X8590Y6200I-200J0D01*
G01*
X8320D02*
G03*
X8320Y6200I-200J0D01*
G01*
X14825Y3010D02*
G03*
X14825Y3010I-200J0D01*
G01*
X12790Y7350D02*
G03*
X12790Y7350I-200J0D01*
G01*
X13040Y7260D02*
G03*
X13040Y7260I-200J0D01*
G01*
X20401Y7250D02*
G03*
X20401Y7250I-200J0D01*
G01*
X19881Y7350D02*
G03*
X19881Y7350I-200J0D01*
G01*
X20131Y7260D02*
G03*
X20131Y7260I-200J0D01*
G01*
X21621Y3010D02*
G03*
X21621Y3010I-200J0D01*
G01*
X15441Y2990D02*
G03*
X15441Y2990I-200J0D01*
G01*
X15411Y6200D02*
G03*
X15411Y6200I-200J0D01*
G01*
X15681D02*
G03*
X15681Y6200I-200J0D01*
G01*
X18901Y6150D02*
G03*
X18901Y6150I-200J0D01*
G01*
X18221D02*
G03*
X18221Y6150I-200J0D01*
G01*
X19771Y4890D02*
G03*
X19771Y4890I-200J0D01*
G01*
X19435D02*
G03*
X19435Y4890I-200J0D01*
G01*
X19098D02*
G03*
X19098Y4890I-200J0D01*
G01*
X18761D02*
G03*
X18761Y4890I-200J0D01*
G01*
X18261D02*
G03*
X18261Y4890I-200J0D01*
G01*
X17935D02*
G03*
X17935Y4890I-200J0D01*
G01*
X17608D02*
G03*
X17608Y4890I-200J0D01*
G01*
X17281D02*
G03*
X17281Y4890I-200J0D01*
G01*
X15847Y4090D02*
G03*
X15847Y4090I-200J0D01*
G01*
X16377Y5870D02*
G03*
X16377Y5870I-200J0D01*
G01*
X16567Y6050D02*
G03*
X16567Y6050I-200J0D01*
G01*
X16667Y5330D02*
G03*
X16667Y5330I-200J0D01*
G01*
X16837Y5520D02*
G03*
X16837Y5520I-200J0D01*
G01*
X19561Y4030D02*
G03*
X19561Y4030I-200J0D01*
G01*
X19831D02*
G03*
X19831Y4030I-200J0D01*
G01*
X21271Y6220D02*
G03*
X21271Y6220I-200J0D01*
G01*
X20231Y5520D02*
G03*
X20231Y5520I-200J0D01*
G01*
X20401Y5330D02*
G03*
X20401Y5330I-200J0D01*
G01*
X20501Y6050D02*
G03*
X20501Y6050I-200J0D01*
G01*
X20691Y5870D02*
G03*
X20691Y5870I-200J0D01*
G01*
X17151Y7410D02*
G03*
X17151Y7410I-200J0D01*
G01*
X16881D02*
G03*
X16881Y7410I-200J0D01*
G01*
X17751Y7530D02*
G03*
X17751Y7530I-200J0D01*
G01*
Y7800D02*
G03*
X17751Y7800I-200J0D01*
G01*
X15721Y7520D02*
G03*
X15721Y7520I-200J0D01*
G01*
X19371Y7510D02*
G03*
X19371Y7510I-200J0D01*
G01*
Y7790D02*
G03*
X19371Y7790I-200J0D01*
G01*
X17481Y4030D02*
G03*
X17481Y4030I-200J0D01*
G01*
X21221Y4090D02*
G03*
X21221Y4090I-200J0D01*
G01*
X17221Y4030D02*
G03*
X17221Y4030I-200J0D01*
G01*
X18715Y7600D02*
G03*
X18715Y7600I-200J0D01*
G01*
X18355D02*
G03*
X18355Y7600I-200J0D01*
G01*
X20631Y7680D02*
G03*
X20631Y7680I-200J0D01*
G01*
X18355Y7860D02*
G03*
X18355Y7860I-200J0D01*
G01*
X18715D02*
G03*
X18715Y7860I-200J0D01*
G01*
X27487Y7250D02*
G03*
X27487Y7250I-200J0D01*
G01*
X26967Y7350D02*
G03*
X26967Y7350I-200J0D01*
G01*
X27217Y7260D02*
G03*
X27217Y7260I-200J0D01*
G01*
X22527Y2990D02*
G03*
X22527Y2990I-200J0D01*
G01*
X22497Y6200D02*
G03*
X22497Y6200I-200J0D01*
G01*
X22767D02*
G03*
X22767Y6200I-200J0D01*
G01*
X25987Y6150D02*
G03*
X25987Y6150I-200J0D01*
G01*
X25307D02*
G03*
X25307Y6150I-200J0D01*
G01*
X26857Y4890D02*
G03*
X26857Y4890I-200J0D01*
G01*
X26521D02*
G03*
X26521Y4890I-200J0D01*
G01*
X26184D02*
G03*
X26184Y4890I-200J0D01*
G01*
X25847D02*
G03*
X25847Y4890I-200J0D01*
G01*
X25347D02*
G03*
X25347Y4890I-200J0D01*
G01*
X25021D02*
G03*
X25021Y4890I-200J0D01*
G01*
X24694D02*
G03*
X24694Y4890I-200J0D01*
G01*
X24367D02*
G03*
X24367Y4890I-200J0D01*
G01*
X22933Y4090D02*
G03*
X22933Y4090I-200J0D01*
G01*
X23463Y5870D02*
G03*
X23463Y5870I-200J0D01*
G01*
X23653Y6050D02*
G03*
X23653Y6050I-200J0D01*
G01*
X23753Y5330D02*
G03*
X23753Y5330I-200J0D01*
G01*
X23923Y5520D02*
G03*
X23923Y5520I-200J0D01*
G01*
X26647Y4030D02*
G03*
X26647Y4030I-200J0D01*
G01*
X26917D02*
G03*
X26917Y4030I-200J0D01*
G01*
X28357Y6220D02*
G03*
X28357Y6220I-200J0D01*
G01*
X27317Y5520D02*
G03*
X27317Y5520I-200J0D01*
G01*
X27487Y5330D02*
G03*
X27487Y5330I-200J0D01*
G01*
X27587Y6050D02*
G03*
X27587Y6050I-200J0D01*
G01*
X27777Y5870D02*
G03*
X27777Y5870I-200J0D01*
G01*
X24237Y7410D02*
G03*
X24237Y7410I-200J0D01*
G01*
X23967D02*
G03*
X23967Y7410I-200J0D01*
G01*
X24837Y7530D02*
G03*
X24837Y7530I-200J0D01*
G01*
Y7800D02*
G03*
X24837Y7800I-200J0D01*
G01*
X22807Y7540D02*
G03*
X22807Y7540I-200J0D01*
G01*
X26457Y7510D02*
G03*
X26457Y7510I-200J0D01*
G01*
Y7790D02*
G03*
X26457Y7790I-200J0D01*
G01*
X24567Y4030D02*
G03*
X24567Y4030I-200J0D01*
G01*
X28307Y4090D02*
G03*
X28307Y4090I-200J0D01*
G01*
X24307Y4030D02*
G03*
X24307Y4030I-200J0D01*
G01*
X25801Y7600D02*
G03*
X25801Y7600I-200J0D01*
G01*
X25441D02*
G03*
X25441Y7600I-200J0D01*
G01*
X27291Y9010D02*
G03*
X27291Y9010I-200J0D01*
G01*
X27717Y7680D02*
G03*
X27717Y7680I-200J0D01*
G01*
X25441Y7860D02*
G03*
X25441Y7860I-200J0D01*
G01*
X25801D02*
G03*
X25801Y7860I-200J0D01*
G01*
X34576Y7250D02*
G03*
X34576Y7250I-200J0D01*
G01*
X34056Y7350D02*
G03*
X34056Y7350I-200J0D01*
G01*
X34306Y7260D02*
G03*
X34306Y7260I-200J0D01*
G01*
X35796Y3010D02*
G03*
X35796Y3010I-200J0D01*
G01*
X29586Y6200D02*
G03*
X29586Y6200I-200J0D01*
G01*
X29856D02*
G03*
X29856Y6200I-200J0D01*
G01*
X33070Y6150D02*
G03*
X33070Y6150I-200J0D01*
G01*
X32396D02*
G03*
X32396Y6150I-200J0D01*
G01*
X33946Y4890D02*
G03*
X33946Y4890I-200J0D01*
G01*
X33609D02*
G03*
X33609Y4890I-200J0D01*
G01*
X33272D02*
G03*
X33272Y4890I-200J0D01*
G01*
X32936D02*
G03*
X32936Y4890I-200J0D01*
G01*
X32436D02*
G03*
X32436Y4890I-200J0D01*
G01*
X32109D02*
G03*
X32109Y4890I-200J0D01*
G01*
X31782D02*
G03*
X31782Y4890I-200J0D01*
G01*
X31456D02*
G03*
X31456Y4890I-200J0D01*
G01*
X30022Y4090D02*
G03*
X30022Y4090I-200J0D01*
G01*
X30552Y5870D02*
G03*
X30552Y5870I-200J0D01*
G01*
X30742Y6050D02*
G03*
X30742Y6050I-200J0D01*
G01*
X30842Y5330D02*
G03*
X30842Y5330I-200J0D01*
G01*
X31012Y5520D02*
G03*
X31012Y5520I-200J0D01*
G01*
X33736Y4030D02*
G03*
X33736Y4030I-200J0D01*
G01*
X34006D02*
G03*
X34006Y4030I-200J0D01*
G01*
X35446Y6220D02*
G03*
X35446Y6220I-200J0D01*
G01*
X34576Y5330D02*
G03*
X34576Y5330I-200J0D01*
G01*
X34676Y6050D02*
G03*
X34676Y6050I-200J0D01*
G01*
X34866Y5870D02*
G03*
X34866Y5870I-200J0D01*
G01*
X31326Y7410D02*
G03*
X31326Y7410I-200J0D01*
G01*
X31056D02*
G03*
X31056Y7410I-200J0D01*
G01*
X31926Y7530D02*
G03*
X31926Y7530I-200J0D01*
G01*
Y7800D02*
G03*
X31926Y7800I-200J0D01*
G01*
X29896Y7540D02*
G03*
X29896Y7540I-200J0D01*
G01*
X33546Y7510D02*
G03*
X33546Y7510I-200J0D01*
G01*
Y7790D02*
G03*
X33546Y7790I-200J0D01*
G01*
X31656Y4030D02*
G03*
X31656Y4030I-200J0D01*
G01*
X35396Y4090D02*
G03*
X35396Y4090I-200J0D01*
G01*
X31396Y4030D02*
G03*
X31396Y4030I-200J0D01*
G01*
X32530Y7600D02*
G03*
X32530Y7600I-200J0D01*
G01*
X34380Y9010D02*
G03*
X34380Y9010I-200J0D01*
G01*
X34806Y7680D02*
G03*
X34806Y7680I-200J0D01*
G01*
X32530Y7860D02*
G03*
X32530Y7860I-200J0D01*
G01*
X32890D02*
G03*
X32890Y7860I-200J0D01*
G01*
X720Y33320D02*
G03*
X720Y33320I-200J0D01*
G01*
X6341Y7250D02*
G03*
X6341Y7250I-200J0D01*
G01*
X5821Y7350D02*
G03*
X5821Y7350I-200J0D01*
G01*
X6071Y7260D02*
G03*
X6071Y7260I-200J0D01*
G01*
X7957Y3010D02*
G03*
X7957Y3010I-200J0D01*
G01*
X1351Y6200D02*
G03*
X1351Y6200I-200J0D01*
G01*
X7581Y6230D02*
G03*
X7581Y6230I-200J0D01*
G01*
X1621Y6200D02*
G03*
X1621Y6200I-200J0D01*
G01*
X4841Y6150D02*
G03*
X4841Y6150I-200J0D01*
G01*
X4161D02*
G03*
X4161Y6150I-200J0D01*
G01*
X5711Y4890D02*
G03*
X5711Y4890I-200J0D01*
G01*
X5375D02*
G03*
X5375Y4890I-200J0D01*
G01*
X5038D02*
G03*
X5038Y4890I-200J0D01*
G01*
X4701D02*
G03*
X4701Y4890I-200J0D01*
G01*
X4201D02*
G03*
X4201Y4890I-200J0D01*
G01*
X3875D02*
G03*
X3875Y4890I-200J0D01*
G01*
X3548D02*
G03*
X3548Y4890I-200J0D01*
G01*
X3221D02*
G03*
X3221Y4890I-200J0D01*
G01*
X2317Y5870D02*
G03*
X2317Y5870I-200J0D01*
G01*
X2507Y6050D02*
G03*
X2507Y6050I-200J0D01*
G01*
X2607Y5330D02*
G03*
X2607Y5330I-200J0D01*
G01*
X2777Y5520D02*
G03*
X2777Y5520I-200J0D01*
G01*
X5895Y4030D02*
G03*
X5895Y4030I-200J0D01*
G01*
X6165D02*
G03*
X6165Y4030I-200J0D01*
G01*
X7311Y6220D02*
G03*
X7311Y6220I-200J0D01*
G01*
X6341Y5330D02*
G03*
X6341Y5330I-200J0D01*
G01*
X6441Y6050D02*
G03*
X6441Y6050I-200J0D01*
G01*
X6631Y5870D02*
G03*
X6631Y5870I-200J0D01*
G01*
X3091Y7410D02*
G03*
X3091Y7410I-200J0D01*
G01*
X2821D02*
G03*
X2821Y7410I-200J0D01*
G01*
X3691Y7530D02*
G03*
X3691Y7530I-200J0D01*
G01*
Y7800D02*
G03*
X3691Y7800I-200J0D01*
G01*
X1661Y7540D02*
G03*
X1661Y7540I-200J0D01*
G01*
X5311Y7510D02*
G03*
X5311Y7510I-200J0D01*
G01*
Y7790D02*
G03*
X5311Y7790I-200J0D01*
G01*
X3815Y4030D02*
G03*
X3815Y4030I-200J0D01*
G01*
X3555D02*
G03*
X3555Y4030I-200J0D01*
G01*
X4656Y7600D02*
G03*
X4656Y7600I-200J0D01*
G01*
X4296D02*
G03*
X4296Y7600I-200J0D01*
G01*
X6571Y7680D02*
G03*
X6571Y7680I-200J0D01*
G01*
X4296Y7860D02*
G03*
X4296Y7860I-200J0D01*
G01*
X4656D02*
G03*
X4656Y7860I-200J0D01*
G01*
X28740Y2990D02*
G03*
X28740Y2990I-200J0D01*
G01*
X29680Y3040D02*
G03*
X29680Y3040I-200J0D01*
G01*
X5250Y12060D02*
G03*
X5250Y12060I-200J0D01*
G01*
X34459Y9590D02*
G03*
X34459Y9590I-200J0D01*
G01*
Y10090D02*
G03*
X34459Y10090I-200J0D01*
G01*
X30959Y9590D02*
G03*
X30959Y9590I-200J0D01*
G01*
X31209Y9090D02*
G03*
X31209Y9090I-200J0D01*
G01*
X23120Y10340D02*
G03*
X23120Y10340I-200J0D01*
G01*
Y9590D02*
G03*
X23120Y9590I-200J0D01*
G01*
X24120Y9090D02*
G03*
X24120Y9090I-200J0D01*
G01*
X23870Y9590D02*
G03*
X23870Y9590I-200J0D01*
G01*
X27370Y10090D02*
G03*
X27370Y10090I-200J0D01*
G01*
Y9590D02*
G03*
X27370Y9590I-200J0D01*
G01*
X17034Y9090D02*
G03*
X17034Y9090I-200J0D01*
G01*
X16784Y9590D02*
G03*
X16784Y9590I-200J0D01*
G01*
X20284Y10090D02*
G03*
X20284Y10090I-200J0D01*
G01*
Y9590D02*
G03*
X20284Y9590I-200J0D01*
G01*
X8943Y10340D02*
G03*
X8943Y10340I-200J0D01*
G01*
Y9590D02*
G03*
X8943Y9590I-200J0D01*
G01*
X9943Y9090D02*
G03*
X9943Y9090I-200J0D01*
G01*
X9693Y9590D02*
G03*
X9693Y9590I-200J0D01*
G01*
X13193Y10090D02*
G03*
X13193Y10090I-200J0D01*
G01*
Y9590D02*
G03*
X13193Y9590I-200J0D01*
G01*
X13114Y9010D02*
G03*
X13114Y9010I-200J0D01*
G01*
X1224Y7840D02*
G03*
X1224Y7840I-200J0D01*
G01*
Y8840D02*
G03*
X1224Y8840I-200J0D01*
G01*
Y9590D02*
G03*
X1224Y9590I-200J0D01*
G01*
Y10340D02*
G03*
X1224Y10340I-200J0D01*
G01*
X1970Y10320D02*
G03*
X1970Y10320I-200J0D01*
G01*
X1974Y9590D02*
G03*
X1974Y9590I-200J0D01*
G01*
X2974Y9090D02*
G03*
X2974Y9090I-200J0D01*
G01*
X2724Y9590D02*
G03*
X2724Y9590I-200J0D01*
G01*
X6224Y10090D02*
G03*
X6224Y10090I-200J0D01*
G01*
Y9590D02*
G03*
X6224Y9590I-200J0D01*
G01*
X2974Y12590D02*
G03*
X2974Y12590I-200J0D01*
G01*
X8943Y11090D02*
G03*
X8943Y11090I-200J0D01*
G01*
X1243Y3465D02*
G03*
X1243Y3465I-200J0D01*
G01*
X1280Y29460D02*
G03*
X1280Y29460I-200J0D01*
G01*
X19780Y29210D02*
G03*
X19780Y29210I-200J0D01*
G01*
X18790Y29230D02*
G03*
X18790Y29230I-200J0D01*
G01*
X18290Y29190D02*
G03*
X18290Y29190I-200J0D01*
G01*
X19040Y30110D02*
G03*
X19040Y30110I-200J0D01*
G01*
X22302Y31710D02*
G03*
X22302Y31710I-200J0D01*
G01*
X21390Y32290D02*
G03*
X21390Y32290I-200J0D01*
G01*
X20520Y31340D02*
G03*
X20520Y31340I-200J0D01*
G01*
X20140Y31350D02*
G03*
X20140Y31350I-200J0D01*
G01*
X16940Y25000D02*
G03*
X16940Y25000I-200J0D01*
G01*
X16390Y24590D02*
G03*
X16390Y24590I-200J0D01*
G01*
X16050Y24250D02*
G03*
X16050Y24250I-200J0D01*
G01*
X15420Y23540D02*
G03*
X15420Y23540I-200J0D01*
G01*
X15840Y23660D02*
G03*
X15840Y23660I-200J0D01*
G01*
X19050Y25070D02*
G03*
X19050Y25070I-200J0D01*
G01*
X13330Y23520D02*
G03*
X13330Y23520I-200J0D01*
G01*
X22000Y16060D02*
G03*
X22000Y16060I-200J0D01*
G01*
X29870Y14150D02*
G03*
X29870Y14150I-200J0D01*
G01*
X31960Y15050D02*
G03*
X31960Y15050I-200J0D01*
G01*
X21710Y18160D02*
G03*
X21710Y18160I-200J0D01*
G01*
X21850Y22150D02*
G03*
X21850Y22150I-200J0D01*
G01*
X13270Y19520D02*
G03*
X13270Y19520I-200J0D01*
G01*
X13230Y19890D02*
G03*
X13230Y19890I-200J0D01*
G01*
X13710Y20700D02*
G03*
X13710Y20700I-200J0D01*
G01*
X18560Y25040D02*
G03*
X18560Y25040I-200J0D01*
G01*
X17990Y27580D02*
G03*
X17990Y27580I-200J0D01*
G01*
X20760Y29580D02*
G03*
X20760Y29580I-200J0D01*
G01*
X30980Y37240D02*
G03*
X30980Y37240I-200J0D01*
G01*
X7350Y20200D02*
G03*
X7350Y20200I-200J0D01*
G01*
X22010Y24210D02*
G03*
X22010Y24210I-200J0D01*
G01*
X22060Y24670D02*
G03*
X22060Y24670I-200J0D01*
G01*
X21730Y24850D02*
G03*
X21730Y24850I-200J0D01*
G01*
X20980Y24710D02*
G03*
X20980Y24710I-200J0D01*
G01*
X20950Y24350D02*
G03*
X20950Y24350I-200J0D01*
G01*
X13640Y21210D02*
G03*
X13640Y21210I-200J0D01*
G01*
X16630Y18010D02*
G03*
X16630Y18010I-200J0D01*
G01*
X16910Y18250D02*
G03*
X16910Y18250I-200J0D01*
G01*
X17180Y18490D02*
G03*
X17180Y18490I-200J0D01*
G01*
X17420Y18760D02*
G03*
X17420Y18760I-200J0D01*
G01*
X11750Y15900D02*
G03*
X11750Y15900I-200J0D01*
G01*
X12690Y16220D02*
G03*
X12690Y16220I-200J0D01*
G01*
X12270Y15770D02*
G03*
X12270Y15770I-200J0D01*
G01*
X8280Y12270D02*
G03*
X8280Y12270I-200J0D01*
G01*
X6350Y17630D02*
G03*
X6350Y17630I-200J0D01*
G01*
X7230Y19640D02*
G03*
X7230Y19640I-200J0D01*
G01*
X7490Y17060D02*
G03*
X7490Y17060I-200J0D01*
G01*
X15410Y20580D02*
G03*
X15410Y20580I-200J0D01*
G01*
X14250Y21400D02*
G03*
X14250Y21400I-200J0D01*
G01*
X13920Y22230D02*
G03*
X13920Y22230I-200J0D01*
G01*
X8740Y19960D02*
G03*
X8740Y19960I-200J0D01*
G01*
X6910Y20660D02*
G03*
X6910Y20660I-200J0D01*
G01*
X17700Y19020D02*
G03*
X17700Y19020I-200J0D01*
G01*
X12190Y23520D02*
G03*
X12190Y23520I-200J0D01*
G01*
X13280Y22370D02*
G03*
X13280Y22370I-200J0D01*
G01*
X12860Y19940D02*
G03*
X12860Y19940I-200J0D01*
G01*
X13570Y19260D02*
G03*
X13570Y19260I-200J0D01*
G01*
X10060Y23130D02*
G03*
X10060Y23130I-200J0D01*
G01*
X16010Y21720D02*
G03*
X16010Y21720I-200J0D01*
G01*
X3460Y28390D02*
G03*
X3460Y28390I-200J0D01*
G01*
X3290Y27790D02*
G03*
X3290Y27790I-200J0D01*
G01*
X3760Y26450D02*
G03*
X3760Y26450I-200J0D01*
G01*
X3750Y25560D02*
G03*
X3750Y25560I-200J0D01*
G01*
X680Y26620D02*
G03*
X680Y26620I-200J0D01*
G01*
X3200Y26510D02*
G03*
X3200Y26510I-200J0D01*
G01*
X4340Y25910D02*
G03*
X4340Y25910I-200J0D01*
G01*
X4360Y26280D02*
G03*
X4360Y26280I-200J0D01*
G01*
X4390Y25540D02*
G03*
X4390Y25540I-200J0D01*
G01*
X12040Y25000D02*
G03*
X12040Y25000I-200J0D01*
G01*
X5750Y26750D02*
G03*
X5750Y26750I-200J0D01*
G01*
X5060Y27930D02*
G03*
X5060Y27930I-200J0D01*
G01*
X5040Y27020D02*
G03*
X5040Y27020I-200J0D01*
G01*
X6710Y28650D02*
G03*
X6710Y28650I-200J0D01*
G01*
X5750Y28180D02*
G03*
X5750Y28180I-200J0D01*
G01*
X12670Y27520D02*
G03*
X12670Y27520I-200J0D01*
G01*
X11330Y24350D02*
G03*
X11330Y24350I-200J0D01*
G01*
X11340Y29410D02*
G03*
X11340Y29410I-200J0D01*
G01*
X7670Y22680D02*
G03*
X7670Y22680I-200J0D01*
G01*
X6700Y30070D02*
G03*
X6700Y30070I-200J0D01*
G01*
X12810Y29970D02*
G03*
X12810Y29970I-200J0D01*
G01*
X6020Y29210D02*
G03*
X6020Y29210I-200J0D01*
G01*
X5310Y21310D02*
G03*
X5310Y21310I-200J0D01*
G01*
X11610Y23910D02*
G03*
X11610Y23910I-200J0D01*
G01*
X17020Y24550D02*
G03*
X17020Y24550I-200J0D01*
G01*
X21840Y23260D02*
G03*
X21840Y23260I-200J0D01*
G01*
X19980Y18270D02*
G03*
X19980Y18270I-200J0D01*
G01*
X15780Y19420D02*
G03*
X15780Y19420I-200J0D01*
G01*
X16410Y19030D02*
G03*
X16410Y19030I-200J0D01*
G01*
X16310Y20540D02*
G03*
X16310Y20540I-200J0D01*
G01*
X16050Y22190D02*
G03*
X16050Y22190I-200J0D01*
G01*
X15500Y22170D02*
G03*
X15500Y22170I-200J0D01*
G01*
X15590Y20930D02*
G03*
X15590Y20930I-200J0D01*
G01*
X19110Y24660D02*
G03*
X19110Y24660I-200J0D01*
G01*
X22290Y18030D02*
G03*
X22290Y18030I-200J0D01*
G01*
X15770Y24020D02*
G03*
X15770Y24020I-200J0D01*
G01*
X18810Y22140D02*
G03*
X18810Y22140I-200J0D01*
G01*
X17600Y31680D02*
G03*
X17600Y31680I-200J0D01*
G01*
X16190Y31590D02*
G03*
X16190Y31590I-200J0D01*
G01*
X15860Y31330D02*
G03*
X15860Y31330I-200J0D01*
G01*
X15650Y31000D02*
G03*
X15650Y31000I-200J0D01*
G01*
X20160Y30070D02*
G03*
X20160Y30070I-200J0D01*
G01*
X17450Y30100D02*
G03*
X17450Y30100I-200J0D01*
G01*
X18670Y27560D02*
G03*
X18670Y27560I-200J0D01*
G01*
X19290Y29220D02*
G03*
X19290Y29220I-200J0D01*
G01*
X17210Y28140D02*
G03*
X17210Y28140I-200J0D01*
G01*
X17460Y27000D02*
G03*
X17460Y27000I-200J0D01*
G01*
X16360Y26530D02*
G03*
X16360Y26530I-200J0D01*
G01*
X15990D02*
G03*
X15990Y26530I-200J0D01*
G01*
X13850Y26970D02*
G03*
X13850Y26970I-200J0D01*
G01*
X14490Y26680D02*
G03*
X14490Y26680I-200J0D01*
G01*
X9610Y29990D02*
G03*
X9610Y29990I-200J0D01*
G01*
X8580Y23690D02*
G03*
X8580Y23690I-200J0D01*
G01*
X34510Y35345D02*
G03*
X34510Y35345I-200J0D01*
G01*
X35600D02*
G03*
X35600Y35345I-200J0D01*
G01*
X36570D02*
G03*
X36570Y35345I-200J0D01*
G01*
X37750D02*
G03*
X37750Y35345I-200J0D01*
G01*
X34440Y27950D02*
G03*
X34440Y27950I-200J0D01*
G01*
X37350D02*
G03*
X37350Y27950I-200J0D01*
G01*
X36450D02*
G03*
X36450Y27950I-200J0D01*
G01*
X7320Y7480D02*
G03*
X7320Y7480I-200J0D01*
G01*
X21540Y6220D02*
G03*
X21540Y6220I-200J0D01*
G01*
X14450D02*
G03*
X14450Y6220I-200J0D01*
G01*
X28630D02*
G03*
X28630Y6220I-200J0D01*
G01*
X35710D02*
G03*
X35710Y6220I-200J0D01*
G01*
X1950Y9000D02*
G03*
X1950Y9000I-200J0D01*
G01*
X6950D02*
G03*
X6950Y9000I-200J0D01*
G01*
Y9750D02*
G03*
X6950Y9750I-200J0D01*
G01*
Y10500D02*
G03*
X6950Y10500I-200J0D01*
G01*
Y11250D02*
G03*
X6950Y11250I-200J0D01*
G01*
Y12000D02*
G03*
X6950Y12000I-200J0D01*
G01*
X13950Y9000D02*
G03*
X13950Y9000I-200J0D01*
G01*
Y9750D02*
G03*
X13950Y9750I-200J0D01*
G01*
Y10500D02*
G03*
X13950Y10500I-200J0D01*
G01*
Y11250D02*
G03*
X13950Y11250I-200J0D01*
G01*
Y12000D02*
G03*
X13950Y12000I-200J0D01*
G01*
X16200Y9000D02*
G03*
X16200Y9000I-200J0D01*
G01*
Y9750D02*
G03*
X16200Y9750I-200J0D01*
G01*
Y10500D02*
G03*
X16200Y10500I-200J0D01*
G01*
Y11250D02*
G03*
X16200Y11250I-200J0D01*
G01*
X15700Y12250D02*
G03*
X15700Y12250I-200J0D01*
G01*
X22950Y11250D02*
G03*
X22950Y11250I-200J0D01*
G01*
Y9000D02*
G03*
X22950Y9000I-200J0D01*
G01*
X20950D02*
G03*
X20950Y9000I-200J0D01*
G01*
Y9750D02*
G03*
X20950Y9750I-200J0D01*
G01*
Y10500D02*
G03*
X20950Y10500I-200J0D01*
G01*
Y11250D02*
G03*
X20950Y11250I-200J0D01*
G01*
Y12000D02*
G03*
X20950Y12000I-200J0D01*
G01*
X21700Y12250D02*
G03*
X21700Y12250I-200J0D01*
G01*
X27950Y9000D02*
G03*
X27950Y9000I-200J0D01*
G01*
Y9750D02*
G03*
X27950Y9750I-200J0D01*
G01*
Y10500D02*
G03*
X27950Y10500I-200J0D01*
G01*
Y11250D02*
G03*
X27950Y11250I-200J0D01*
G01*
X30200Y9000D02*
G03*
X30200Y9000I-200J0D01*
G01*
Y9750D02*
G03*
X30200Y9750I-200J0D01*
G01*
Y10500D02*
G03*
X30200Y10500I-200J0D01*
G01*
Y11250D02*
G03*
X30200Y11250I-200J0D01*
G01*
X29870Y11630D02*
G03*
X29870Y11630I-200J0D01*
G01*
X35200Y9000D02*
G03*
X35200Y9000I-200J0D01*
G01*
Y9750D02*
G03*
X35200Y9750I-200J0D01*
G01*
Y10500D02*
G03*
X35200Y10500I-200J0D01*
G01*
Y11250D02*
G03*
X35200Y11250I-200J0D01*
G01*
Y12000D02*
G03*
X35200Y12000I-200J0D01*
G01*
X35450Y12750D02*
G03*
X35450Y12750I-200J0D01*
G01*
X6310Y39660D02*
G03*
X6310Y39660I-200J0D01*
G01*
X6200Y37260D02*
G03*
X6200Y37260I-200J0D01*
G01*
X7720Y38650D02*
G03*
X7720Y38650I-200J0D01*
G01*
X7010Y37560D02*
G03*
X7010Y37560I-200J0D01*
G01*
X6240Y38650D02*
G03*
X6240Y38650I-200J0D01*
G01*
X40150Y4200D02*
G03*
X40150Y4200I-200J0D01*
G01*
X38670Y5060D02*
G03*
X38670Y5060I-200J0D01*
G01*
X38740Y8170D02*
G03*
X38740Y8170I-200J0D01*
G01*
X39140Y8840D02*
G03*
X39140Y8840I-200J0D01*
G01*
Y9380D02*
G03*
X39140Y9380I-200J0D01*
G01*
X39450Y10050D02*
G03*
X39450Y10050I-200J0D01*
G01*
X40120Y8440D02*
G03*
X40120Y8440I-200J0D01*
G01*
X40150Y10860D02*
G03*
X40150Y10860I-200J0D01*
G01*
X5120Y25910D02*
G03*
X5120Y25910I-200J0D01*
G01*
X39048Y35344D02*
G03*
X39048Y35344I-200J0D01*
G01*
X8192Y16841D02*
G03*
X8192Y16841I-200J0D01*
G01*
X7936Y16476D02*
G03*
X7936Y16476I-200J0D01*
G01*
X14372Y4194D02*
G03*
X14372Y4194I-200J0D01*
G01*
X13035Y4030D02*
G03*
X13035Y4030I-200J0D01*
G01*
X9048Y4055D02*
G03*
X9048Y4055I-200J0D01*
G01*
X7403Y4194D02*
G03*
X7403Y4194I-200J0D01*
G01*
X8645Y2943D02*
G03*
X8645Y2943I-200J0D01*
G01*
X6171Y5520D02*
G03*
X6171Y5520I-200J0D01*
G01*
X2050Y4075D02*
G03*
X2050Y4075I-200J0D01*
G01*
X1913Y3711D02*
G03*
X1913Y3711I-200J0D01*
G01*
X2090Y3524D02*
G03*
X2090Y3524I-200J0D01*
G01*
X3608Y9157D02*
G03*
X3608Y9157I-200J0D01*
G01*
Y9590D02*
G03*
X3608Y9590I-200J0D01*
G01*
Y10023D02*
G03*
X3608Y10023I-200J0D01*
G01*
X4041Y9157D02*
G03*
X4041Y9157I-200J0D01*
G01*
Y9590D02*
G03*
X4041Y9590I-200J0D01*
G01*
Y10023D02*
G03*
X4041Y10023I-200J0D01*
G01*
X4474Y9157D02*
G03*
X4474Y9157I-200J0D01*
G01*
Y9590D02*
G03*
X4474Y9590I-200J0D01*
G01*
Y10023D02*
G03*
X4474Y10023I-200J0D01*
G01*
X4908Y9157D02*
G03*
X4908Y9157I-200J0D01*
G01*
Y9590D02*
G03*
X4908Y9590I-200J0D01*
G01*
Y10023D02*
G03*
X4908Y10023I-200J0D01*
G01*
X5341Y9157D02*
G03*
X5341Y9157I-200J0D01*
G01*
Y9590D02*
G03*
X5341Y9590I-200J0D01*
G01*
Y10023D02*
G03*
X5341Y10023I-200J0D01*
G01*
X17668Y9157D02*
G03*
X17668Y9157I-200J0D01*
G01*
Y9590D02*
G03*
X17668Y9590I-200J0D01*
G01*
Y10023D02*
G03*
X17668Y10023I-200J0D01*
G01*
X18101Y9157D02*
G03*
X18101Y9157I-200J0D01*
G01*
Y9590D02*
G03*
X18101Y9590I-200J0D01*
G01*
Y10023D02*
G03*
X18101Y10023I-200J0D01*
G01*
X18534Y9157D02*
G03*
X18534Y9157I-200J0D01*
G01*
Y9590D02*
G03*
X18534Y9590I-200J0D01*
G01*
Y10023D02*
G03*
X18534Y10023I-200J0D01*
G01*
X18967Y9157D02*
G03*
X18967Y9157I-200J0D01*
G01*
Y9590D02*
G03*
X18967Y9590I-200J0D01*
G01*
Y10023D02*
G03*
X18967Y10023I-200J0D01*
G01*
X19400Y9157D02*
G03*
X19400Y9157I-200J0D01*
G01*
Y9590D02*
G03*
X19400Y9590I-200J0D01*
G01*
Y10023D02*
G03*
X19400Y10023I-200J0D01*
G01*
X10577Y9157D02*
G03*
X10577Y9157I-200J0D01*
G01*
Y9590D02*
G03*
X10577Y9590I-200J0D01*
G01*
Y10023D02*
G03*
X10577Y10023I-200J0D01*
G01*
X11010Y9157D02*
G03*
X11010Y9157I-200J0D01*
G01*
Y9590D02*
G03*
X11010Y9590I-200J0D01*
G01*
Y10023D02*
G03*
X11010Y10023I-200J0D01*
G01*
X11443Y9157D02*
G03*
X11443Y9157I-200J0D01*
G01*
Y9590D02*
G03*
X11443Y9590I-200J0D01*
G01*
Y10023D02*
G03*
X11443Y10023I-200J0D01*
G01*
X11876Y9157D02*
G03*
X11876Y9157I-200J0D01*
G01*
Y9590D02*
G03*
X11876Y9590I-200J0D01*
G01*
Y10023D02*
G03*
X11876Y10023I-200J0D01*
G01*
X12309Y9157D02*
G03*
X12309Y9157I-200J0D01*
G01*
Y9590D02*
G03*
X12309Y9590I-200J0D01*
G01*
Y10023D02*
G03*
X12309Y10023I-200J0D01*
G01*
X24754Y9157D02*
G03*
X24754Y9157I-200J0D01*
G01*
Y9590D02*
G03*
X24754Y9590I-200J0D01*
G01*
Y10023D02*
G03*
X24754Y10023I-200J0D01*
G01*
X25187Y9157D02*
G03*
X25187Y9157I-200J0D01*
G01*
Y9590D02*
G03*
X25187Y9590I-200J0D01*
G01*
Y10023D02*
G03*
X25187Y10023I-200J0D01*
G01*
X25620Y9157D02*
G03*
X25620Y9157I-200J0D01*
G01*
Y9590D02*
G03*
X25620Y9590I-200J0D01*
G01*
Y10023D02*
G03*
X25620Y10023I-200J0D01*
G01*
X26053Y9157D02*
G03*
X26053Y9157I-200J0D01*
G01*
Y9590D02*
G03*
X26053Y9590I-200J0D01*
G01*
Y10023D02*
G03*
X26053Y10023I-200J0D01*
G01*
X26486Y9157D02*
G03*
X26486Y9157I-200J0D01*
G01*
Y9590D02*
G03*
X26486Y9590I-200J0D01*
G01*
Y10023D02*
G03*
X26486Y10023I-200J0D01*
G01*
X31843Y9157D02*
G03*
X31843Y9157I-200J0D01*
G01*
Y9590D02*
G03*
X31843Y9590I-200J0D01*
G01*
Y10023D02*
G03*
X31843Y10023I-200J0D01*
G01*
X32276Y9157D02*
G03*
X32276Y9157I-200J0D01*
G01*
Y9590D02*
G03*
X32276Y9590I-200J0D01*
G01*
Y10023D02*
G03*
X32276Y10023I-200J0D01*
G01*
X32709Y9157D02*
G03*
X32709Y9157I-200J0D01*
G01*
Y9590D02*
G03*
X32709Y9590I-200J0D01*
G01*
Y10023D02*
G03*
X32709Y10023I-200J0D01*
G01*
X33142Y9157D02*
G03*
X33142Y9157I-200J0D01*
G01*
Y9590D02*
G03*
X33142Y9590I-200J0D01*
G01*
Y10023D02*
G03*
X33142Y10023I-200J0D01*
G01*
X33575Y9157D02*
G03*
X33575Y9157I-200J0D01*
G01*
Y9590D02*
G03*
X33575Y9590I-200J0D01*
G01*
Y10023D02*
G03*
X33575Y10023I-200J0D01*
G01*
X38104Y33435D02*
G03*
X38104Y33435I-200J0D01*
G01*
M02*
