G04 Layer_Color=32768*
%FSLAX24Y24*%
%MOIN*%
G70*
G01*
G75*
%ADD72C,0.0100*%
%ADD121C,0.0039*%
%ADD239C,0.0020*%
%ADD282C,0.0020*%
D72*
X41000Y0D02*
Y40500D01*
X0Y0D02*
X41000D01*
X0D02*
Y40500D01*
X41000D01*
D121*
X18894Y5660D02*
X19288D01*
X19091Y5463D02*
Y5857D01*
X17374Y5660D02*
X17768D01*
X17571Y5463D02*
Y5857D01*
X24860Y30273D02*
Y30667D01*
X24663Y30470D02*
X25057D01*
X19613Y31980D02*
X20007D01*
X19810Y31783D02*
Y32177D01*
X15553Y32420D02*
X15947D01*
X15750Y32223D02*
Y32617D01*
X11573Y32420D02*
X11967D01*
X11770Y32223D02*
Y32617D01*
X7603Y32420D02*
X7997D01*
X7800Y32223D02*
Y32617D01*
X6100Y31303D02*
Y31697D01*
X5903Y31500D02*
X6297D01*
X29613Y14290D02*
X30007D01*
X29810Y14093D02*
Y14487D01*
X9153Y26910D02*
X9547D01*
X9350Y26713D02*
Y27107D01*
X32313Y38047D02*
Y38441D01*
X32116Y38244D02*
X32510D01*
X18850Y21274D02*
Y21668D01*
X18653Y21471D02*
X19047D01*
X33016Y36374D02*
X33410D01*
X33213Y36177D02*
Y36571D01*
X31549Y5660D02*
X31943D01*
X31746Y5463D02*
Y5857D01*
X24460Y5660D02*
X24854D01*
X24657Y5463D02*
Y5857D01*
X10283Y5660D02*
X10677D01*
X10480Y5463D02*
Y5857D01*
X3315Y5660D02*
X3708D01*
X3511Y5463D02*
Y5857D01*
X33069Y5660D02*
X33463D01*
X33266Y5463D02*
Y5857D01*
X25980Y5660D02*
X26374D01*
X26177Y5463D02*
Y5857D01*
X11803Y5660D02*
X12197D01*
X12000Y5463D02*
Y5857D01*
X4835Y5660D02*
X5228D01*
X5031Y5463D02*
Y5857D01*
X35766Y38614D02*
X36160D01*
X35963Y38417D02*
Y38811D01*
X31933Y39227D02*
Y39621D01*
X31736Y39424D02*
X32130D01*
X38250Y9823D02*
Y10217D01*
X38053Y10020D02*
X38447D01*
X31880Y27483D02*
Y27877D01*
X31683Y27680D02*
X32077D01*
X26653Y33620D02*
X27047D01*
X26850Y33423D02*
Y33817D01*
X28217Y21010D02*
X28611D01*
X28414Y20813D02*
Y21207D01*
X31874Y20813D02*
Y21207D01*
X31677Y21010D02*
X32071D01*
X35647D02*
X36041D01*
X35844Y20813D02*
Y21207D01*
X26794Y20813D02*
Y21207D01*
X26597Y21010D02*
X26991D01*
X30027D02*
X30421D01*
X30224Y20813D02*
Y21207D01*
X34184Y20813D02*
Y21207D01*
X33987Y21010D02*
X34381D01*
X4274Y9393D02*
Y9787D01*
X4078Y9590D02*
X4471D01*
X18334Y9393D02*
Y9787D01*
X18137Y9590D02*
X18531D01*
X11243Y9393D02*
Y9787D01*
X11046Y9590D02*
X11440D01*
X25420Y9393D02*
Y9787D01*
X25223Y9590D02*
X25617D01*
X32509Y9393D02*
Y9787D01*
X32312Y9590D02*
X32706D01*
D239*
X21380Y8034D02*
X22140D01*
X21380D02*
Y8424D01*
X22140D01*
Y8034D02*
Y8424D01*
X3690Y19890D02*
X4080D01*
X3690Y19130D02*
Y19890D01*
Y19130D02*
X4080D01*
Y19890D01*
X3270D02*
X3660D01*
X3270Y19130D02*
Y19890D01*
Y19130D02*
X3660D01*
Y19890D01*
X5210Y19130D02*
X5600D01*
Y19890D01*
X5210D02*
X5600D01*
X5210Y19130D02*
Y19890D01*
X6265Y19895D02*
X6655D01*
X6265Y19135D02*
Y19895D01*
Y19135D02*
X6655D01*
Y19895D01*
X7228Y20486D02*
X8232D01*
Y19934D02*
Y20486D01*
X7228Y19934D02*
X8232D01*
X7228D02*
Y20486D01*
X13078Y17794D02*
Y18346D01*
Y17794D02*
X14082D01*
Y18346D01*
X13078D02*
X14082D01*
X910Y25520D02*
Y26280D01*
X1300D01*
Y25520D02*
Y26280D01*
X910Y25520D02*
X1300D01*
X21932Y26224D02*
Y26776D01*
X20928D02*
X21932D01*
X20928Y26224D02*
Y26776D01*
Y26224D02*
X21932D01*
X1350Y26280D02*
X1740D01*
X1350Y25520D02*
Y26280D01*
Y25520D02*
X1740D01*
Y26280D01*
X6220Y25520D02*
X6980D01*
X6220D02*
Y25910D01*
X6980D01*
Y25520D02*
Y25910D01*
X11770Y25700D02*
X12530D01*
X11770D02*
Y26090D01*
X12530D01*
Y25700D02*
Y26090D01*
X6220Y25910D02*
X6980D01*
X6220D02*
Y26300D01*
X6980D01*
Y25910D02*
Y26300D01*
X11760Y25150D02*
X12520D01*
X11760D02*
Y25540D01*
X12520D01*
Y25150D02*
Y25540D01*
X13410Y25130D02*
X13800D01*
X13410Y24370D02*
Y25130D01*
Y24370D02*
X13800D01*
Y25130D01*
X13150Y25700D02*
Y26460D01*
X12760Y25700D02*
X13150D01*
X12760D02*
Y26460D01*
X13150D01*
X13370Y21620D02*
X14130D01*
X13370D02*
Y22010D01*
X14130D01*
Y21620D02*
Y22010D01*
X12750Y24770D02*
Y25530D01*
X13140D01*
Y24770D02*
Y25530D01*
X12750Y24770D02*
X13140D01*
X14220Y26490D02*
Y26880D01*
X13460D02*
X14220D01*
X13460Y26490D02*
Y26880D01*
Y26490D02*
X14220D01*
X35042Y16024D02*
Y16576D01*
X34038D02*
X35042D01*
X34038Y16024D02*
Y16576D01*
Y16024D02*
X35042D01*
X32512Y15994D02*
Y16546D01*
X31508Y15994D02*
X32512D01*
X31508D02*
Y16546D01*
X32512D01*
X30052Y16034D02*
Y16586D01*
X29048D02*
X30052D01*
X29048Y16034D02*
Y16586D01*
Y16034D02*
X30052D01*
X27542Y16019D02*
Y16570D01*
X26538D02*
X27542D01*
X26538Y16019D02*
Y16570D01*
Y16019D02*
X27542D01*
X22780Y15970D02*
X23540D01*
X22780D02*
Y16360D01*
X23540D01*
Y15970D02*
Y16360D01*
X35042Y16774D02*
Y17326D01*
X34038D02*
X35042D01*
X34038Y16774D02*
Y17326D01*
Y16774D02*
X35042D01*
X32512Y16744D02*
Y17296D01*
X31508Y16744D02*
X32512D01*
X31508D02*
Y17296D01*
X32512D01*
X30052Y16784D02*
Y17336D01*
X29048D02*
X30052D01*
X29048Y16784D02*
Y17336D01*
Y16784D02*
X30052D01*
X27542Y16769D02*
Y17320D01*
X26538D02*
X27542D01*
X26538Y16769D02*
Y17320D01*
Y16769D02*
X27542D01*
X3010Y29750D02*
X3770D01*
Y29360D02*
Y29750D01*
X3010Y29360D02*
X3770D01*
X3010D02*
Y29750D01*
X2140Y36550D02*
Y37310D01*
X2530D01*
Y36550D02*
Y37310D01*
X2140Y36550D02*
X2530D01*
X3550Y620D02*
Y1380D01*
X3160Y620D02*
X3550D01*
X3160D02*
Y1380D01*
X3550D01*
X450Y9860D02*
X1210D01*
X450D02*
Y10250D01*
X1210D01*
Y9860D02*
Y10250D01*
X38360Y3480D02*
X39120D01*
Y3090D02*
Y3480D01*
X38360Y3090D02*
X39120D01*
X38360D02*
Y3480D01*
X39256Y37206D02*
X40016D01*
Y36816D02*
Y37206D01*
X39256Y36816D02*
X40016D01*
X39256D02*
Y37206D01*
X750Y19500D02*
Y19890D01*
Y19500D02*
X1510D01*
Y19890D01*
X750D02*
X1510D01*
X39425Y35667D02*
X40185D01*
Y35276D02*
Y35667D01*
X39425Y35276D02*
X40185D01*
X39425D02*
Y35667D01*
X36814Y17142D02*
X37366D01*
X36814Y16138D02*
Y17142D01*
Y16138D02*
X37366D01*
Y17142D01*
X5630Y19130D02*
X6020D01*
Y19890D01*
X5630D02*
X6020D01*
X5630Y19130D02*
Y19890D01*
X30704Y36832D02*
X31256D01*
X30704Y35828D02*
Y36832D01*
Y35828D02*
X31256D01*
Y36832D01*
X31258Y35828D02*
X31809D01*
Y36832D01*
X31258D02*
X31809D01*
X31258Y35828D02*
Y36832D01*
X30590Y38100D02*
X30980D01*
X30590Y37340D02*
Y38100D01*
Y37340D02*
X30980D01*
Y38100D01*
X31003Y38134D02*
Y38524D01*
X30243D02*
X31003D01*
X30243Y38134D02*
Y38524D01*
Y38134D02*
X31003D01*
X2230Y28820D02*
Y29210D01*
Y28820D02*
X2990D01*
Y29210D01*
X2230D02*
X2990D01*
X18934Y11980D02*
X19324D01*
X18934Y11220D02*
Y11980D01*
Y11220D02*
X19324D01*
Y11980D01*
X19354Y11220D02*
X19744D01*
Y11980D01*
X19354D02*
X19744D01*
X19354Y11220D02*
Y11980D01*
X15471Y8017D02*
X15861D01*
Y8777D01*
X15471D02*
X15861D01*
X15471Y8017D02*
Y8777D01*
X20380Y8790D02*
X20770D01*
X20380Y8030D02*
Y8790D01*
Y8030D02*
X20770D01*
Y8790D01*
X21170Y8030D02*
Y8790D01*
X20780Y8030D02*
X21170D01*
X20780D02*
Y8790D01*
X21170D01*
X25420Y29360D02*
Y29750D01*
X24660D02*
X25420D01*
X24660Y29360D02*
Y29750D01*
Y29360D02*
X25420D01*
X24280Y31650D02*
Y32040D01*
X23520D02*
X24280D01*
X23520Y31650D02*
Y32040D01*
Y31650D02*
X24280D01*
X23448Y36194D02*
Y36746D01*
Y36194D02*
X24452D01*
Y36746D01*
X23448D02*
X24452D01*
X24280Y31230D02*
Y31620D01*
X23520D02*
X24280D01*
X23520Y31230D02*
Y31620D01*
Y31230D02*
X24280D01*
X20560Y32540D02*
X20950D01*
X20560Y31780D02*
Y32540D01*
Y31780D02*
X20950D01*
Y32540D01*
X19080Y32200D02*
Y32590D01*
X18320D02*
X19080D01*
X18320Y32200D02*
Y32590D01*
Y32200D02*
X19080D01*
X22770Y16770D02*
X23530D01*
Y16380D02*
Y16770D01*
X22770Y16380D02*
X23530D01*
X22770D02*
Y16770D01*
X19080Y31770D02*
Y32160D01*
X18320D02*
X19080D01*
X18320Y31770D02*
Y32160D01*
Y31770D02*
X19080D01*
X18952Y36194D02*
Y36746D01*
X17948D02*
X18952D01*
X17948Y36194D02*
Y36746D01*
Y36194D02*
X18952D01*
X17930Y31770D02*
Y32160D01*
X17170D02*
X17930D01*
X17170Y31770D02*
Y32160D01*
Y31770D02*
X17930D01*
X15020Y32200D02*
Y32590D01*
X14260D02*
X15020D01*
X14260Y32200D02*
Y32590D01*
Y32200D02*
X15020D01*
Y31800D02*
Y32190D01*
X14260D02*
X15020D01*
X14260Y31800D02*
Y32190D01*
Y31800D02*
X15020D01*
X14952Y36194D02*
Y36746D01*
X13948D02*
X14952D01*
X13948Y36194D02*
Y36746D01*
Y36194D02*
X14952D01*
X13900Y31750D02*
Y32140D01*
X13140D02*
X13900D01*
X13140Y31750D02*
Y32140D01*
Y31750D02*
X13900D01*
X11040Y32200D02*
Y32590D01*
X10280D02*
X11040D01*
X10280Y32200D02*
Y32590D01*
Y32200D02*
X11040D01*
Y31800D02*
Y32190D01*
X10280D02*
X11040D01*
X10280Y31800D02*
Y32190D01*
Y31800D02*
X11040D01*
X10922Y36194D02*
Y36746D01*
X9918D02*
X10922D01*
X9918Y36194D02*
Y36746D01*
Y36194D02*
X10922D01*
X22790Y15280D02*
X23550D01*
X22790D02*
Y15670D01*
X23550D01*
Y15280D02*
Y15670D01*
X10030Y31740D02*
Y32130D01*
X9270D02*
X10030D01*
X9270Y31740D02*
Y32130D01*
Y31740D02*
X10030D01*
X6700Y33000D02*
X7090D01*
X6700Y32240D02*
Y33000D01*
Y32240D02*
X7090D01*
Y33000D01*
X6280Y32240D02*
X6670D01*
Y33000D01*
X6280D02*
X6670D01*
X6280Y32240D02*
Y33000D01*
X7248Y36154D02*
Y36706D01*
Y36154D02*
X8252D01*
Y36706D01*
X7248D02*
X8252D01*
X6870Y31190D02*
X7630D01*
Y30800D02*
Y31190D01*
X6870Y30800D02*
X7630D01*
X6870D02*
Y31190D01*
X5590Y32240D02*
X5980D01*
Y33000D01*
X5590D02*
X5980D01*
X5590Y32240D02*
Y33000D01*
X5160Y32240D02*
X5550D01*
Y33000D01*
X5160D02*
X5550D01*
X5160Y32240D02*
Y33000D01*
X3224Y33018D02*
X3776D01*
Y34022D01*
X3224D02*
X3776D01*
X3224Y33018D02*
Y34022D01*
X33110Y11980D02*
X33500D01*
X33110Y11220D02*
Y11980D01*
Y11220D02*
X33500D01*
Y11980D01*
X26020D02*
X26410D01*
X26020Y11220D02*
Y11980D01*
Y11220D02*
X26410D01*
Y11980D01*
X11843D02*
X12233D01*
X11843Y11220D02*
Y11980D01*
Y11220D02*
X12233D01*
Y11980D01*
X4854D02*
X5244D01*
X4854Y11220D02*
Y11980D01*
Y11220D02*
X5244D01*
Y11980D01*
X33530Y11220D02*
X33920D01*
Y11980D01*
X33530D02*
X33920D01*
X33530Y11220D02*
Y11980D01*
X26440Y11220D02*
X26830D01*
Y11980D01*
X26440D02*
X26830D01*
X26440Y11220D02*
Y11980D01*
X12263Y11220D02*
X12653D01*
Y11980D01*
X12263D02*
X12653D01*
X12263Y11220D02*
Y11980D01*
X5274Y11220D02*
X5665D01*
Y11980D01*
X5274D02*
X5665D01*
X5274Y11220D02*
Y11980D01*
X8890Y22850D02*
Y23240D01*
Y22850D02*
X9650D01*
Y23240D01*
X8890D02*
X9650D01*
X29646Y8017D02*
Y8777D01*
X30036D01*
Y8017D02*
Y8777D01*
X29646Y8017D02*
X30036D01*
X22557D02*
Y8777D01*
X22947D01*
Y8017D02*
Y8777D01*
X22557Y8017D02*
X22947D01*
X8380D02*
Y8777D01*
X8770D01*
Y8017D02*
Y8777D01*
X8380Y8017D02*
X8770D01*
X1411D02*
Y8777D01*
X1802D01*
Y8017D02*
Y8777D01*
X1411Y8017D02*
X1802D01*
X34940Y8040D02*
Y8800D01*
X34550Y8040D02*
X34940D01*
X34550D02*
Y8800D01*
X34940D01*
X27860Y8040D02*
Y8800D01*
X27470Y8040D02*
X27860D01*
X27470D02*
Y8800D01*
X27860D01*
X14300Y7260D02*
X15060D01*
X14300D02*
Y7650D01*
X15060D01*
Y7260D02*
Y7650D01*
X7190Y7250D02*
X7950D01*
X7190D02*
Y7640D01*
X7950D01*
Y7250D02*
Y7640D01*
X34950Y8800D02*
X35340D01*
X34950Y8040D02*
Y8800D01*
Y8040D02*
X35340D01*
Y8800D01*
X27870D02*
X28260D01*
X27870Y8040D02*
Y8800D01*
Y8040D02*
X28260D01*
Y8800D01*
X13680D02*
X14070D01*
X13680Y8040D02*
Y8800D01*
Y8040D02*
X14070D01*
Y8800D01*
X6720D02*
X7110D01*
X6720Y8040D02*
Y8800D01*
Y8040D02*
X7110D01*
Y8800D01*
X35560Y8040D02*
X36320D01*
X35560D02*
Y8430D01*
X36320D01*
Y8040D02*
Y8430D01*
X28450Y8030D02*
X29210D01*
X28450D02*
Y8420D01*
X29210D01*
Y8030D02*
Y8420D01*
X14300Y8040D02*
X15060D01*
X14300D02*
Y8430D01*
X15060D01*
Y8040D02*
Y8430D01*
X7190Y8040D02*
X7950D01*
X7190D02*
Y8430D01*
X7950D01*
Y8040D02*
Y8430D01*
X33830Y20330D02*
Y20720D01*
Y20330D02*
X34590D01*
Y20720D01*
X33830D02*
X34590D01*
X29870Y20330D02*
Y20720D01*
Y20330D02*
X30630D01*
Y20720D01*
X29870D02*
X30630D01*
X26440Y20329D02*
Y20719D01*
Y20329D02*
X27200D01*
Y20719D01*
X26440D02*
X27200D01*
X32980Y20720D02*
X33740D01*
Y20330D02*
Y20720D01*
X32980Y20330D02*
X33740D01*
X32980D02*
Y20720D01*
X29040D02*
X29800D01*
Y20330D02*
Y20720D01*
X29040Y20330D02*
X29800D01*
X29040D02*
Y20720D01*
X25650Y21200D02*
X26410D01*
Y20810D02*
Y21200D01*
X25650Y20810D02*
X26410D01*
X25650D02*
Y21200D01*
X35490Y20330D02*
Y20720D01*
Y20330D02*
X36250D01*
Y20720D01*
X35490D02*
X36250D01*
X31520Y20330D02*
Y20720D01*
Y20330D02*
X32280D01*
Y20720D01*
X31520D02*
X32280D01*
X28060Y20330D02*
Y20720D01*
Y20330D02*
X28820D01*
Y20720D01*
X28060D02*
X28820D01*
X34660D02*
X35420D01*
Y20330D02*
Y20720D01*
X34660Y20330D02*
X35420D01*
X34660D02*
Y20720D01*
X30690D02*
X31450D01*
Y20330D02*
Y20720D01*
X30690Y20330D02*
X31450D01*
X30690D02*
Y20720D01*
X27240D02*
X28000D01*
Y20330D02*
Y20720D01*
X27240Y20330D02*
X28000D01*
X27240D02*
Y20720D01*
X27940Y13850D02*
Y14610D01*
X28330D01*
Y13850D02*
Y14610D01*
X27940Y13850D02*
X28330D01*
X20050Y29010D02*
Y29770D01*
X20440D01*
Y29010D02*
Y29770D01*
X20050Y29010D02*
X20440D01*
X18550Y26990D02*
Y27750D01*
X18940D01*
Y26990D02*
Y27750D01*
X18550Y26990D02*
X18940D01*
X18330D02*
Y27750D01*
X17940Y26990D02*
X18330D01*
X17940D02*
Y27750D01*
X18330D01*
X2990Y27590D02*
Y27980D01*
X2230D02*
X2990D01*
X2230Y27590D02*
Y27980D01*
Y27590D02*
X2990D01*
Y28200D02*
Y28590D01*
X2230D02*
X2990D01*
X2230Y28200D02*
Y28590D01*
Y28200D02*
X2990D01*
X6770Y15740D02*
X7160D01*
Y16500D01*
X6770D02*
X7160D01*
X6770Y15740D02*
Y16500D01*
X18350Y26170D02*
Y26560D01*
X17590D02*
X18350D01*
X17590Y26170D02*
Y26560D01*
Y26170D02*
X18350D01*
X2952Y26234D02*
Y26786D01*
X1948D02*
X2952D01*
X1948Y26234D02*
Y26786D01*
Y26234D02*
X2952D01*
X4994Y27952D02*
X5546D01*
X4994Y26948D02*
Y27952D01*
Y26948D02*
X5546D01*
Y27952D01*
X11470Y22743D02*
Y23520D01*
X9913Y22743D02*
Y23520D01*
Y22743D02*
X11470D01*
X9913Y23520D02*
X11470D01*
X12810Y17030D02*
Y17807D01*
X14367Y17030D02*
Y17807D01*
X12810D02*
X14367D01*
X12810Y17030D02*
X14367D01*
X22410Y26803D02*
Y27580D01*
X20853Y26803D02*
Y27580D01*
Y26803D02*
X22410D01*
X20853Y27580D02*
X22410D01*
X30799Y7970D02*
X31559D01*
Y7580D02*
Y7970D01*
X30799Y7580D02*
X31559D01*
X30799D02*
Y7970D01*
X23710D02*
X24470D01*
Y7580D02*
Y7970D01*
X23710Y7580D02*
X24470D01*
X23710D02*
Y7970D01*
X9533Y8000D02*
X10293D01*
Y7610D02*
Y8000D01*
X9533Y7610D02*
X10293D01*
X9533D02*
Y8000D01*
X2565Y7970D02*
X3324D01*
Y7580D02*
Y7970D01*
X2565Y7580D02*
X3324D01*
X2565D02*
Y7970D01*
X10038Y29134D02*
Y29686D01*
Y29134D02*
X11042D01*
Y29686D01*
X10038D02*
X11042D01*
X6610Y28840D02*
X7000D01*
X6610Y28080D02*
Y28840D01*
Y28080D02*
X7000D01*
Y28840D01*
X6990Y27460D02*
Y27850D01*
X6230D02*
X6990D01*
X6230Y27460D02*
Y27850D01*
Y27460D02*
X6990D01*
X11710Y28740D02*
X12100D01*
X11710Y27980D02*
Y28740D01*
Y27980D02*
X12100D01*
Y28740D01*
X12280Y27590D02*
X12670D01*
Y28350D01*
X12280D02*
X12670D01*
X12280Y27590D02*
Y28350D01*
X5470Y27980D02*
Y28370D01*
X4710D02*
X5470D01*
X4710Y27980D02*
Y28370D01*
Y27980D02*
X5470D01*
X4700Y26540D02*
Y26930D01*
Y26540D02*
X5460D01*
Y26930D01*
X4700D02*
X5460D01*
X14680Y16100D02*
X15070D01*
Y16860D01*
X14680D02*
X15070D01*
X14680Y16100D02*
Y16860D01*
X15310Y16100D02*
X15700D01*
Y16860D01*
X15310D02*
X15700D01*
X15310Y16100D02*
Y16860D01*
X35560Y7640D02*
X36320D01*
X35560D02*
Y8030D01*
X36320D01*
Y7640D02*
Y8030D01*
X28450Y7640D02*
X29210D01*
X28450D02*
Y8030D01*
X29210D01*
Y7640D02*
Y8030D01*
X14300Y7650D02*
X15060D01*
X14300D02*
Y8040D01*
X15060D01*
Y7650D02*
Y8040D01*
X7190Y7640D02*
X7950D01*
X7190D02*
Y8030D01*
X7950D01*
Y7640D02*
Y8030D01*
X13820Y24360D02*
Y25120D01*
X14210D01*
Y24360D02*
Y25120D01*
X13820Y24360D02*
X14210D01*
X14928Y27226D02*
X15932D01*
Y26674D02*
Y27226D01*
X14928Y26674D02*
X15932D01*
X14928D02*
Y27226D01*
X16486Y26568D02*
Y27572D01*
X15934Y26568D02*
X16486D01*
X15934D02*
Y27572D01*
X16486D01*
X17330Y26990D02*
Y27750D01*
X17720D01*
Y26990D02*
Y27750D01*
X17330Y26990D02*
X17720D01*
X33590Y16104D02*
Y16864D01*
X33980D01*
Y16104D02*
Y16864D01*
X33590Y16104D02*
X33980D01*
X31060Y16074D02*
Y16834D01*
X31450D01*
Y16074D02*
Y16834D01*
X31060Y16074D02*
X31450D01*
X28600Y16114D02*
X28990D01*
Y16874D01*
X28600D02*
X28990D01*
X28600Y16114D02*
Y16874D01*
X26090Y16099D02*
X26480D01*
Y16859D01*
X26090D02*
X26480D01*
X26090Y16099D02*
Y16859D01*
X39425Y35667D02*
X40185D01*
X39425D02*
Y36057D01*
X40185D01*
Y35667D02*
Y36057D01*
X750Y20290D02*
X1510D01*
Y19900D02*
Y20290D01*
X750Y19900D02*
X1510D01*
X750D02*
Y20290D01*
X31003Y37454D02*
X31763D01*
Y37064D02*
Y37454D01*
X31003Y37064D02*
X31763D01*
X31003D02*
Y37454D01*
X33153Y39094D02*
Y39871D01*
X34710Y39094D02*
Y39871D01*
X33153D02*
X34710D01*
X33153Y39094D02*
X34710D01*
X30272Y39975D02*
X31049D01*
X30272Y38418D02*
X31049D01*
Y39975D01*
X30272Y38418D02*
Y39975D01*
X36320Y7250D02*
Y7640D01*
X35560D02*
X36320D01*
X35560Y7250D02*
Y7640D01*
Y7250D02*
X36320D01*
X29210D02*
Y7640D01*
X28450D02*
X29210D01*
X28450Y7250D02*
Y7640D01*
Y7250D02*
X29210D01*
X13280Y8800D02*
X13670D01*
X13280Y8040D02*
Y8800D01*
Y8040D02*
X13670D01*
Y8800D01*
X6320D02*
X6710D01*
X6320Y8040D02*
Y8800D01*
Y8040D02*
X6710D01*
Y8800D01*
X37180Y38730D02*
Y39490D01*
X37570D01*
Y38730D02*
Y39490D01*
X37180Y38730D02*
X37570D01*
X34569Y38032D02*
Y39036D01*
X34018Y38032D02*
X34569D01*
X34018D02*
Y39036D01*
X34569D01*
X25703Y28010D02*
X26480D01*
X25703Y29567D02*
X26480D01*
X25703Y28010D02*
Y29567D01*
X26480Y28010D02*
Y29567D01*
X25340Y27940D02*
X26100D01*
Y27550D02*
Y27940D01*
X25340Y27550D02*
X26100D01*
X25340D02*
Y27940D01*
Y27510D02*
X26100D01*
Y27120D02*
Y27510D01*
X25340Y27120D02*
X26100D01*
X25340D02*
Y27510D01*
X24540Y28820D02*
X25300D01*
X24540D02*
Y29210D01*
X25300D01*
Y28820D02*
Y29210D01*
X21640Y16170D02*
Y16560D01*
Y16170D02*
X22400D01*
Y16560D01*
X21640D02*
X22400D01*
X23470Y20820D02*
X23860D01*
Y21580D01*
X23470D02*
X23860D01*
X23470Y20820D02*
Y21580D01*
X20440Y26120D02*
Y26510D01*
X19680D02*
X20440D01*
X19680Y26120D02*
Y26510D01*
Y26120D02*
X20440D01*
X32980Y21190D02*
X33740D01*
Y20800D02*
Y21190D01*
X32980Y20800D02*
X33740D01*
X32980D02*
Y21190D01*
X29040Y21200D02*
X29800D01*
Y20810D02*
Y21200D01*
X29040Y20810D02*
X29800D01*
X29040D02*
Y21200D01*
X25650Y20720D02*
X26410D01*
Y20330D02*
Y20720D01*
X25650Y20330D02*
X26410D01*
X25650D02*
Y20720D01*
X13900Y19400D02*
Y19790D01*
X13140D02*
X13900D01*
X13140Y19400D02*
Y19790D01*
Y19400D02*
X13900D01*
X14230Y23960D02*
Y24350D01*
X13470D02*
X14230D01*
X13470Y23960D02*
Y24350D01*
Y23960D02*
X14230D01*
X37788Y9084D02*
X38792D01*
X37788D02*
Y9636D01*
X38792D01*
Y9084D02*
Y9636D01*
X37788Y8544D02*
X38792D01*
X37788D02*
Y9096D01*
X38792D01*
Y8544D02*
Y9096D01*
X11758Y23426D02*
X12762D01*
Y22874D02*
Y23426D01*
X11758Y22874D02*
X12762D01*
X11758D02*
Y23426D01*
X13910Y19800D02*
Y20190D01*
X13150D02*
X13910D01*
X13150Y19800D02*
Y20190D01*
Y19800D02*
X13910D01*
X13800Y23570D02*
X14190D01*
X13800Y22810D02*
Y23570D01*
Y22810D02*
X14190D01*
Y23570D01*
X21230Y16780D02*
X21620D01*
X21230Y16020D02*
Y16780D01*
Y16020D02*
X21620D01*
Y16780D01*
X23470Y20580D02*
X23860D01*
X23470Y19820D02*
Y20580D01*
Y19820D02*
X23860D01*
Y20580D01*
X34660Y21190D02*
X35420D01*
Y20800D02*
Y21190D01*
X34660Y20800D02*
X35420D01*
X34660D02*
Y21190D01*
X30690D02*
X31450D01*
Y20800D02*
Y21190D01*
X30690Y20800D02*
X31450D01*
X30690D02*
Y21190D01*
X27240Y21200D02*
X28000D01*
Y20810D02*
Y21200D01*
X27240Y20810D02*
X28000D01*
X27240D02*
Y21200D01*
X20450Y26120D02*
X20840D01*
Y26880D01*
X20450D02*
X20840D01*
X20450Y26120D02*
Y26880D01*
X13366Y21298D02*
Y22302D01*
X12814Y21298D02*
X13366D01*
X12814D02*
Y22302D01*
X13366D01*
X13800Y22030D02*
X14190D01*
Y22790D01*
X13800D02*
X14190D01*
X13800Y22030D02*
Y22790D01*
X29976Y27128D02*
Y28132D01*
X29424Y27128D02*
X29976D01*
X29424D02*
Y28132D01*
X29976D01*
X30756Y27128D02*
Y28132D01*
X30204Y27128D02*
X30756D01*
X30204D02*
Y28132D01*
X30756D01*
X13520Y16570D02*
Y16960D01*
Y16570D02*
X14280D01*
Y16960D01*
X13520D02*
X14280D01*
X12518Y17026D02*
X13522D01*
Y16474D02*
Y17026D01*
X12518Y16474D02*
X13522D01*
X12518D02*
Y17026D01*
X20908Y27584D02*
Y28136D01*
Y27584D02*
X21912D01*
Y28136D01*
X20908D02*
X21912D01*
X15590Y26090D02*
Y26480D01*
Y26090D02*
X16350D01*
Y26480D01*
X15590D02*
X16350D01*
X25838Y34564D02*
X26842D01*
X25838D02*
Y35116D01*
X26842D01*
Y34564D02*
Y35116D01*
X25838Y34014D02*
X26842D01*
X25838D02*
Y34566D01*
X26842D01*
Y34014D02*
Y34566D01*
X13660Y21040D02*
X14050D01*
X13660Y20280D02*
Y21040D01*
Y20280D02*
X14050D01*
Y21040D01*
X13366Y20298D02*
Y21302D01*
X12814Y20298D02*
X13366D01*
X12814D02*
Y21302D01*
X13366D01*
X19342Y7976D02*
X20346D01*
Y7424D02*
Y7976D01*
X19342Y7424D02*
X20346D01*
X19342D02*
Y7976D01*
X15608Y7254D02*
X16612D01*
X15608D02*
Y7806D01*
X16612D01*
Y7254D02*
Y7806D01*
X21263Y4194D02*
Y4746D01*
X20259D02*
X21263D01*
X20259Y4194D02*
Y4746D01*
Y4194D02*
X21263D01*
X21146Y4102D02*
X21697D01*
X21146Y3098D02*
Y4102D01*
Y3098D02*
X21697D01*
Y4102D01*
X16423Y4184D02*
Y4736D01*
X15419D02*
X16423D01*
X15419Y4184D02*
Y4736D01*
Y4184D02*
X16423D01*
X14966Y4102D02*
X15517D01*
X14966Y3098D02*
Y4102D01*
Y3098D02*
X15517D01*
Y4102D01*
X19834Y11980D02*
X20224D01*
X19834Y11220D02*
Y11980D01*
Y11220D02*
X20224D01*
Y11980D01*
X15894Y8780D02*
X16284D01*
X15894Y8020D02*
Y8780D01*
Y8020D02*
X16284D01*
Y8780D01*
X16624Y7970D02*
X17384D01*
Y7580D02*
Y7970D01*
X16624Y7580D02*
X17384D01*
X16624D02*
Y7970D01*
X22140Y7630D02*
Y8020D01*
X21380D02*
X22140D01*
X21380Y7630D02*
Y8020D01*
Y7630D02*
X22140D01*
Y7250D02*
Y7640D01*
X21380D02*
X22140D01*
X21380Y7250D02*
Y7640D01*
Y7250D02*
X22140D01*
X22762Y36194D02*
Y36746D01*
X21758D02*
X22762D01*
X21758Y36194D02*
Y36746D01*
Y36194D02*
X22762D01*
X3250Y19013D02*
Y19790D01*
X1693Y19013D02*
Y19790D01*
Y19013D02*
X3250D01*
X1693Y19790D02*
X3250D01*
X24640Y29360D02*
Y29750D01*
X23880D02*
X24640D01*
X23880Y29360D02*
Y29750D01*
Y29360D02*
X24640D01*
X17942Y36194D02*
Y36746D01*
X16938D02*
X17942D01*
X16938Y36194D02*
Y36746D01*
Y36194D02*
X17942D01*
X19750Y30880D02*
Y31270D01*
Y30880D02*
X20510D01*
Y31270D01*
X19750D02*
X20510D01*
X13932Y36194D02*
Y36746D01*
X12928D02*
X13932D01*
X12928Y36194D02*
Y36746D01*
Y36194D02*
X13932D01*
X16460Y31460D02*
X16850D01*
Y32220D01*
X16460D02*
X16850D01*
X16460Y31460D02*
Y32220D01*
X9912Y36194D02*
Y36746D01*
X8908D02*
X9912D01*
X8908Y36194D02*
Y36746D01*
Y36194D02*
X9912D01*
X12430Y31470D02*
X12820D01*
Y32230D01*
X12430D02*
X12820D01*
X12430Y31470D02*
Y32230D01*
X8520Y31470D02*
X8910D01*
Y32230D01*
X8520D02*
X8910D01*
X8520Y31470D02*
Y32230D01*
X7702Y35574D02*
Y36126D01*
X6698D02*
X7702D01*
X6698Y35574D02*
Y36126D01*
Y35574D02*
X7702D01*
X5380Y30350D02*
Y30740D01*
Y30350D02*
X6140D01*
Y30740D01*
X5380D02*
X6140D01*
X1690Y19020D02*
Y19410D01*
X930D02*
X1690D01*
X930Y19020D02*
Y19410D01*
Y19020D02*
X1690D01*
X918Y33414D02*
Y33966D01*
Y33414D02*
X1922D01*
Y33966D01*
X918D02*
X1922D01*
X33517Y7966D02*
X34521D01*
Y7414D02*
Y7966D01*
X33517Y7414D02*
X34521D01*
X33517D02*
Y7966D01*
X26428D02*
X27432D01*
Y7414D02*
Y7966D01*
X26428Y7414D02*
X27432D01*
X26428D02*
Y7966D01*
X12251D02*
X13255D01*
Y7414D02*
Y7966D01*
X12251Y7414D02*
X13255D01*
X12251D02*
Y7966D01*
X5282D02*
X6286D01*
Y7414D02*
Y7966D01*
X5282Y7414D02*
X6286D01*
X5282D02*
Y7966D01*
X29784Y7264D02*
X30788D01*
X29784D02*
Y7816D01*
X30788D01*
Y7264D02*
Y7816D01*
X22695Y7264D02*
X23699D01*
X22695D02*
Y7816D01*
X23699D01*
Y7264D02*
Y7816D01*
X8518Y7264D02*
X9522D01*
X8518D02*
Y7816D01*
X9522D01*
Y7264D02*
Y7816D01*
X1549Y7264D02*
X2553D01*
X1549D02*
Y7816D01*
X2553D01*
Y7264D02*
Y7816D01*
X34434Y4194D02*
X35438D01*
X34434D02*
Y4746D01*
X35438D01*
Y4194D02*
Y4746D01*
X27345Y4194D02*
X28349D01*
X27345D02*
Y4746D01*
X28349D01*
Y4194D02*
Y4746D01*
X13168Y4194D02*
X14172D01*
X13168D02*
Y4746D01*
X14172D01*
Y4194D02*
Y4746D01*
X6199Y4194D02*
X7203D01*
X6199D02*
Y4746D01*
X7203D01*
Y4194D02*
Y4746D01*
X35871Y3098D02*
Y4102D01*
X35320Y3098D02*
X35871D01*
X35320D02*
Y4102D01*
X35871D01*
X28486Y2948D02*
Y3952D01*
X27934Y2948D02*
X28486D01*
X27934D02*
Y3952D01*
X28486D01*
X14901Y3098D02*
Y4102D01*
X14350Y3098D02*
X14901D01*
X14350D02*
Y4102D01*
X14901D01*
X8131Y3098D02*
Y4102D01*
X7580Y3098D02*
X8131D01*
X7580D02*
Y4102D01*
X8131D01*
X29594Y4184D02*
X30598D01*
X29594D02*
Y4736D01*
X30598D01*
Y4184D02*
Y4736D01*
X22505Y4184D02*
X23509D01*
X22505D02*
Y4736D01*
X23509D01*
Y4184D02*
Y4736D01*
X8377Y4184D02*
X9381D01*
X8377D02*
Y4736D01*
X9381D01*
Y4184D02*
Y4736D01*
X1358Y4194D02*
X2362D01*
X1358D02*
Y4746D01*
X2362D01*
Y4194D02*
Y4746D01*
X29706Y3098D02*
Y4102D01*
X29154Y3098D02*
X29706D01*
X29154D02*
Y4102D01*
X29706D01*
X22603Y3098D02*
Y4102D01*
X22052Y3098D02*
X22603D01*
X22052D02*
Y4102D01*
X22603D01*
X8730Y3031D02*
Y4035D01*
X8179Y3031D02*
X8730D01*
X8179D02*
Y4035D01*
X8730D01*
X1319Y3553D02*
Y4557D01*
X768Y3553D02*
X1319D01*
X768D02*
Y4557D01*
X1319D01*
X34390Y11220D02*
Y11980D01*
X34000Y11220D02*
X34390D01*
X34000D02*
Y11980D01*
X34390D01*
X27310Y11220D02*
Y11980D01*
X26920Y11220D02*
X27310D01*
X26920D02*
Y11980D01*
X27310D01*
X13130Y11220D02*
Y11980D01*
X12740Y11220D02*
X13130D01*
X12740D02*
Y11980D01*
X13130D01*
X6144Y11220D02*
Y11980D01*
X5754Y11220D02*
X6144D01*
X5754D02*
Y11980D01*
X6144D01*
X30459Y8020D02*
Y8780D01*
X30069Y8020D02*
X30459D01*
X30069D02*
Y8780D01*
X30459D01*
X23370Y8020D02*
Y8780D01*
X22980Y8020D02*
X23370D01*
X22980D02*
Y8780D01*
X23370D01*
X9193Y8020D02*
Y8780D01*
X8803Y8020D02*
X9193D01*
X8803D02*
Y8780D01*
X9193D01*
X2224Y8020D02*
Y8780D01*
X1834Y8020D02*
X2224D01*
X1834D02*
Y8780D01*
X2224D01*
X10038Y24074D02*
Y24626D01*
Y24074D02*
X11042D01*
Y24626D01*
X10038D02*
X11042D01*
X3350Y25620D02*
X3740D01*
Y26380D01*
X3350D02*
X3740D01*
X3350Y25620D02*
Y26380D01*
X31660Y14470D02*
Y15230D01*
X31270Y14470D02*
X31660D01*
X31270D02*
Y15230D01*
X31660D01*
D282*
X19800Y4282D02*
Y7038D01*
X18383Y4282D02*
Y7038D01*
X19800D01*
X18383Y4282D02*
X19800D01*
X18280D02*
Y7038D01*
X16863Y4282D02*
Y7038D01*
X18280D01*
X16863Y4282D02*
X18280D01*
X24210Y29771D02*
X25510D01*
X24210Y31169D02*
X25510D01*
X24210Y29771D02*
Y31169D01*
X25510Y29771D02*
Y31169D01*
X20509Y31330D02*
Y32630D01*
X19111Y31330D02*
Y32630D01*
Y31330D02*
X20509D01*
X19111Y32630D02*
X20509D01*
X16449Y31770D02*
Y33070D01*
X15051Y31770D02*
Y33070D01*
Y31770D02*
X16449D01*
X15051Y33070D02*
X16449D01*
X12469Y31770D02*
Y33070D01*
X11071Y31770D02*
Y33070D01*
Y31770D02*
X12469D01*
X11071Y33070D02*
X12469D01*
X8499Y31770D02*
Y33070D01*
X7101Y31770D02*
Y33070D01*
Y31770D02*
X8499D01*
X7101Y33070D02*
X8499D01*
X5450Y30801D02*
X6750D01*
X5450Y32199D02*
X6750D01*
X5450Y30801D02*
Y32199D01*
X6750Y30801D02*
Y32199D01*
X28363Y13227D02*
Y15353D01*
X31257Y13227D02*
Y15353D01*
X28363D02*
X31257D01*
X28363Y13227D02*
X31257D01*
X6998Y24745D02*
Y29075D01*
X11702Y24745D02*
Y29075D01*
X6998D02*
X11702D01*
X6998Y24745D02*
X11702D01*
X31201Y37536D02*
X33425D01*
X31201Y38953D02*
X33425D01*
Y37536D02*
Y38953D01*
X31201Y37536D02*
Y38953D01*
X14244Y26077D02*
X23456D01*
X14244Y16865D02*
X23456D01*
Y26077D01*
X14244Y16865D02*
Y26077D01*
X31835Y35666D02*
Y37083D01*
X34591Y35666D02*
Y37083D01*
X31835D02*
X34591D01*
X31835Y35666D02*
X34591D01*
X32454Y4282D02*
Y7038D01*
X31037Y4282D02*
Y7038D01*
X32454D01*
X31037Y4282D02*
X32454D01*
X25366D02*
Y7038D01*
X23949Y4282D02*
Y7038D01*
X25366D01*
X23949Y4282D02*
X25366D01*
X11189D02*
Y7038D01*
X9771Y4282D02*
Y7038D01*
X11189D01*
X9771Y4282D02*
X11189D01*
X4220D02*
Y7038D01*
X2803Y4282D02*
Y7038D01*
X4220D01*
X2803Y4282D02*
X4220D01*
X33974D02*
Y7038D01*
X32557Y4282D02*
Y7038D01*
X33974D01*
X32557Y4282D02*
X33974D01*
X26886D02*
Y7038D01*
X25469Y4282D02*
Y7038D01*
X26886D01*
X25469Y4282D02*
X26886D01*
X12709D02*
Y7038D01*
X11291Y4282D02*
Y7038D01*
X12709D01*
X11291Y4282D02*
X12709D01*
X5740D02*
Y7038D01*
X4323Y4282D02*
Y7038D01*
X5740D01*
X4323Y4282D02*
X5740D01*
X37125Y37394D02*
Y39835D01*
X34802Y37394D02*
Y39835D01*
X37125D01*
X34802Y37394D02*
X37125D01*
X18393Y29310D02*
X18787D01*
X18590Y29113D02*
Y29507D01*
X17155Y27760D02*
Y30860D01*
Y27760D02*
X20025D01*
Y30860D01*
X17155D02*
X20025D01*
X4284Y25575D02*
Y26245D01*
Y25575D02*
X4776D01*
Y26245D01*
X4284D02*
X4776D01*
X31146Y39031D02*
X32721D01*
X31146Y39818D02*
X32721D01*
Y39031D02*
Y39818D01*
X31146Y39031D02*
Y39818D01*
X37463Y10414D02*
X39037D01*
X37463Y9626D02*
X39037D01*
X37463D02*
Y10414D01*
X39037Y9626D02*
Y10414D01*
X31093Y28074D02*
X32667D01*
X31093Y27286D02*
X32667D01*
X31093D02*
Y28074D01*
X32667Y27286D02*
Y28074D01*
X27637Y33226D02*
Y34014D01*
X26063Y33226D02*
Y34014D01*
Y33226D02*
X27637D01*
X26063Y34014D02*
X27637D01*
X28060Y20813D02*
Y21207D01*
X28769Y20813D02*
Y21207D01*
X28060D02*
X28769D01*
X28060Y20813D02*
X28769D01*
X31520D02*
X32229D01*
X31520Y21207D02*
X32229D01*
Y20813D02*
Y21207D01*
X31520Y20813D02*
Y21207D01*
X35490Y20813D02*
Y21207D01*
X36199Y20813D02*
Y21207D01*
X35490D02*
X36199D01*
X35490Y20813D02*
X36199D01*
X26440D02*
X27149D01*
X26440Y21207D02*
X27149D01*
Y20813D02*
Y21207D01*
X26440Y20813D02*
Y21207D01*
X29870Y20813D02*
Y21207D01*
X30579Y20813D02*
Y21207D01*
X29870D02*
X30579D01*
X29870Y20813D02*
X30579D01*
X33830D02*
X34539D01*
X33830Y21207D02*
X34539D01*
Y20813D02*
Y21207D01*
X33830Y20813D02*
Y21207D01*
X2247Y8035D02*
X6302D01*
X2247Y11145D02*
X6302D01*
X2247Y8035D02*
Y11145D01*
X6302Y8035D02*
Y11145D01*
X16307Y8035D02*
X20362D01*
X16307Y11145D02*
X20362D01*
X16307Y8035D02*
Y11145D01*
X20362Y8035D02*
Y11145D01*
X9215Y8035D02*
X13271D01*
X9215Y11145D02*
X13271D01*
X9215Y8035D02*
Y11145D01*
X13271Y8035D02*
Y11145D01*
X23393Y8035D02*
X27448D01*
X23393Y11145D02*
X27448D01*
X23393Y8035D02*
Y11145D01*
X27448Y8035D02*
Y11145D01*
X30481Y8035D02*
X34536D01*
X30481Y11145D02*
X34536D01*
X30481Y8035D02*
Y11145D01*
X34536Y8035D02*
Y11145D01*
M02*
